<svg width="66" height="65" viewBox="0 0 66 65" fill="none" xmlns="http://www.w3.org/2000/svg">
<path d="M17.145 8.05807C17.4288 5.80341 19.6428 1.23527 26.2279 1C26.1333 3.15663 24.1843 7.58754 17.145 8.05807ZM17.145 8.05807C19.9834 7.27384 26.5685 6.94055 30.2017 11.8812C26.2279 14.2339 21.6864 15.9984 14.8742 9.60516M17.145 8.05807C11.279 11.4891 0.625466 22.4683 4.93985 38.9371" stroke="#EFE0D0"/>
<path d="M52.7694 32.708C54.5174 34.1201 57.1823 38.4119 53.8574 44.2827C52.0907 43.0864 49.3998 39.0968 52.7694 32.708ZM52.7694 32.708C51.9116 35.5911 48.6693 41.5125 42.5622 42.1332C42.7058 37.449 43.6487 32.5728 52.6806 29.9266M52.7694 32.708C53.0167 25.8148 49.4648 10.8441 33.2789 6.10665" stroke="#EFE0D0"/>
<path d="M12.3606 49.7832C10.2499 50.5543 5.19852 50.628 1.87875 44.7543C3.81404 43.8561 8.61981 43.6044 12.3606 49.7832ZM12.3606 49.7832C10.331 47.563 6.92533 41.7341 9.53862 36.1795C13.4799 38.7152 17.174 42.0348 14.7904 51.1396M12.3606 49.7832C18.1418 53.5454 32.8036 58.2113 45.2007 46.7773" stroke="#EFE0D0"/>
<path d="M25.0781 33C25.0781 34.2412 25.9353 36.227 29.0781 35.9788" stroke="#EFE0D0"/>
<path d="M28.053 23C32.1964 27.7761 36.9076 39 28.053 39C19.1986 39 24.0754 27.7761 28.053 23Z" stroke="#EFE0D0"/>
</svg>
