<svg width="61" height="52" viewBox="0 0 61 52" fill="none" xmlns="http://www.w3.org/2000/svg">
<path d="M31.4473 32.0611C31.6986 31.9466 31.8095 31.6501 31.695 31.3988L29.8297 27.3036C29.7153 27.0523 29.4187 26.9414 29.1674 27.0558C28.9161 27.1703 28.8052 27.4668 28.9197 27.7181L30.5777 31.3583L26.9375 33.0163C26.6862 33.1308 26.5753 33.4273 26.6898 33.6786C26.8042 33.9299 27.1008 34.0409 27.3521 33.9264L31.4473 32.0611ZM42.5563 2.54336C42.3041 2.65583 42.1909 2.95146 42.3034 3.20366L44.1363 7.31346C44.2487 7.56566 44.5444 7.67892 44.7966 7.56645C45.0488 7.45397 45.162 7.15834 45.0495 6.90615L43.4203 3.25299L47.0735 1.62374C47.3257 1.51127 47.4389 1.21564 47.3264 0.963441C47.214 0.711243 46.9183 0.597976 46.6661 0.710453L42.5563 2.54336ZM33.6265 17.9489C33.5376 18.4876 33.5111 19.3338 33.7187 20.1638C33.9267 20.9952 34.3895 21.8782 35.3344 22.3554L35.7852 21.4628C35.194 21.1642 34.8569 20.5927 34.6888 19.9211C34.5205 19.248 34.542 18.5427 34.6131 18.1117L33.6265 17.9489ZM1 30H22.12V29H1V30ZM45.64 30H61V29H45.64V30ZM23.0852 10.6009C22.1854 13.3275 21.4962 17.6612 22.3625 21.829C23.234 26.0222 25.6889 30.0632 31.0648 32.0744L31.4152 31.1378C26.4231 29.2702 24.158 25.5535 23.3415 21.6255C22.5198 17.6721 23.1746 13.5209 24.0348 10.9143L23.0852 10.6009ZM51.3849 23.0629C52.3725 20.5688 53.1394 16.5606 52.2231 12.6083C51.2993 8.62368 48.6692 4.72861 42.9389 2.5331L42.5811 3.4669C47.9868 5.53806 50.3967 9.15814 51.2489 12.8341C52.1086 16.5425 51.3875 20.3403 50.4551 22.6947L51.3849 23.0629ZM6.76 45.197H7.72V44.197H6.76V45.197ZM12.52 51.5H13.48V50.5H12.52V51.5ZM19.24 45.197H20.2V44.197H19.24V45.197ZM25 51.5H25.96V50.5H25V51.5ZM30.76 45.197H31.72V44.197H30.76V45.197ZM37 51.5H37.96V50.5H37V51.5ZM42.76 45.197H43.72V44.197H42.76V45.197ZM48.52 51.5H49.48V50.5H48.52V51.5ZM55.24 45.197H56.2V44.197H55.24V45.197ZM1.04572 35.4524C2.2931 35.3379 3.16694 35.5114 3.85976 35.8142C4.56359 36.1218 5.11308 36.5753 5.71429 37.0915C6.30444 37.5982 6.94935 38.1703 7.79116 38.6036C8.64576 39.0436 9.6848 39.3333 11.08 39.3333V38.3333C9.8352 38.3333 8.95424 38.0776 8.24884 37.7145C7.53065 37.3448 6.97556 36.8564 6.36571 36.3328C5.76692 35.8186 5.11641 35.2721 4.26024 34.8979C3.39306 34.5189 2.3469 34.3288 0.954279 34.4566L1.04572 35.4524ZM11.08 39.3333C13.6801 39.3333 15.0044 38.1229 16.2673 37.0295C16.8983 36.4832 17.5011 35.9766 18.2563 35.5987C19.0017 35.2256 19.9148 34.9697 21.16 34.9697V33.9697C19.7652 33.9697 18.6983 34.2592 17.8087 34.7044C16.9289 35.1447 16.2417 35.729 15.6127 36.2735C14.3556 37.3619 13.2799 38.3333 11.08 38.3333V39.3333ZM21.16 34.9697C22.6896 34.9697 23.6667 35.2596 24.3684 35.6612C25.0765 36.0665 25.5475 36.6081 26.0474 37.2126C26.5369 37.8044 27.0686 38.4779 27.8644 38.9828C28.6762 39.4978 29.7248 39.8182 31.24 39.8182V38.8182C29.8752 38.8182 29.0214 38.5325 28.4001 38.1384C27.7629 37.7342 27.331 37.1956 26.818 36.5753C26.3155 35.9677 25.7453 35.2971 24.8652 34.7933C23.9787 34.2859 22.8207 33.9697 21.16 33.9697V34.9697ZM31.24 39.8182C32.7547 39.8182 33.8118 39.498 34.6269 38.9834C35.4292 38.4769 35.9576 37.8033 36.432 37.2044C36.9176 36.5912 37.3492 36.0526 37.9869 35.6501C38.6118 35.2556 39.4747 34.9697 40.84 34.9697V33.9697C39.3253 33.9697 38.2682 34.2899 37.4531 34.8045C36.6508 35.311 36.1224 35.9846 35.648 36.5835C35.1624 37.1967 34.7308 37.7352 34.0931 38.1378C33.4682 38.5323 32.6053 38.8182 31.24 38.8182V39.8182ZM40.84 34.9697C43.2779 34.9697 44.4731 36.0602 45.85 37.2696C46.5385 37.8743 47.2857 38.5198 48.2406 39.0061C49.2056 39.4976 50.3637 39.8182 51.88 39.8182V38.8182C50.5163 38.8182 49.5144 38.5327 48.6944 38.1151C47.8643 37.6923 47.2015 37.1257 46.51 36.5183C45.1269 35.3034 43.6821 33.9697 40.84 33.9697V34.9697ZM51.88 39.8182C53.1739 39.8182 54.1383 39.4886 54.9259 38.9808C55.6972 38.4836 56.2801 37.825 56.8133 37.2266C57.3601 36.6129 57.8572 36.0593 58.4959 35.6475C59.1183 35.2462 59.8939 34.9697 61 34.9697V33.9697C59.7061 33.9697 58.7417 34.2992 57.9541 34.807C57.1828 35.3043 56.5999 35.9629 56.0667 36.5613C55.5199 37.175 55.0228 37.7285 54.3841 38.1404C53.7617 38.5417 52.9861 38.8182 51.88 38.8182V39.8182Z" fill="#EFE0D0"/>
<path d="M37 7C39 9.59829 43 13.8205 43 19.6667C43 23.9538 39.3077 26 37 26" stroke="#EFE0D0"/>
<path d="M37 7C35 9.59829 31 13.8205 31 19.6667C31 23.9538 34.6923 26 37 26" stroke="#EFE0D0"/>
</svg>
