<svg width="52" height="47" viewBox="0 0 52 47" fill="none" xmlns="http://www.w3.org/2000/svg">
<path d="M13.671 2.3912C14.8165 1.24572 16.3695 0.601248 17.9894 0.599121C19.6101 0.602316 21.8552 1.35289 23 2.5C24.1448 3.64711 24.9343 5.09703 24.9343 6.71769C24.9343 5.09708 25.8541 3.64595 27 2.5C28.1459 1.35405 30.1939 0.607161 31.8145 0.607161C33.4351 0.607161 34.9894 1.25095 36.1353 2.39689C37.2813 3.54284 37.925 5.09708 37.925 6.71769C37.925 14.1837 29.9037 20.1253 25.5508 23.3496L25.503 23.385L24.9482 23.787L24.502 23.4613C20.0799 20.2453 11.8789 14.2594 11.8789 6.70965C11.881 5.08969 12.5255 3.53669 13.671 2.3912Z" stroke="#EFE0D0"/>
<path d="M0.5 36C6.66667 39.5 20 46.5 24 46.5C28 46.5 38 39.8333 42.5 36.5C45.5 34.5 51.3 30.1 50.5 28.5M50.5 28.5C49.5 26.5 44 29 42.5 30C41.3 30.8 37.1825 34 35.6825 35M50.5 28.5C51.3175 27.192 51.3972 24.8896 45.3579 25.9354C45.124 25.9759 44.8958 26.0625 44.6923 26.1846L40.2517 28.8489M32.5 33.5L37.5 30.5L40.2517 28.8489M40.2517 28.8489C40.2517 27.221 38.5861 26.9569 36.5 28C33.5 29.5 30.4641 31.8644 28.7974 32.6978M16.5 39.5C18.6667 39 23.7751 38.5 27 38.5C31.5 38.5 35.5 41.5 38 40.5C40.5 39.5 38.5 37 36.4368 35.5C34.2207 33.8888 29.7887 32.1148 23.1504 32.4598C22.7275 32.4818 22.3103 32.3795 21.9474 32.1614C17.7134 29.6172 9.10669 25.5437 0.5 26.5" stroke="#EFE0D0" stroke-linecap="round"/>
</svg>
