<svg width="50" height="54" viewBox="0 0 50 54" fill="none" xmlns="http://www.w3.org/2000/svg">
<path d="M8.50303 1H7.76859C5.55945 1 3.76859 2.79086 3.76859 5V8.3055C3.76859 9.61288 4.82843 10.6727 6.13581 10.6727V10.6727M8.50303 1V10.6727M8.50303 1H13.2011M8.50303 10.6727H13.2011M8.50303 10.6727H6.13581M17.8991 1H18.4879C20.697 1 22.4879 2.79086 22.4879 5V8.37834C22.4879 9.6455 21.4606 10.6727 20.1935 10.6727V10.6727H17.8991M17.8991 1V10.6727M17.8991 1H13.2011M17.8991 10.6727H13.2011M13.2011 10.6727V7.32727M13.2011 1V4.27273M6.13581 10.6727C6.13581 11.4485 6.13581 13.1018 6.13581 13.5091C6.13581 14.0182 0.927919 17.1455 1.00076 21.4364C1.00485 21.6775 1.00849 21.9956 1.01171 22.3818M13.1646 53H5.01145C2.79814 53 1.0056 51.2027 1.01053 48.9894C1.01426 47.3171 1.01791 45.4987 1.02114 43.6182M1.01171 22.3818H9.37633M1.01171 22.3818C1.03088 24.6836 1.03515 29.4053 1.03198 34.6727M16.5 22.3818H24.5M6.53566 43.6182H1.02114M1.02114 43.6182C1.02619 40.6815 1.03023 37.5932 1.03198 34.6727M10.1775 43.6182H24.5M24.5 34.6727H16.3228M1.03198 34.6727H9.94661M20 53H35.8953C38.1044 53 39.8953 51.2091 39.8953 49V49M39.8953 49C41.7017 49 43.3187 48.0788 43.9014 47.6182M39.8953 49H25.2549M25.2549 32.5636H45.2853M46.6692 45.6545C48.4173 44.5491 48.9514 42.5758 49 41.7273V40.1273M49 40.1273V36.2784C49 34.2268 47.3369 32.5636 45.2853 32.5636V32.5636M49 40.1273C48.8786 40.3939 48.3882 40.8982 47.3976 40.7818C46.1593 40.6364 44.5569 37.6545 41.5706 37.6545C38.5842 37.6545 36.7633 41.2909 33.2671 41.2909C29.7709 41.2909 30.3164 38.2364 25.2549 37.6545M45.2853 32.5636C42.6631 30.6485 34.986 26.5273 25.2549 25.3636M13.091 40.1273C18.4786 40.0817 16.6612 32.4706 13.6016 29.6991C13.3065 29.4318 12.8665 29.4199 12.5691 29.6845C9.75773 32.1863 7.73644 40.1726 13.091 40.1273Z" stroke="#EFE0D0" stroke-linecap="round"/>
<path d="M19.9337 11C19.9337 11.7698 19.9337 13.4103 19.9337 13.8144C19.9337 14.3196 25.0711 17.4227 24.9993 21.6804C24.9493 24.6392 24.9681 39.2839 24.9895 48.9924C24.9944 51.2057 23.2019 53 20.9886 53H13" stroke="#EFE0D0"/>
<circle cx="13" cy="22" r="3.5" stroke="#EFE0D0"/>
</svg>
