<svg width="82" height="56" viewBox="0 0 82 56" fill="none" xmlns="http://www.w3.org/2000/svg">
<path d="M34.3419 12.6983L31.5081 8.6144C31.1923 8.15923 30.5666 8.0476 30.1128 8.36547L29.0816 9.08781C28.625 9.40767 27.995 9.29238 27.6813 8.83154L25.0516 4.96905L23.0903 5.4913L23.3758 11.4612C23.391 11.7793 23.5568 12.071 23.8221 12.247L26.3935 13.9516L23.7478 15.3363C23.5242 15.4534 23.2647 15.4815 23.0213 15.4152L21.1515 14.9058C20.8747 14.8304 20.5788 14.8775 20.3391 15.0352L17.0166 17.2204C16.747 17.3977 16.4085 17.4341 16.1074 17.318L15.0357 16.9049C14.6619 16.7608 14.2382 16.8537 13.959 17.1409L8.32237 22.9394C8.2583 23.0053 8.18545 23.062 8.10588 23.108L1 27.2166L4.45049 29.6055C4.74283 29.8079 5.12067 29.8398 5.44284 29.6893L8.47993 28.271C8.77376 28.1338 9.11589 28.1476 9.39773 28.308L12.0744 29.8314C12.1913 29.898 12.2936 29.9875 12.3752 30.0945L16.071 34.9458L18.0815 33.0742C18.4167 32.7622 18.9211 32.7177 19.3058 32.9664L22.0167 34.7189C22.2413 34.8641 22.3984 35.0932 22.4529 35.355L23.57 40.7242C23.5941 40.8401 23.5975 40.9593 23.5799 41.0764L22.4199 48.8033C22.3861 49.0283 22.2767 49.235 22.1096 49.3894L19.9935 51.3443L26.2427 54.8572C26.4086 54.9504 26.5977 54.9944 26.7878 54.9839L31.7551 54.7098C32.0232 54.695 32.274 54.573 32.4512 54.3713L39.4337 46.423C39.5469 46.294 39.6915 46.1964 39.8535 46.1395L46.8778 43.6716C46.9843 43.6342 47.0964 43.6151 47.2093 43.6151H50.9472C51.2199 43.6151 51.4809 43.5037 51.6695 43.3066L57.6559 37.0539C57.7342 36.9721 57.8258 36.9043 57.9268 36.8532L60.9551 35.3211C61.2846 35.1544 61.679 35.1828 61.9812 35.3949L66.1976 38.3553C66.4216 38.5125 66.7003 38.5711 66.9686 38.5174L75.8189 36.745C76.2074 36.6672 76.5133 36.3674 76.5989 35.9805L77.8866 30.1604C77.9612 29.8236 78.204 29.549 78.5292 29.4338L79.6298 29.0441C79.9093 28.9451 80.1306 28.727 80.2336 28.4489L81 26.381L75.0259 25.291C74.8163 25.2527 74.5999 25.2824 74.4084 25.3757L69.6396 27.699C69.323 27.8533 68.9485 27.8296 68.6539 27.6367L65.6194 25.6499L64.5495 28.8074C64.4438 29.1193 64.1913 29.3591 63.8744 29.4487L57.7701 31.1746C57.5089 31.2484 57.2288 31.2129 56.9943 31.0761L51.4017 27.8151C51.315 27.7646 51.2365 27.7013 51.1686 27.6274L50.5086 26.9081C50.1751 26.5447 50.1564 25.9924 50.4645 25.6073L51.3049 24.5569C51.5378 24.2658 51.5894 23.8693 51.4388 23.5282L49.6183 19.4055C49.5513 19.2536 49.4474 19.1208 49.3161 19.0191L44.935 15.6235C44.7597 15.4877 44.5442 15.4139 44.3224 15.4139H41.0516L43.2194 11.0271M34.1355 1H37.2882C37.5803 1 37.8577 1.12767 38.0477 1.34948L40.4323 4.13346M30.1097 50.9265L37.7918 42.1305C37.8989 42.008 38.0342 41.9134 38.1861 41.855L43.1161 39.9594M45.5 39.2282L46.7872 38.704C46.9519 38.6369 47.1315 38.615 47.3075 38.6404L51.3742 39.2282" stroke="#EFE0D0" stroke-linecap="round"/>
</svg>
