<svg width="56" height="54" viewBox="0 0 56 54" fill="none" xmlns="http://www.w3.org/2000/svg">
<path d="M9.10547 20.9763C16.3106 2.67792 39.277 2.27129 46.9324 20.9763" stroke="#EFE0D0" stroke-linecap="round" stroke-linejoin="round"/>
<path d="M23.1836 41.2567C17.6619 45.7296 6.04359 46.4615 1 39.6301C1.90064 38.1391 4.15225 34.7505 11.0333 34.7505M19.4193 37.597C15.5165 37.7325 7.30449 35.5638 7.30449 25.8046C9.55609 24.1781 13.525 24.9913 16.5401 26.6179M28.0192 44.1031C22.015 41.5277 11.7176 33.368 18.5625 21.3316C19.5227 21.7195 20.6012 22.2626 21.7017 22.9582M28.0192 44.1031C30.8097 38.3224 30.2782 33.5604 28.3331 29.8709M28.0192 44.1031C29.8992 43.2325 31.4991 42.2746 32.8541 41.2567M28.3331 29.8709C26.7279 26.8262 24.1599 24.5118 21.7017 22.9582M28.3331 29.8709C28.9329 27.9303 30.803 24.435 34.1548 22.5515M20.8141 46.9495C23.516 48.9827 32.5225 48.9827 34.7741 46.9495M13.609 49.796C20.8141 54.2689 34.7741 53.8623 42.4295 49.796M39.5108 26.6179C39.2614 24.5199 38.6304 22.6781 37.9263 21.3316C36.5057 21.492 35.251 21.9356 34.1548 22.5515M39.5108 26.6179C40.7839 25.5335 44.501 23.7714 49.1843 25.398C49.6903 27.5538 49.1651 31.4241 45.1314 34.5471M39.5108 26.6179C39.9366 30.1989 39.2506 34.5262 35.9192 38.4102M35.9192 38.4102C40.1166 37.5324 43.0784 36.1365 45.1314 34.5471M35.9192 38.4102C35.0755 39.3939 34.0621 40.3492 32.8541 41.2567M45.1314 34.5471C47.2329 34.2082 52.2465 34.7505 55.4888 39.6301C52.7078 43.0187 44.2874 48.0881 32.8541 41.2567M51.8862 16.0454L54.5882 14.8255M41.5289 7.09949L43.3302 4.6597M28.0192 3.84643V1M14.5096 7.09949L12.7083 4.6597M4.60257 16.0454L1.45032 14.8255M21.7017 22.9582C22.3065 21.3316 24.4167 17.5093 28.0192 15.2322C29.7079 16.3165 33.2991 19.2985 34.1548 22.5515" stroke="#EFE0D0" stroke-linecap="round" stroke-linejoin="round"/>
</svg>
