<svg width="172" height="99" viewBox="0 0 172 99" fill="none" xmlns="http://www.w3.org/2000/svg">
<path d="M1 20.0257V98H171V20.0257M1 20.0257H171M1 20.0257L5.66179 1H167.581L171 20.0257" stroke="#7A7070" stroke-width="0.8"/>
<path opacity="0.6" d="M87.8194 12.6798C89.1424 12.1867 90.0508 11.1717 90.0508 10.0004C90.0508 9.49072 89.8787 9.0108 89.5761 8.59056C90.8213 9.02834 91.6177 9.68724 91.6177 10.4259C91.6177 11.47 90.0264 12.3587 87.8194 12.6798ZM85.9999 12.8087C84.6394 12.8087 83.5364 11.5516 83.5364 10.0004C83.5364 9.30561 83.7579 8.67042 84.124 8.18C84.7111 8.09139 85.342 8.04223 85.9999 8.04223C86.6578 8.04223 87.2887 8.09139 87.8758 8.18C88.2421 8.67042 88.4636 9.30561 88.4636 10.0004C88.4636 11.5516 87.3606 12.8087 85.9999 12.8087ZM80.3823 10.4259C80.3823 9.68724 81.1786 9.02572 82.4253 8.58881C82.1218 9.00905 81.9492 9.48984 81.9492 10.0004C81.9492 11.1717 82.8576 12.1867 84.1808 12.6798C81.9736 12.3587 80.3823 11.47 80.3823 10.4259ZM85.9999 7.19037C86.6549 7.19037 87.2495 7.48252 87.6905 7.95803C87.1539 7.89048 86.5881 7.851 85.9999 7.851C85.4132 7.851 84.8472 7.88784 84.3112 7.95539C84.7524 7.48164 85.3462 7.19037 85.9999 7.19037ZM89.3198 8.28175C88.5875 7.50707 87.3741 7 85.9999 7C84.6257 7 83.4121 7.50709 82.6799 8.28264C81.0652 8.74323 80 9.53108 80 10.4259C80 11.8472 82.6864 13 85.9999 13C89.3138 13 92 11.8472 92 10.4259C92 9.53108 90.935 8.74322 89.3198 8.28175Z" fill="#645140"/>
<path opacity="0.6" d="M85 14.7073C85.5523 15.0976 86.4477 15.0976 87 14.7073L85.9998 14L85 14.7073Z" fill="#645140"/>
<path d="M52.0317 49.1907L55.3638 40.2289L58.6958 49.1907H52.0317ZM55.4739 38.5L50 53.2234H50.5332L51.8459 49.692H58.8816L60.1944 53.2234H62.4093L56.9352 38.5H55.4739Z" fill="#645140"/>
<path d="M71.6084 49.6922L65.9609 38.5002H64.0078V53.2236H64.5076V40.2269L70.7255 52.5522L76.9423 40.2291V53.2236H79.0183V38.5002H77.2556L71.6084 49.6922Z" fill="#645140"/>
<path d="M100.271 46.2699V38.9979H101.957C103.994 38.9979 105.646 40.5958 105.646 42.5684C105.646 44.4376 104.158 45.9895 102.233 46.1297L100.271 46.2699ZM119.478 53.2224H121.693L116.219 38.499H114.757L111.05 48.4679C111.245 48.3736 111.453 48.2955 111.674 48.238C111.983 48.1552 112.313 48.1092 112.657 48.1092C114.363 48.1092 115.751 49.199 115.751 50.5393C115.751 51.8797 114.363 52.9718 112.657 52.9718C110.744 52.9718 109.339 51.4521 108.133 50.1508C107.588 49.5622 107.025 48.9553 106.372 48.4311C105.339 47.6034 104.125 47.0033 102.839 46.6608L103.949 46.5781C106.077 46.4194 107.722 44.6606 107.722 42.5432C107.722 40.3085 105.896 38.499 103.644 38.499H98.1953V53.2224H100.271V46.8516L100.537 46.831C102.538 46.8769 104.512 47.5827 106.059 48.8219C106.684 49.3231 107.234 49.9163 107.767 50.4911C108.173 50.9279 108.592 51.3808 109.049 51.7992C109.97 52.643 111.082 53.3258 112.349 53.4431C113.487 53.5511 114.706 53.1672 115.502 52.328C115.96 51.8452 116.251 51.213 116.251 50.5393C116.251 48.9254 114.638 47.6103 112.657 47.6103C112.39 47.6103 112.131 47.6356 111.881 47.6793L114.647 40.2279L119.478 53.2224Z" fill="#645140"/>
<path d="M90.9853 52.8845C92.7158 51.5924 93.904 48.9324 93.904 45.8631C93.904 44.5273 93.6789 43.2696 93.283 42.1684C94.9117 43.3156 95.9534 45.0423 95.9534 46.9781C95.9534 49.7141 93.872 52.043 90.9853 52.8845ZM88.6055 53.2224C86.826 53.2224 85.3833 49.9279 85.3833 45.8631C85.3833 44.0422 85.673 42.3777 86.1519 41.0925C86.9198 40.8603 87.745 40.7315 88.6055 40.7315C89.4661 40.7315 90.2912 40.8603 91.0591 41.0925C91.5382 42.3777 91.8279 44.0422 91.8279 45.8631C91.8279 49.9279 90.3853 53.2224 88.6055 53.2224ZM81.2579 46.9781C81.2579 45.0423 82.2994 43.3087 83.9301 42.1638C83.533 43.2651 83.3073 44.525 83.3073 45.8631C83.3073 48.9324 84.4954 51.5924 86.2262 52.8845C83.3392 52.043 81.2579 49.7141 81.2579 46.9781ZM88.6055 38.4991C89.4622 38.4991 90.2399 39.2647 90.8168 40.5108C90.1149 40.3338 89.3748 40.2303 88.6055 40.2303C87.8381 40.2303 87.0978 40.3268 86.3968 40.5039C86.9739 39.2624 87.7505 38.4991 88.6055 38.4991ZM92.9478 41.3591C91.99 39.329 90.403 38.0002 88.6055 38.0002C86.8081 38.0002 85.2208 39.3291 84.263 41.3615C82.1511 42.5685 80.7578 44.6331 80.7578 46.9781C80.7578 50.7027 84.2715 53.7236 88.6055 53.7236C92.94 53.7236 96.4535 50.7027 96.4535 46.9781C96.4535 44.6331 95.0604 42.5684 92.9478 41.3591Z" fill="#645140"/>
<path d="M87.5078 55.63C88.1076 56.2301 89.0802 56.2301 89.68 55.63L88.5937 54.5425L87.5078 55.63Z" fill="#645140"/>
<path d="M65.8179 74.9999V72.1999H67.9979V72.6279H66.3299V73.3159H67.1579C67.8299 73.3159 68.1859 73.6039 68.1859 74.1319C68.1859 74.6879 67.7859 74.9999 67.0779 74.9999H65.8179ZM66.3299 74.5999H67.0499C67.4499 74.5999 67.6619 74.4439 67.6619 74.1479C67.6619 73.8559 67.4579 73.7159 67.0499 73.7159H66.3299V74.5999ZM69.2753 74.5639H70.8553V74.9999H68.7553V72.1999H70.7993V72.6359H69.2753V73.3639H70.6273V73.7919H69.2753V74.5639ZM72.587 72.1999C73.323 72.1999 73.779 72.5759 73.779 73.1959C73.779 73.8119 73.323 74.1919 72.587 74.1919H71.955V74.9999H71.435V72.1999H72.587ZM72.563 73.7519C73.019 73.7519 73.255 73.5479 73.255 73.1959C73.255 72.8439 73.019 72.6399 72.563 72.6399H71.955V73.7519H72.563ZM74.7909 74.5639H76.3709V74.9999H74.2709V72.1999H76.3149V72.6359H74.7909V73.3639H76.1429V73.7919H74.7909V74.5639ZM80.0713 74.9999L79.3673 73.8199H78.8873V74.9999H78.3793V73.8199H77.8993L77.1913 74.9999H76.5913L77.4713 73.5399L76.6513 72.1999H77.2033L77.8873 73.3719H78.3793V72.1999H78.8873V73.3719H79.3713L80.0593 72.1999H80.6113L79.7953 73.5439L80.6713 74.9999H80.0713ZM83.0006 72.1999H83.5206V74.9999H83.0006V73.7999H81.5526V74.9999H81.0326V72.1999H81.5526V73.3559H83.0006V72.1999ZM86.4421 74.9999L86.1621 74.3519H84.7621L84.4861 74.9999H83.9501L85.2101 72.1999H85.7221L86.9861 74.9999H86.4421ZM84.9381 73.9439H85.9901L85.4621 72.7199L84.9381 73.9439ZM88.2508 72.1999H89.4148V74.9999H88.9028V74.2199H88.2108H88.1548L87.6348 74.9999H87.0868L87.6868 74.1359C87.2988 73.9919 87.0788 73.6759 87.0788 73.2279C87.0788 72.5799 87.5388 72.1999 88.2508 72.1999ZM88.2668 72.6399C87.8428 72.6399 87.6068 72.8359 87.6068 73.2199C87.6068 73.5879 87.8268 73.7959 88.2468 73.7959H88.9028V72.6399H88.2668ZM94.378 74.9999H93.882L93.878 73.1439L92.958 74.6799H92.726L91.806 73.1679V74.9999H91.314V72.1999H91.742L92.85 74.0519L93.946 72.1999H94.37L94.378 74.9999ZM97.2975 74.9999L97.0175 74.3519H95.6175L95.3415 74.9999H94.8055L96.0655 72.1999H96.5775L97.8415 74.9999H97.2975ZM95.7935 73.9439H96.8455L96.3175 72.7199L95.7935 73.9439ZM99.5198 75.0399C98.6638 75.0399 98.0238 74.4359 98.0238 73.5999C98.0238 72.7639 98.6638 72.1599 99.5238 72.1599C99.9798 72.1599 100.372 72.3239 100.632 72.6279L100.296 72.9439C100.092 72.7239 99.8398 72.6159 99.5478 72.6159C98.9678 72.6159 98.5478 73.0239 98.5478 73.5999C98.5478 74.1759 98.9678 74.5839 99.5478 74.5839C99.8398 74.5839 100.092 74.4759 100.296 74.2519L100.632 74.5719C100.372 74.8759 99.9798 75.0399 99.5198 75.0399ZM102.967 74.9999L102.147 73.8199H101.627V74.9999H101.115V72.1999H101.627V73.3719H102.163L102.967 72.1999H103.519L102.563 73.5559L103.555 74.9999H102.967ZM105.997 74.9999L105.717 74.3519H104.317L104.041 74.9999H103.505L104.765 72.1999H105.277L106.541 74.9999H105.997ZM104.493 73.9439H105.545L105.017 72.7199L104.493 73.9439ZM61.7081 78.1999L61.7041 78.6399H60.3161L60.3201 80.9999H59.8081V78.1999H61.7081ZM62.1244 78.1999H64.1844V80.9999H63.6724V78.6399H62.5684L62.5444 79.3399C62.5084 80.4439 62.3444 81.0399 61.7404 81.0399C61.6524 81.0399 61.5644 81.0239 61.4564 80.9999L61.4924 80.5479C61.5324 80.5599 61.5684 80.5639 61.6124 80.5639C61.9524 80.5639 62.0564 80.1479 62.0844 79.3599L62.1244 78.1999ZM66.8641 78.1999H67.3761L66.1601 80.4599C65.9441 80.8679 65.6361 81.0599 65.2961 81.0599C65.1641 81.0599 65.0241 81.0319 64.8841 80.9719L65.0121 80.5639C65.1121 80.5959 65.2001 80.6159 65.2841 80.6159C65.4481 80.6159 65.5841 80.5399 65.7001 80.3559L65.7441 80.2879L64.6281 78.1999H65.1841L66.0121 79.8439L66.8641 78.1999ZM67.7417 80.9999V78.1999H69.9217V78.6279H68.2537V79.3159H69.0817C69.7537 79.3159 70.1097 79.6039 70.1097 80.1319C70.1097 80.6879 69.7097 80.9999 69.0017 80.9999H67.7417ZM68.2537 80.5999H68.9737C69.3737 80.5999 69.5857 80.4439 69.5857 80.1479C69.5857 79.8559 69.3817 79.7159 68.9737 79.7159H68.2537V80.5999ZM71.9751 81.0399C71.1071 81.0399 70.4671 80.4279 70.4671 79.5999C70.4671 78.7719 71.1071 78.1599 71.9751 78.1599C72.8431 78.1599 73.4831 78.7679 73.4831 79.5999C73.4831 80.4319 72.8431 81.0399 71.9751 81.0399ZM71.9751 80.5839C72.5391 80.5839 72.9591 80.1719 72.9591 79.5999C72.9591 79.0279 72.5391 78.6159 71.9751 78.6159C71.4111 78.6159 70.9911 79.0279 70.9911 79.5999C70.9911 80.1719 71.4111 80.5839 71.9751 80.5839ZM75.91 80.9999L75.09 79.8199H74.57V80.9999H74.058V78.1999H74.57V79.3719H75.106L75.91 78.1999H76.462L75.506 79.5559L76.498 80.9999H75.91ZM78.1392 81.0399C77.2712 81.0399 76.6312 80.4279 76.6312 79.5999C76.6312 78.7719 77.2712 78.1599 78.1392 78.1599C79.0072 78.1599 79.6472 78.7679 79.6472 79.5999C79.6472 80.4319 79.0072 81.0399 78.1392 81.0399ZM78.1392 80.5839C78.7032 80.5839 79.1232 80.1719 79.1232 79.5999C79.1232 79.0279 78.7032 78.6159 78.1392 78.6159C77.5752 78.6159 77.1552 79.0279 77.1552 79.5999C77.1552 80.1719 77.5752 80.5839 78.1392 80.5839ZM82.1261 78.1999L82.1221 78.6399H80.7341L80.7381 80.9999H80.2261V78.1999H82.1261ZM83.5376 81.0399C82.6696 81.0399 82.0296 80.4279 82.0296 79.5999C82.0296 78.7719 82.6696 78.1599 83.5376 78.1599C84.4056 78.1599 85.0456 78.7679 85.0456 79.5999C85.0456 80.4319 84.4056 81.0399 83.5376 81.0399ZM83.5376 80.5839C84.1016 80.5839 84.5216 80.1719 84.5216 79.5999C84.5216 79.0279 84.1016 78.6159 83.5376 78.6159C82.9736 78.6159 82.5536 79.0279 82.5536 79.5999C82.5536 80.1719 82.9736 80.5839 83.5376 80.5839ZM88.022 81.0399C87.154 81.0399 86.514 80.4279 86.514 79.5999C86.514 78.7719 87.154 78.1599 88.022 78.1599C88.89 78.1599 89.53 78.7679 89.53 79.5999C89.53 80.4319 88.89 81.0399 88.022 81.0399ZM88.022 80.5839C88.586 80.5839 89.006 80.1719 89.006 79.5999C89.006 79.0279 88.586 78.6159 88.022 78.6159C87.458 78.6159 87.038 79.0279 87.038 79.5999C87.038 80.1719 87.458 80.5839 88.022 80.5839ZM91.7143 78.1999H92.2303V80.9999H91.7143V79.9439C91.4463 80.0439 91.1943 80.0919 90.9623 80.0919C90.2463 80.0919 89.8463 79.7359 89.8463 79.0919V78.1999H90.3623V79.0359C90.3623 79.4319 90.5983 79.6439 91.0263 79.6439C91.2583 79.6439 91.4943 79.5959 91.7143 79.4959V78.1999ZM93.019 80.9999V78.1999H93.531V80.1879L95.035 78.1999H95.519V80.9999H95.007V79.0159L93.503 80.9999H93.019ZM99.9041 80.5599H100.308V81.5959H99.8281V80.9999H96.3081V78.1999H96.8201V80.5599H97.8521V78.1999H98.3641V80.5599H99.3921V78.1999H99.9041V80.5599ZM101.328 80.5639H102.908V80.9999H100.808V78.1999H102.852V78.6359H101.328V79.3639H102.68V79.7919H101.328V80.5639ZM105.456 78.1999H105.976V80.9999H105.456V79.7999H104.008V80.9999H103.488V78.1999H104.008V79.3559H105.456V78.1999ZM106.765 80.9999V78.1999H107.277V80.1879L108.781 78.1999H109.265V80.9999H108.753V79.0159L107.249 80.9999H106.765ZM111.026 78.1999H112.19V80.9999H111.678V80.2199H110.986H110.93L110.41 80.9999H109.862L110.462 80.1359C110.074 79.9919 109.854 79.6759 109.854 79.2279C109.854 78.5799 110.314 78.1999 111.026 78.1999ZM111.042 78.6399C110.618 78.6399 110.382 78.8359 110.382 79.2199C110.382 79.5879 110.602 79.7959 111.022 79.7959H111.678V78.6399H111.042Z" fill="#645140"/>
</svg>
