<svg width="74" height="179" viewBox="0 0 74 179" fill="none" xmlns="http://www.w3.org/2000/svg">
<path d="M6.55832 20.834L5.67384 31.5043M6.55832 20.834C17.6958 13.1868 20.3309 11.2936 36.757 11.2936M6.55832 20.834C8.66422 14.2227 17.6522 1 36.757 1M5.67384 31.5043L3.14676 33.2617L2.38863 43.4298L2.76769 44.434V46.6936M5.67384 31.5043C8.4536 34.8936 19.8255 35.3957 36.757 34.8936M2.76769 46.6936C2.05168 46.861 0.594397 47.3715 0.493313 48.0745C0.39223 48.7774 0.451195 50.2922 0.493313 50.9617M2.76769 46.6936C4.53661 49.2043 14.0132 50.334 36.757 50.334M0.493313 50.9617V178H36.757M0.493313 50.9617C4.0312 52.217 15.7822 54.7277 36.757 53.9745" stroke="#635E5E" stroke-width="0.6"/>
<path d="M34.164 6.44191C33.5329 6.3051 33.492 5.81487 33.5505 5.58685C34.2517 4.47527 35.7415 4.21875 36.7933 4.21875C37.845 4.21875 39.7732 4.81729 39.9485 5.58685C40.0887 6.20249 39.4226 6.41341 39.0721 6.44191C37.699 6.49892 34.795 6.57872 34.164 6.44191Z" stroke="#635E5E" stroke-width="0.6"/>
<path d="M66.9573 20.834L67.8418 31.5043M66.9573 20.834C55.8198 13.1868 53.1847 11.2936 36.7586 11.2936M66.9573 20.834C64.8514 14.2227 55.8634 1 36.7586 1M67.8418 31.5043L70.3689 33.2617L71.127 43.4298L70.7479 44.434V46.6936M67.8418 31.5043C65.062 34.8936 53.6901 35.3957 36.7586 34.8936M70.7479 46.6936C71.4639 46.861 72.9212 47.3715 73.0223 48.0745C73.1234 48.7774 73.0644 50.2922 73.0223 50.9617M70.7479 46.6936C68.979 49.2043 59.5024 50.334 36.7586 50.334M73.0223 50.9617V178H36.7586M73.0223 50.9617C69.4844 52.217 57.7335 54.7277 36.7586 53.9745" stroke="#635E5E" stroke-width="0.6"/>
<path d="M11.5606 92.6576L14.0431 85.9806L16.5257 92.6576H11.5606ZM14.1252 84.6925L10.0469 95.6621H10.4441L11.4222 93.031H16.6641L17.6422 95.6621H19.2924L15.2139 84.6925H14.1252Z" fill="#645140"/>
<path d="M26.1393 93.031L21.9317 84.6925H20.4766V95.6621H20.849V85.9789L25.4816 95.1619L30.1133 85.9806V95.6621H31.6601V84.6925H30.3468L26.1393 93.031Z" fill="#645140"/>
<path d="M47.4999 90.4832V85.0652H48.756C50.2736 85.0652 51.5042 86.2557 51.5042 87.7254C51.5042 89.118 50.3954 90.2742 48.9615 90.3787L47.4999 90.4832ZM61.8095 95.6631H63.4598L59.3813 84.6935H58.2926L55.5308 92.1208C55.6761 92.0505 55.8311 91.9923 55.9952 91.9495C56.2256 91.8878 56.4715 91.8535 56.728 91.8535C57.9988 91.8535 59.0327 92.6654 59.0327 93.6641C59.0327 94.6627 57.9988 95.4764 56.728 95.4764C55.3028 95.4764 54.256 94.3441 53.3574 93.3746C52.9515 92.9361 52.5318 92.4839 52.0448 92.0933C51.2754 91.4767 50.3709 91.0296 49.4126 90.7744L50.2396 90.7128C51.8251 90.5946 53.0508 89.2842 53.0508 87.7066C53.0508 86.0416 51.6906 84.6935 50.0124 84.6935H45.9531V95.6631H47.4999V90.9166L47.6976 90.9012C49.1883 90.9354 50.6596 91.4613 51.812 92.3845C52.2773 92.758 52.6875 93.1999 53.0842 93.6281C53.3867 93.9536 53.699 94.291 54.0393 94.6028C54.7255 95.2314 55.5544 95.7402 56.4986 95.8275C57.3462 95.908 58.2545 95.622 58.8474 94.9968C59.1884 94.637 59.4051 94.166 59.4051 93.6641C59.4051 92.4616 58.204 91.4818 56.728 91.4818C56.5291 91.4818 56.3359 91.5007 56.1493 91.5332L58.2105 85.9816L61.8095 95.6631Z" fill="#645140"/>
<path d="M40.5809 95.4098C41.8702 94.4471 42.7555 92.4653 42.7555 90.1786C42.7555 89.1833 42.5878 88.2463 42.2928 87.4258C43.5063 88.2806 44.2824 89.567 44.2824 91.0093C44.2824 93.0477 42.7317 94.7829 40.5809 95.4098ZM38.8079 95.6616C37.4821 95.6616 36.4072 93.207 36.4072 90.1786C36.4072 88.8219 36.623 87.5817 36.9798 86.6242C37.5519 86.4512 38.1667 86.3552 38.8079 86.3552C39.449 86.3552 40.0638 86.4512 40.6359 86.6242C40.9929 87.5817 41.2087 88.8219 41.2087 90.1786C41.2087 93.207 40.1338 95.6616 38.8079 95.6616ZM33.3335 91.0093C33.3335 89.567 34.1095 88.2754 35.3244 87.4224C35.0286 88.2429 34.8604 89.1816 34.8604 90.1786C34.8604 92.4653 35.7457 94.4471 37.0351 95.4098C34.8842 94.7829 33.3335 93.0477 33.3335 91.0093ZM38.8079 84.692C39.4461 84.692 40.0256 85.2624 40.4554 86.1908C39.9324 86.0589 39.381 85.9819 38.8079 85.9819C38.2361 85.9819 37.6845 86.0538 37.1622 86.1857C37.5922 85.2607 38.1708 84.692 38.8079 84.692ZM42.0431 86.8229C41.3295 85.3104 40.147 84.3203 38.8079 84.3203C37.4687 84.3203 36.2861 85.3104 35.5725 86.8246C33.999 87.7239 32.9609 89.2621 32.9609 91.0093C32.9609 93.7843 35.5788 96.035 38.8079 96.035C42.0372 96.035 44.6549 93.7843 44.6549 91.0093C44.6549 89.2621 43.6171 87.7239 42.0431 86.8229Z" fill="#645140"/>
<path d="M38 97.4538C38.4469 97.9008 39.1715 97.9008 39.6184 97.4538L38.809 96.6435L38 97.4538Z" fill="#645140"/>
<path d="M16.9928 132.454H17.5048L16.2888 134.714C16.0728 135.122 15.7648 135.314 15.4248 135.314C15.2928 135.314 15.1528 135.286 15.0128 135.226L15.1408 134.818C15.2408 134.85 15.3288 134.87 15.4128 134.87C15.5768 134.87 15.7128 134.794 15.8288 134.61L15.8728 134.542L14.7568 132.454H15.3128L16.1408 134.098L16.9928 132.454ZM19.1232 135.294C18.2672 135.294 17.6272 134.69 17.6272 133.854C17.6272 133.018 18.2672 132.414 19.1272 132.414C19.5832 132.414 19.9752 132.578 20.2352 132.882L19.8992 133.198C19.6952 132.978 19.4432 132.87 19.1512 132.87C18.5712 132.87 18.1512 133.278 18.1512 133.854C18.1512 134.43 18.5712 134.838 19.1512 134.838C19.4432 134.838 19.6952 134.73 19.8992 134.506L20.2352 134.826C19.9752 135.13 19.5832 135.294 19.1232 135.294ZM20.722 132.454H23.198V135.254H22.686V132.894H21.234V135.254H20.722V132.454ZM25.2835 135.294C24.4155 135.294 23.7755 134.682 23.7755 133.854C23.7755 133.026 24.4155 132.414 25.2835 132.414C26.1515 132.414 26.7915 133.022 26.7915 133.854C26.7915 134.686 26.1515 135.294 25.2835 135.294ZM25.2835 134.838C25.8475 134.838 26.2675 134.426 26.2675 133.854C26.2675 133.282 25.8475 132.87 25.2835 132.87C24.7195 132.87 24.2995 133.282 24.2995 133.854C24.2995 134.426 24.7195 134.838 25.2835 134.838ZM29.2184 135.254L28.3984 134.074H27.8784V135.254H27.3664V132.454H27.8784V133.626H28.4144L29.2184 132.454H29.7704L28.8144 133.81L29.8064 135.254H29.2184ZM32.2485 135.254L31.9685 134.606H30.5685L30.2925 135.254H29.7565L31.0165 132.454H31.5285L32.7925 135.254H32.2485ZM30.7445 134.198H31.7965L31.2685 132.974L30.7445 134.198ZM33.2259 135.254V132.454H33.7379V134.442L35.2419 132.454H35.7259V135.254H35.2139V133.27L33.7099 135.254H33.2259ZM38.3549 133.798C38.7069 133.894 38.9029 134.126 38.9029 134.478C38.9029 134.962 38.5389 135.254 37.8429 135.254H36.5149V132.454H37.7669C38.3909 132.454 38.7669 132.71 38.7669 133.174C38.7669 133.474 38.6149 133.686 38.3549 133.798ZM37.0269 132.854V133.65H37.7229C38.0589 133.65 38.2389 133.514 38.2389 133.254C38.2389 132.99 38.0589 132.854 37.7229 132.854H37.0269ZM37.8269 134.854C38.1869 134.854 38.3789 134.718 38.3789 134.438C38.3789 134.158 38.1869 134.03 37.8269 134.03H37.0269V134.854H37.8269ZM41.6313 135.254L41.3513 134.606H39.9513L39.6753 135.254H39.1393L40.3993 132.454H40.9113L42.1753 135.254H41.6313ZM40.1273 134.198H41.1793L40.6513 132.974L40.1273 134.198ZM45.0007 132.414C45.8327 132.414 46.4487 133.022 46.4487 133.854C46.4487 134.686 45.8327 135.294 45.0007 135.294C44.2407 135.294 43.6567 134.786 43.5607 134.066H43.1207V135.254H42.6087V132.454H43.1207V133.602H43.5687C43.6807 132.902 44.2567 132.414 45.0007 132.414ZM45.0007 134.838C45.5247 134.838 45.9247 134.438 45.9247 133.854C45.9247 133.27 45.5247 132.87 45.0007 132.87C44.4807 132.87 44.0767 133.27 44.0767 133.854C44.0767 134.438 44.4807 134.838 45.0007 134.838ZM50.6305 134.814H51.0345V135.85H50.5545V135.254H47.0345V132.454H47.5465V134.814H48.5785V132.454H49.0905V134.814H50.1185V132.454H50.6305V134.814ZM51.5384 135.254V132.454H52.0504V134.442L53.5544 132.454H54.0384V135.254H53.5264V133.27L52.0224 135.254H51.5384ZM56.0714 132.266C55.5874 132.266 55.3474 132.058 55.3434 131.686H55.7074C55.7114 131.886 55.8394 131.994 56.0714 131.994C56.2994 131.994 56.4354 131.886 56.4434 131.686H56.8034C56.7994 132.058 56.5514 132.266 56.0714 132.266ZM54.8274 135.254V132.454H55.3394V134.442L56.8434 132.454H57.3274V135.254H56.8154V133.27L55.3114 135.254H54.8274ZM20.5813 141.254V138.454H22.7613V138.882H21.0933V139.57H21.9213C22.5933 139.57 22.9493 139.858 22.9493 140.386C22.9493 140.942 22.5493 141.254 21.8413 141.254H20.5813ZM21.0933 140.854H21.8133C22.2133 140.854 22.4253 140.698 22.4253 140.402C22.4253 140.11 22.2213 139.97 21.8133 139.97H21.0933V140.854ZM25.6352 141.254L25.3552 140.606H23.9552L23.6792 141.254H23.1432L24.4032 138.454H24.9152L26.1792 141.254H25.6352ZM24.1312 140.198H25.1832L24.6552 138.974L24.1312 140.198ZM26.9601 138.454H29.0201V141.254H28.5081V138.894H27.4041L27.3801 139.594C27.3441 140.698 27.1801 141.294 26.5761 141.294C26.4881 141.294 26.4001 141.278 26.2921 141.254L26.3281 140.802C26.3681 140.814 26.4041 140.818 26.4481 140.818C26.7881 140.818 26.8921 140.402 26.9201 139.614L26.9601 138.454ZM31.0998 139.402C31.7678 139.402 32.1438 139.702 32.1438 140.298C32.1438 140.926 31.7238 141.254 31.0158 141.254H29.8118V138.454H30.3238V139.402H31.0998ZM30.9918 140.854C31.3918 140.854 31.6238 140.666 31.6238 140.306C31.6238 139.954 31.3958 139.798 30.9918 139.798H30.3238V140.854H30.9918ZM34.0689 139.794C34.4009 139.898 34.6049 140.146 34.6049 140.47C34.6049 140.99 34.0449 141.294 33.4049 141.294C33.0409 141.294 32.6489 141.194 32.3209 140.982L32.4889 140.602C32.7409 140.774 33.0569 140.858 33.3409 140.858C33.7409 140.858 34.0769 140.694 34.0769 140.394C34.0769 140.142 33.8569 140.018 33.5049 140.018H32.8529V139.61H33.4649C33.7769 139.61 33.9609 139.474 33.9609 139.254C33.9609 138.986 33.6809 138.842 33.3289 138.842C33.0889 138.842 32.8089 138.91 32.5649 139.054L32.4009 138.634C32.6969 138.474 33.0289 138.402 33.3409 138.402C33.9569 138.402 34.4889 138.694 34.4889 139.19C34.4889 139.47 34.3289 139.686 34.0689 139.794ZM37.3305 141.254L37.0505 140.606H35.6505L35.3745 141.254H34.8385L36.0985 138.454H36.6105L37.8745 141.254H37.3305ZM35.8265 140.198H36.8785L36.3505 138.974L35.8265 140.198ZM41.3719 141.254H40.8759L40.8719 139.398L39.9519 140.934H39.7199L38.7999 139.422V141.254H38.3079V138.454H38.7359L39.8439 140.306L40.9399 138.454H41.3639L41.3719 141.254ZM45.6329 140.814H46.0369V141.85H45.5569V141.254H43.4089V141.85H42.9249L42.9289 140.814H43.0489C43.4289 140.798 43.5209 140.162 43.5489 139.342L43.5809 138.454H45.6329V140.814ZM44.0049 139.39C43.9809 140.026 43.9169 140.59 43.7009 140.814H45.1209V138.894H44.0249L44.0049 139.39ZM46.8586 138.454H48.9186V141.254H48.4066V138.894H47.3026L47.2786 139.594C47.2426 140.698 47.0786 141.294 46.4746 141.294C46.3866 141.294 46.2986 141.278 46.1906 141.254L46.2266 140.802C46.2666 140.814 46.3026 140.818 46.3466 140.818C46.6866 140.818 46.7906 140.402 46.8186 139.614L46.8586 138.454ZM50.6822 138.454H51.8462V141.254H51.3342V140.474H50.6422H50.5862L50.0662 141.254H49.5182L50.1182 140.39C49.7302 140.246 49.5102 139.93 49.5102 139.482C49.5102 138.834 49.9702 138.454 50.6822 138.454ZM50.6982 138.894C50.2742 138.894 50.0382 139.09 50.0382 139.474C50.0382 139.842 50.2582 140.05 50.6782 140.05H51.3342V138.894H50.6982ZM25.3775 144.454H25.8895L24.6735 146.714C24.4575 147.122 24.1495 147.314 23.8095 147.314C23.6775 147.314 23.5375 147.286 23.3975 147.226L23.5255 146.818C23.6255 146.85 23.7135 146.87 23.7975 146.87C23.9615 146.87 24.0975 146.794 24.2135 146.61L24.2575 146.542L23.1415 144.454H23.6975L24.5255 146.098L25.3775 144.454ZM29.3192 147.254H28.8232L28.8192 145.398L27.8992 146.934H27.6672L26.7472 145.422V147.254H26.2552V144.454H26.6832L27.7912 146.306L28.8872 144.454H29.3112L29.3192 147.254ZM31.3947 145.402C32.0627 145.402 32.4387 145.702 32.4387 146.298C32.4387 146.926 32.0187 147.254 31.3107 147.254H30.1067V144.454H30.6187V145.402H31.3947ZM32.8427 147.254V144.454H33.3547V147.254H32.8427ZM31.2867 146.854C31.6867 146.854 31.9187 146.666 31.9187 146.306C31.9187 145.954 31.6907 145.798 31.2867 145.798H30.6187V146.854H31.2867ZM35.9858 145.798C36.3378 145.894 36.5338 146.126 36.5338 146.478C36.5338 146.962 36.1698 147.254 35.4738 147.254H34.1458V144.454H35.3978C36.0218 144.454 36.3978 144.71 36.3978 145.174C36.3978 145.474 36.2458 145.686 35.9858 145.798ZM34.6578 144.854V145.65H35.3538C35.6898 145.65 35.8698 145.514 35.8698 145.254C35.8698 144.99 35.6898 144.854 35.3538 144.854H34.6578ZM35.4578 146.854C35.8178 146.854 36.0098 146.718 36.0098 146.438C36.0098 146.158 35.8178 146.03 35.4578 146.03H34.6578V146.854H35.4578ZM39.2622 147.254L38.9822 146.606H37.5822L37.3062 147.254H36.7702L38.0302 144.454H38.5422L39.8062 147.254H39.2622ZM37.7582 146.198H38.8102L38.2822 144.974L37.7582 146.198ZM42.2035 144.454H42.7235V147.254H42.2035V146.054H40.7555V147.254H40.2355V144.454H40.7555V145.61H42.2035V144.454ZM43.513 147.254V144.454H44.025V146.442L45.529 144.454H46.013V147.254H45.501V145.27L43.997 147.254H43.513ZM47.774 144.454H48.938V147.254H48.426V146.474H47.734H47.678L47.158 147.254H46.61L47.21 146.39C46.822 146.246 46.602 145.93 46.602 145.482C46.602 144.834 47.062 144.454 47.774 144.454ZM47.79 144.894C47.366 144.894 47.13 145.09 47.13 145.474C47.13 145.842 47.35 146.05 47.77 146.05H48.426V144.894H47.79Z" fill="#645140"/>
</svg>
