<svg width="65" height="124" viewBox="0 0 65 124" fill="none" xmlns="http://www.w3.org/2000/svg">
<path d="M5.7935 15.7525L4.98005 22.5029M5.7935 15.7525C16.2973 11.1856 17.81 10.6197 32.1416 10.6197M5.7935 15.7525C7.63088 11.2122 15.4728 1 32.1416 1M4.98005 22.5029L2.81693 24.2871L2.15547 31.2699L2.4862 31.9595V33.5113M4.98005 22.5029C7.40536 24.8305 17.369 24.6319 32.1416 24.2871M2.4862 33.5113C1.86149 33.6262 0.590016 33.9768 0.501822 34.4595C0.413627 34.9423 0.465074 35.9825 0.501822 36.4423M2.4862 33.5113C4.02957 35.2354 12.2978 36.0113 32.1416 36.0113M0.501822 36.4423V123.684H32.1416M0.501822 36.4423C3.5886 37.3044 13.8412 39.0285 32.1416 38.5113" stroke="#635E5E" stroke-width="0.6"/>
<path d="M58.4956 15.7525L59.309 22.5029M58.4956 15.7525C47.9917 11.1856 46.4791 10.6197 32.1475 10.6197M58.4956 15.7525C56.6582 11.2122 48.8162 1 32.1475 1M59.309 22.5029L61.4721 24.2871L62.1336 31.2699L61.8029 31.9595V33.5113M59.309 22.5029C56.8837 24.8305 46.9201 24.6319 32.1475 24.2871M61.8029 33.5113C62.4276 33.6262 63.699 33.9768 63.7872 34.4595C63.8754 34.9423 63.824 35.9825 63.7872 36.4423M61.8029 33.5113C60.2595 35.2354 51.9912 36.0113 32.1475 36.0113M63.7872 36.4423V123.684H32.1475M63.7872 36.4423C60.7005 37.3044 50.4478 39.0285 32.1475 38.5113" stroke="#635E5E" stroke-width="0.6"/>
<path d="M10.8307 63.6984L12.9874 57.8977L15.1441 63.6984H10.8307ZM13.0587 56.7787L9.51562 66.3086H9.86072L10.7104 64.0228H15.2644L16.1141 66.3086H17.5477L14.0045 56.7787H13.0587Z" fill="#645140"/>
<path d="M23.4977 64.0228L19.8423 56.7787H18.5781V66.3086H18.9016V57.8963L22.9262 65.874L26.9501 57.8977V66.3086H28.2939V56.7787H27.1529L23.4977 64.0228Z" fill="#645140"/>
<path d="M42.0547 61.8084V57.1015H43.1459C44.4644 57.1015 45.5335 58.1358 45.5335 59.4126C45.5335 60.6224 44.5702 61.6269 43.3245 61.7177L42.0547 61.8084ZM54.4863 66.3085H55.9199L52.3767 56.7786H51.4309L49.0316 63.2311C49.1578 63.1701 49.2924 63.1195 49.435 63.0823C49.6352 63.0287 49.8488 62.9989 50.0716 62.9989C51.1756 62.9989 52.0739 63.7043 52.0739 64.5718C52.0739 65.4394 51.1756 66.1463 50.0716 66.1463C48.8335 66.1463 47.9241 65.1626 47.1435 64.3204C46.7908 63.9394 46.4262 63.5465 46.0031 63.2072C45.3347 62.6715 44.5489 62.2831 43.7163 62.0614L44.4348 62.0079C45.8122 61.9052 46.8771 60.7668 46.8771 59.3962C46.8771 57.9498 45.6954 56.7786 44.2375 56.7786H40.7109V66.3085H42.0547V62.1849L42.2264 62.1716C43.5215 62.2013 44.7997 62.6581 45.8009 63.4602C46.2051 63.7846 46.5615 64.1686 46.9061 64.5406C47.1689 64.8234 47.4402 65.1165 47.7359 65.3873C48.332 65.9335 49.0521 66.3754 49.8724 66.4513C50.6087 66.5213 51.3978 66.2728 51.9129 65.7296C52.2092 65.4171 52.3974 65.0079 52.3974 64.5718C52.3974 63.5272 51.3539 62.676 50.0716 62.676C49.8988 62.676 49.731 62.6924 49.5689 62.7206L51.3596 57.8976L54.4863 66.3085Z" fill="#645140"/>
<path d="M36.0496 66.0897C37.1697 65.2533 37.9387 63.5316 37.9387 61.545C37.9387 60.6804 37.793 59.8663 37.5368 59.1535C38.591 59.8961 39.2652 61.0137 39.2652 62.2667C39.2652 64.0376 37.918 65.545 36.0496 66.0897ZM34.5092 66.3084C33.3574 66.3084 32.4236 64.176 32.4236 61.545C32.4236 60.3664 32.6111 59.289 32.9211 58.4571C33.4181 58.3068 33.9522 58.2235 34.5092 58.2235C35.0662 58.2235 35.6003 58.3068 36.0973 58.4571C36.4075 59.289 36.595 60.3664 36.595 61.545C36.595 64.176 35.6612 66.3084 34.5092 66.3084ZM29.7534 62.2667C29.7534 61.0137 30.4275 59.8916 31.483 59.1506C31.226 59.8634 31.0799 60.6789 31.0799 61.545C31.0799 63.5316 31.8489 65.2533 32.9692 66.0897C31.1005 65.545 29.7534 64.0376 29.7534 62.2667ZM34.5092 56.7785C35.0637 56.7785 35.5671 57.2741 35.9405 58.0806C35.4862 57.966 35.0071 57.8991 34.5092 57.8991C34.0125 57.8991 33.5333 57.9616 33.0796 58.0762C33.4531 57.2726 33.9558 56.7785 34.5092 56.7785ZM37.3198 58.6297C36.6999 57.3157 35.6726 56.4556 34.5092 56.4556C33.3458 56.4556 32.3184 57.3157 31.6985 58.6312C30.3315 59.4125 29.4297 60.7488 29.4297 62.2667C29.4297 64.6775 31.704 66.6328 34.5092 66.6328C37.3148 66.6328 39.5889 64.6775 39.5889 62.2667C39.5889 60.7488 38.6872 59.4125 37.3198 58.6297Z" fill="#645140"/>
<path d="M33.7969 67.8669C34.1851 68.2553 34.8146 68.2553 35.2028 67.8669L34.4997 67.163L33.7969 67.8669Z" fill="#645140"/>
<path d="M17.3392 94.7381H17.8592V97.5381H17.3392V96.3381H15.8912V97.5381H15.3712V94.7381H15.8912V95.8941H17.3392V94.7381ZM20.7807 97.5381L20.5007 96.8901H19.1007L18.8247 97.5381H18.2887L19.5487 94.7381H20.0607L21.3247 97.5381H20.7807ZM19.2767 96.4821H20.3287L19.8007 95.2581L19.2767 96.4821ZM23.003 97.5781C22.147 97.5781 21.507 96.9741 21.507 96.1381C21.507 95.3021 22.147 94.6981 23.007 94.6981C23.463 94.6981 23.855 94.8621 24.115 95.1661L23.779 95.4821C23.575 95.2621 23.323 95.1541 23.031 95.1541C22.451 95.1541 22.031 95.5621 22.031 96.1381C22.031 96.7141 22.451 97.1221 23.031 97.1221C23.323 97.1221 23.575 97.0141 23.779 96.7901L24.115 97.1101C23.855 97.4141 23.463 97.5781 23.003 97.5781ZM25.8898 95.6861C26.5578 95.6861 26.9338 95.9861 26.9338 96.5821C26.9338 97.2101 26.5138 97.5381 25.8058 97.5381H24.6018V94.7381H25.1138V95.6861H25.8898ZM27.3378 97.5381V94.7381H27.8498V97.5381H27.3378ZM25.7818 97.1381C26.1818 97.1381 26.4138 96.9501 26.4138 96.5901C26.4138 96.2381 26.1858 96.0821 25.7818 96.0821H25.1138V97.1381H25.7818ZM32.2369 97.0981H32.6409V98.1341H32.1609V97.5381H28.6409V94.7381H29.1529V97.0981H30.1849V94.7381H30.6969V97.0981H31.7249V94.7381H32.2369V97.0981ZM33.6608 97.1021H35.2408V97.5381H33.1408V94.7381H35.1848V95.1741H33.6608V95.9021H35.0128V96.3301H33.6608V97.1021ZM37.7884 94.7381H38.3084V97.5381H37.7884V96.3381H36.3404V97.5381H35.8204V94.7381H36.3404V95.8941H37.7884V94.7381ZM41.0619 94.7381H41.5819V97.5381H41.0619V96.3381H39.6139V97.5381H39.0939V94.7381H39.6139V95.8941H41.0619V94.7381ZM43.6593 95.6861C44.3273 95.6861 44.7033 95.9861 44.7033 96.5821C44.7033 97.2101 44.2833 97.5381 43.5753 97.5381H42.3713V94.7381H42.8833V95.6861H43.6593ZM45.1073 97.5381V94.7381H45.6193V97.5381H45.1073ZM43.5513 97.1381C43.9513 97.1381 44.1833 96.9501 44.1833 96.5901C44.1833 96.2381 43.9553 96.0821 43.5513 96.0821H42.8833V97.1381H43.5513ZM47.6544 94.5501C47.1704 94.5501 46.9304 94.3421 46.9264 93.9701H47.2904C47.2944 94.1701 47.4224 94.2781 47.6544 94.2781C47.8824 94.2781 48.0184 94.1701 48.0264 93.9701H48.3864C48.3824 94.3421 48.1344 94.5501 47.6544 94.5501ZM46.4104 97.5381V94.7381H46.9224V96.7261L48.4264 94.7381H48.9104V97.5381H48.3984V95.5541L46.8944 97.5381H46.4104ZM14.1785 103.098H14.5945V104.154H14.1145V103.538H11.7385V100.738H12.2505V103.098H13.6625V100.738H14.1785V103.098ZM16.9144 102.082C17.2664 102.178 17.4624 102.41 17.4624 102.762C17.4624 103.246 17.0984 103.538 16.4024 103.538H15.0744V100.738H16.3264C16.9504 100.738 17.3264 100.994 17.3264 101.458C17.3264 101.758 17.1744 101.97 16.9144 102.082ZM15.5864 101.138V101.934H16.2824C16.6184 101.934 16.7984 101.798 16.7984 101.538C16.7984 101.274 16.6184 101.138 16.2824 101.138H15.5864ZM16.3864 103.138C16.7464 103.138 16.9384 103.002 16.9384 102.722C16.9384 102.442 16.7464 102.314 16.3864 102.314H15.5864V103.138H16.3864ZM18.5748 103.102H20.1548V103.538H18.0548V100.738H20.0988V101.174H18.5748V101.902H19.9268V102.33H18.5748V103.102ZM22.7665 100.738V101.178H21.8385V103.538H21.3225V101.178H20.3985V100.738H22.7665ZM24.4719 103.578C23.6039 103.578 22.9639 102.966 22.9639 102.138C22.9639 101.31 23.6039 100.698 24.4719 100.698C25.3399 100.698 25.9799 101.306 25.9799 102.138C25.9799 102.97 25.3399 103.578 24.4719 103.578ZM24.4719 103.122C25.0359 103.122 25.4559 102.71 25.4559 102.138C25.4559 101.566 25.0359 101.154 24.4719 101.154C23.9079 101.154 23.4879 101.566 23.4879 102.138C23.4879 102.71 23.9079 103.122 24.4719 103.122ZM28.1642 100.738H28.6802V103.538H28.1642V102.482C27.8962 102.582 27.6442 102.63 27.4122 102.63C26.6962 102.63 26.2962 102.274 26.2962 101.63V100.738H26.8122V101.574C26.8122 101.97 27.0482 102.182 27.4762 102.182C27.7082 102.182 27.9442 102.134 28.1642 102.034V100.738ZM31.433 100.738H31.953V103.538H31.433V102.338H29.985V103.538H29.465V100.738H29.985V101.894H31.433V100.738ZM34.0304 101.686C34.6984 101.686 35.0744 101.986 35.0744 102.582C35.0744 103.21 34.6544 103.538 33.9464 103.538H32.7424V100.738H33.2544V101.686H34.0304ZM35.4784 103.538V100.738H35.9904V103.538H35.4784ZM33.9224 103.138C34.3224 103.138 34.5544 102.95 34.5544 102.59C34.5544 102.238 34.3264 102.082 33.9224 102.082H33.2544V103.138H33.9224ZM38.0255 100.55C37.5415 100.55 37.3015 100.342 37.2975 99.9701H37.6615C37.6655 100.17 37.7935 100.278 38.0255 100.278C38.2535 100.278 38.3895 100.17 38.3975 99.9701H38.7575C38.7535 100.342 38.5055 100.55 38.0255 100.55ZM36.7815 103.538V100.738H37.2935V102.726L38.7975 100.738H39.2815V103.538H38.7695V101.554L37.2655 103.538H36.7815ZM43.024 103.538L42.204 102.358H41.684V103.538H41.172V100.738H41.684V101.91H42.22L43.024 100.738H43.576L42.62 102.094L43.612 103.538H43.024ZM45.117 100.738C45.853 100.738 46.309 101.114 46.309 101.734C46.309 102.35 45.853 102.73 45.117 102.73H44.485V103.538H43.965V100.738H45.117ZM45.093 102.29C45.549 102.29 45.785 102.086 45.785 101.734C45.785 101.382 45.549 101.178 45.093 101.178H44.485V102.29H45.093ZM47.3209 103.102H48.9009V103.538H46.8009V100.738H48.8449V101.174H47.3209V101.902H48.6729V102.33H47.3209V103.102ZM52.5486 103.538H52.0526L52.0486 101.682L51.1286 103.218H50.8966L49.9766 101.706V103.538H49.4846V100.738H49.9126L51.0206 102.59L52.1166 100.738H52.5406L52.5486 103.538Z" fill="#645140"/>
<path d="M29.4175 6.58459C28.7518 6.44987 28.7086 5.96715 28.7703 5.74263C29.51 4.64809 31.0819 4.39551 32.1915 4.39551C33.301 4.39551 35.3353 4.98488 35.5202 5.74263C35.6682 6.34884 34.9654 6.55652 34.5956 6.58459C33.147 6.64072 30.0833 6.7193 29.4175 6.58459Z" stroke="#635E5E" stroke-width="0.6"/>
</svg>
