<svg width="52" height="150" viewBox="0 0 52 150" fill="none" xmlns="http://www.w3.org/2000/svg">
<path d="M5.21704 17.5932L4.60766 26.5199M5.21704 17.5932C12.8904 11.1955 14.7059 9.61166 26.0229 9.61166M5.21704 17.5932C6.66793 12.0621 12.8604 1 26.0229 1M4.60766 26.5199L2.86659 27.9902L2.34426 36.4968L2.60542 37.337V39.2274M4.60766 26.5199C6.52282 29.3555 14.3577 29.7755 26.0229 29.3555M2.60542 39.2274C2.11212 39.3674 1.1081 39.7945 1.03845 40.3826C0.96881 40.9707 1.00944 42.238 1.03845 42.7981M2.60542 39.2274C3.82415 41.3278 10.3532 42.273 26.0229 42.273M1.03845 42.7981V149.079H26.0229M1.03845 42.7981C3.47594 43.8483 11.572 45.9487 26.0229 45.3185" stroke="#635E5E" stroke-width="0.6"/>
<path d="M24.2406 5.55228C23.8058 5.43783 23.7777 5.0277 23.8179 4.83694C24.301 3.90699 25.3275 3.69238 26.0521 3.69238C26.7767 3.69238 28.1052 4.19313 28.226 4.83694C28.3226 5.35199 27.8637 5.52844 27.6221 5.55228C26.6761 5.59997 24.6754 5.66674 24.2406 5.55228Z" stroke="#635E5E" stroke-width="0.6"/>
<path d="M46.822 17.5932L47.4314 26.5199M46.822 17.5932C39.1486 11.1955 37.3332 9.61166 26.0162 9.61166M46.822 17.5932C45.3711 12.0621 39.1787 1 26.0162 1M47.4314 26.5199L49.1725 27.9902L49.6948 36.4968L49.4336 37.337V39.2274M47.4314 26.5199C45.5162 29.3555 37.6814 29.7756 26.0162 29.3555M49.4336 39.2274C49.9269 39.3674 50.931 39.7945 51.0006 40.3826C51.0703 40.9707 51.0296 42.238 51.0006 42.7981M49.4336 39.2274C48.2149 41.3278 41.6859 42.273 26.0162 42.273M51.0006 42.7981V149.079H26.0162M51.0006 42.7981C48.5631 43.8483 40.4671 45.9487 26.0162 45.3186" stroke="#635E5E" stroke-width="0.6"/>
<path d="M14.1773 117.257C14.4263 117.335 14.5793 117.521 14.5793 117.764C14.5793 118.154 14.1593 118.382 13.6793 118.382C13.4063 118.382 13.1123 118.307 12.8663 118.148L12.9923 117.863C13.1813 117.992 13.4183 118.055 13.6313 118.055C13.9313 118.055 14.1833 117.932 14.1833 117.707C14.1833 117.518 14.0183 117.425 13.7543 117.425H13.2653V117.119H13.7243C13.9583 117.119 14.0963 117.017 14.0963 116.852C14.0963 116.651 13.8863 116.543 13.6223 116.543C13.4423 116.543 13.2323 116.594 13.0493 116.702L12.9263 116.387C13.1483 116.267 13.3973 116.213 13.6313 116.213C14.0933 116.213 14.4923 116.432 14.4923 116.804C14.4923 117.014 14.3723 117.176 14.1773 117.257ZM16.6236 118.352L16.4136 117.866H15.3636L15.1566 118.352H14.7546L15.6996 116.252H16.0836L17.0316 118.352H16.6236ZM15.4956 117.56H16.2846L15.8886 116.642L15.4956 117.56ZM18.2176 116.252C18.7696 116.252 19.1116 116.534 19.1116 116.999C19.1116 117.461 18.7696 117.746 18.2176 117.746H17.7436V118.352H17.3536V116.252H18.2176ZM18.1996 117.416C18.5416 117.416 18.7186 117.263 18.7186 116.999C18.7186 116.735 18.5416 116.582 18.1996 116.582H17.7436V117.416H18.1996ZM20.1657 116.252H21.0387V118.352H20.6547V117.767H20.1357H20.0937L19.7037 118.352H19.2927L19.7427 117.704C19.4517 117.596 19.2867 117.359 19.2867 117.023C19.2867 116.537 19.6317 116.252 20.1657 116.252ZM20.1777 116.582C19.8597 116.582 19.6827 116.729 19.6827 117.017C19.6827 117.293 19.8477 117.449 20.1627 117.449H20.6547V116.582H20.1777ZM23.9949 118.352L23.4669 117.467H23.1069V118.352H22.7259V117.467H22.3659L21.8349 118.352H21.3849L22.0449 117.257L21.4299 116.252H21.8439L22.3569 117.131H22.7259V116.252H23.1069V117.131H23.4699L23.9859 116.252H24.3999L23.7879 117.26L24.4449 118.352H23.9949ZM26.2827 118.352L26.0727 117.866H25.0227L24.8157 118.352H24.4137L25.3587 116.252H25.7427L26.6907 118.352H26.2827ZM25.1547 117.56H25.9437L25.5477 116.642L25.1547 117.56ZM28.8098 116.222C29.4338 116.222 29.8958 116.678 29.8958 117.302C29.8958 117.926 29.4338 118.382 28.8098 118.382C28.2398 118.382 27.8018 118.001 27.7298 117.461H27.3998V118.352H27.0158V116.252H27.3998V117.113H27.7358C27.8198 116.588 28.2518 116.222 28.8098 116.222ZM28.8098 118.04C29.2028 118.04 29.5028 117.74 29.5028 117.302C29.5028 116.864 29.2028 116.564 28.8098 116.564C28.4198 116.564 28.1168 116.864 28.1168 117.302C28.1168 117.74 28.4198 118.04 28.8098 118.04ZM33.0321 118.022H33.3351V118.799H32.9751V118.352H30.3351V116.252H30.7191V118.022H31.4931V116.252H31.8771V118.022H32.6481V116.252H33.0321V118.022ZM35.3267 118.352L35.1167 117.866H34.0667L33.8597 118.352H33.4577L34.4027 116.252H34.7867L35.7347 118.352H35.3267ZM34.1987 117.56H34.9877L34.5917 116.642L34.1987 117.56ZM36.6832 116.252H37.5562V118.352H37.1722V117.767H36.6532H36.6112L36.2212 118.352H35.8102L36.2602 117.704C35.9692 117.596 35.8042 117.359 35.8042 117.023C35.8042 116.537 36.1492 116.252 36.6832 116.252ZM36.6952 116.582C36.3772 116.582 36.2002 116.729 36.2002 117.017C36.2002 117.293 36.3652 117.449 36.6802 117.449H37.1722V116.582H36.6952ZM15.2532 121.26C15.5172 121.332 15.6642 121.506 15.6642 121.77C15.6642 122.133 15.3912 122.352 14.8692 122.352H13.8732V120.252H14.8122C15.2802 120.252 15.5622 120.444 15.5622 120.792C15.5622 121.017 15.4482 121.176 15.2532 121.26ZM14.2572 120.552V121.149H14.7792C15.0312 121.149 15.1662 121.047 15.1662 120.852C15.1662 120.654 15.0312 120.552 14.7792 120.552H14.2572ZM14.8572 122.052C15.1272 122.052 15.2712 121.95 15.2712 121.74C15.2712 121.53 15.1272 121.434 14.8572 121.434H14.2572V122.052H14.8572ZM16.1115 122.352V120.252H16.4955V121.743L17.6235 120.252H17.9865V122.352H17.6025V120.864L16.4745 122.352H16.1115ZM20.0993 120.252V120.582H19.4033V122.352H19.0163V120.582H18.3233V120.252H20.0993ZM21.9322 122.352L21.7222 121.866H20.6722L20.4652 122.352H20.0632L21.0082 120.252H21.3922L22.3402 122.352H21.9322ZM20.8042 121.56H21.5932L21.1972 120.642L20.8042 121.56ZM24.9632 122.352H24.5912L24.5882 120.96L23.8982 122.112H23.7242L23.0342 120.978V122.352H22.6652V120.252H22.9862L23.8172 121.641L24.6392 120.252H24.9572L24.9632 122.352ZM25.5539 122.352V120.252H25.9379V121.743L27.0659 120.252H27.4289V122.352H27.0449V120.864L25.9169 122.352H25.5539ZM29.4937 120.252H29.8837V122.352H29.4937V121.452H28.4077V122.352H28.0177V120.252H28.4077V121.119H29.4937V120.252ZM31.9487 120.252H32.3387V122.352H31.9487V121.452H30.8627V122.352H30.4727V120.252H30.8627V121.119H31.9487V120.252ZM34.5298 122.352L34.3198 121.866H33.2698L33.0628 122.352H32.6608L33.6058 120.252H33.9898L34.9378 122.352H34.5298ZM33.4018 121.56H34.1908L33.7948 120.642L33.4018 121.56ZM35.8864 120.252H36.7594V122.352H36.3754V121.767H35.8564H35.8144L35.4244 122.352H35.0134L35.4634 121.704C35.1724 121.596 35.0074 121.359 35.0074 121.023C35.0074 120.537 35.3524 120.252 35.8864 120.252ZM35.8984 120.582C35.5804 120.582 35.4034 120.729 35.4034 121.017C35.4034 121.293 35.5684 121.449 35.8834 121.449H36.3754V120.582H35.8984ZM16.1384 126.382C15.4964 126.382 15.0164 125.929 15.0164 125.302C15.0164 124.675 15.4964 124.222 16.1414 124.222C16.4834 124.222 16.7774 124.345 16.9724 124.573L16.7204 124.81C16.5674 124.645 16.3784 124.564 16.1594 124.564C15.7244 124.564 15.4094 124.87 15.4094 125.302C15.4094 125.734 15.7244 126.04 16.1594 126.04C16.3784 126.04 16.5674 125.959 16.7204 125.791L16.9724 126.031C16.7774 126.259 16.4834 126.382 16.1384 126.382ZM18.3036 124.963C18.8046 124.963 19.0866 125.188 19.0866 125.635C19.0866 126.106 18.7716 126.352 18.2406 126.352H17.3376V124.252H17.7216V124.963H18.3036ZM19.3896 126.352V124.252H19.7736V126.352H19.3896ZM18.2226 126.052C18.5226 126.052 18.6966 125.911 18.6966 125.641C18.6966 125.377 18.5256 125.26 18.2226 125.26H17.7216V126.052H18.2226ZM21.7468 125.26C22.0108 125.332 22.1578 125.506 22.1578 125.77C22.1578 126.133 21.8848 126.352 21.3628 126.352H20.3668V124.252H21.3058C21.7738 124.252 22.0558 124.444 22.0558 124.792C22.0558 125.017 21.9418 125.176 21.7468 125.26ZM20.7508 124.552V125.149H21.2728C21.5248 125.149 21.6598 125.047 21.6598 124.852C21.6598 124.654 21.5248 124.552 21.2728 124.552H20.7508ZM21.3508 126.052C21.6208 126.052 21.7648 125.95 21.7648 125.74C21.7648 125.53 21.6208 125.434 21.3508 125.434H20.7508V126.052H21.3508ZM23.5741 126.382C22.9231 126.382 22.4431 125.923 22.4431 125.302C22.4431 124.681 22.9231 124.222 23.5741 124.222C24.2251 124.222 24.7051 124.678 24.7051 125.302C24.7051 125.926 24.2251 126.382 23.5741 126.382ZM23.5741 126.04C23.9971 126.04 24.3121 125.731 24.3121 125.302C24.3121 124.873 23.9971 124.564 23.5741 124.564C23.1511 124.564 22.8361 124.873 22.8361 125.302C22.8361 125.731 23.1511 126.04 23.5741 126.04ZM26.0003 124.252C26.5523 124.252 26.8943 124.534 26.8943 124.999C26.8943 125.461 26.5523 125.746 26.0003 125.746H25.5263V126.352H25.1363V124.252H26.0003ZM25.9823 125.416C26.3243 125.416 26.5013 125.263 26.5013 124.999C26.5013 124.735 26.3243 124.582 25.9823 124.582H25.5263V125.416H25.9823ZM28.2646 126.382C27.6136 126.382 27.1336 125.923 27.1336 125.302C27.1336 124.681 27.6136 124.222 28.2646 124.222C28.9156 124.222 29.3956 124.678 29.3956 125.302C29.3956 125.926 28.9156 126.382 28.2646 126.382ZM28.2646 126.04C28.6876 126.04 29.0026 125.731 29.0026 125.302C29.0026 124.873 28.6876 124.564 28.2646 124.564C27.8416 124.564 27.5266 124.873 27.5266 125.302C27.5266 125.731 27.8416 126.04 28.2646 126.04ZM31.3214 124.252V124.582H30.6254V126.352H30.2384V124.582H29.5454V124.252H31.3214ZM33.0468 126.352L32.4318 125.467H32.0418V126.352H31.6578V124.252H32.0418V125.131H32.4438L33.0468 124.252H33.4608L32.7438 125.269L33.4878 126.352H33.0468ZM35.3194 126.352L35.1094 125.866H34.0594L33.8524 126.352H33.4504L34.3954 124.252H34.7794L35.7274 126.352H35.3194ZM34.1914 125.56H34.9804L34.5844 124.642L34.1914 125.56Z" fill="#645140"/>
<path d="M7.10522 72.0872L8.91781 67.2121L10.7304 72.0872H7.10522ZM8.97772 66.2716L6 74.2809H6.29003L7.00416 72.3598H10.8315L11.5456 74.2809H12.7505L9.77265 66.2716H8.97772Z" fill="#645140"/>
<path d="M17.7518 72.3598L14.6796 66.2716H13.6172V74.2809H13.8891V67.2108L17.2715 73.9156L20.6533 67.2121V74.2809H21.7827V66.2716H20.8238L17.7518 72.3598Z" fill="#645140"/>
<path d="M33.3481 70.4987V66.5428H34.2652C35.3733 66.5428 36.2718 67.4121 36.2718 68.4851C36.2718 69.5019 35.4622 70.3462 34.4153 70.4225L33.3481 70.4987ZM43.7961 74.2808H45.001L42.0231 66.2715H41.2282L39.2117 71.6944C39.3178 71.6431 39.431 71.6006 39.5508 71.5693C39.719 71.5243 39.8986 71.4993 40.0858 71.4993C41.0137 71.4993 41.7686 72.0921 41.7686 72.8212C41.7686 73.5503 41.0137 74.1444 40.0858 74.1444C39.0453 74.1444 38.281 73.3177 37.6249 72.6099C37.3285 72.2897 37.0221 71.9595 36.6665 71.6744C36.1047 71.2241 35.4444 70.8977 34.7446 70.7113L35.3484 70.6663C36.506 70.58 37.401 69.6233 37.401 68.4714C37.401 67.2558 36.4079 66.2715 35.1826 66.2715H32.2188V74.2808H33.3481V70.8152L33.4924 70.8039C34.5809 70.8289 35.6551 71.2129 36.4965 71.887C36.8362 72.1596 37.1358 72.4823 37.4254 72.795C37.6463 73.0326 37.8743 73.279 38.1228 73.5066C38.6238 73.9656 39.229 74.337 39.9184 74.4008C40.5372 74.4596 41.2004 74.2507 41.6333 73.7942C41.8823 73.5316 42.0405 73.1877 42.0405 72.8212C42.0405 71.9432 41.1635 71.2279 40.0858 71.2279C39.9406 71.2279 39.7996 71.2416 39.6634 71.2654L41.1683 67.212L43.7961 74.2808Z" fill="#645140"/>
<path d="M28.3019 74.0969C29.2433 73.394 29.8896 71.947 29.8896 70.2773C29.8896 69.5507 29.7672 68.8665 29.5518 68.2675C30.4378 68.8915 31.0045 69.8308 31.0045 70.8839C31.0045 72.3722 29.8722 73.6391 28.3019 74.0969ZM27.0073 74.2807C26.0393 74.2807 25.2545 72.4885 25.2545 70.2773C25.2545 69.2868 25.4121 68.3813 25.6726 67.6822C26.0903 67.5559 26.5392 67.4858 27.0073 67.4858C27.4755 67.4858 27.9243 67.5559 28.342 67.6822C28.6027 68.3813 28.7603 69.2868 28.7603 70.2773C28.7603 72.4885 27.9755 74.2807 27.0073 74.2807ZM23.0103 70.8839C23.0103 69.8308 23.5769 68.8878 24.464 68.265C24.248 68.864 24.1252 69.5494 24.1252 70.2773C24.1252 71.947 24.7715 73.394 25.713 74.0969C24.1425 73.6391 23.0103 72.3722 23.0103 70.8839ZM27.0073 66.2714C27.4733 66.2714 27.8964 66.6879 28.2102 67.3658C27.8284 67.2695 27.4258 67.2132 27.0073 67.2132C26.5899 67.2132 26.1871 67.2657 25.8058 67.362C26.1197 66.6866 26.5422 66.2714 27.0073 66.2714ZM29.3695 67.8272C28.8484 66.7229 27.9851 66 27.0073 66C26.0295 66 25.1661 66.7229 24.6451 67.8285C23.4962 68.4851 22.7383 69.6082 22.7383 70.8839C22.7383 72.91 24.6497 74.5533 27.0073 74.5533C29.3652 74.5533 31.2765 72.91 31.2765 70.8839C31.2765 69.6082 30.5187 68.4851 29.3695 67.8272Z" fill="#645140"/>
<path d="M26.4062 75.5905C26.7325 75.9169 27.2616 75.9169 27.5879 75.5905L26.9969 74.9989L26.4062 75.5905Z" fill="#645140"/>
</svg>
