<svg width="346" height="88" viewBox="0 0 346 88" fill="none" xmlns="http://www.w3.org/2000/svg">
<path d="M9.806 53.995L25.8882 10.7407L41.9703 53.995H9.806ZM26.4197 2.39617L0 73.4585H2.5733L8.90939 56.4141H42.8669L49.203 73.4585H59.8934L33.4726 2.39617H26.4197Z" fill="#EFE0D0"/>
<path d="M104.261 56.4141L77.0037 2.39617H67.5771V73.4585H69.9895V10.7298L100 70.218L130.005 10.7407V73.4585H140.025V2.39617H131.517L104.261 56.4141Z" fill="#EFE0D0"/>
<path d="M242.61 39.9024V4.80401H250.748C260.579 4.80401 268.551 12.5162 268.551 22.037C268.551 31.0584 261.368 38.5488 252.079 39.2257L242.61 39.9024ZM335.31 73.4585H346L319.579 2.39616H312.526L294.635 50.5108C295.576 50.0558 296.581 49.6786 297.644 49.4011C299.136 49.0017 300.73 48.7796 302.391 48.7796C310.623 48.7796 317.321 54.0392 317.321 60.5085C317.321 66.9778 310.623 72.2487 302.391 72.2487C293.158 72.2487 286.377 64.914 280.556 58.6334C277.926 55.7927 275.208 52.8631 272.053 50.3331C267.068 46.3383 261.209 43.4421 255.001 41.7888L260.358 41.3896C270.629 40.6239 278.57 32.1351 278.57 21.9152C278.57 11.1294 269.758 2.39616 258.887 2.39616H232.59V73.4585H242.61V42.7099L243.891 42.6102C253.548 42.8321 263.079 46.2385 270.545 52.2195C273.559 54.6385 276.216 57.5016 278.786 60.2757C280.746 62.3841 282.769 64.5699 284.974 66.5895C289.419 70.6619 294.789 73.9576 300.905 74.5235C306.395 75.045 312.28 73.1919 316.12 69.1417C318.33 66.8114 319.733 63.7598 319.733 60.5085C319.733 52.7187 311.953 46.3717 302.391 46.3717C301.102 46.3717 299.851 46.4938 298.642 46.7046L311.995 10.7406L335.31 73.4585Z" fill="#EFE0D0"/>
<path d="M197.801 71.8387C206.154 65.6025 211.888 52.764 211.888 37.9501C211.888 31.503 210.802 25.4329 208.891 20.1177C216.752 25.6548 221.78 33.9887 221.78 43.3319C221.78 56.5368 211.734 67.7774 197.801 71.8387ZM186.315 73.4698C177.727 73.4698 170.764 57.5688 170.764 37.9501C170.764 29.1617 172.162 21.1278 174.473 14.9249C178.179 13.8041 182.162 13.1824 186.315 13.1824C190.469 13.1824 194.451 13.8041 198.158 14.9249C200.47 21.1278 201.868 29.1617 201.868 37.9501C201.868 57.5688 194.905 73.4698 186.315 73.4698ZM150.852 43.3319C150.852 33.9887 155.879 25.6216 163.75 20.0956C161.833 25.4108 160.744 31.492 160.744 37.9501C160.744 52.764 166.478 65.6025 174.832 71.8387C160.898 67.7774 150.852 56.5368 150.852 43.3319ZM186.315 2.40791C190.45 2.40791 194.204 6.10305 196.988 12.1174C193.6 11.2629 190.028 10.7637 186.315 10.7637C182.611 10.7637 179.038 11.2296 175.655 12.084C178.44 6.09187 182.189 2.40791 186.315 2.40791ZM207.273 16.2118C202.651 6.41358 194.991 5.34058e-05 186.315 5.34058e-05C177.64 5.34058e-05 169.979 6.41375 165.356 16.2231C155.163 22.0487 148.439 32.0135 148.439 43.3319C148.439 61.3083 165.397 75.8889 186.315 75.8889C207.236 75.8889 224.193 61.3083 224.193 43.3319C224.193 32.0135 217.47 22.0486 207.273 16.2118Z" fill="#EFE0D0"/>
<path d="M181.075 85.0749C183.97 87.9711 188.664 87.9711 191.559 85.0749L186.316 79.8262L181.075 85.0749Z" fill="#EFE0D0"/>
</svg>
