<svg width="42" height="37" viewBox="0 0 42 37" fill="none" xmlns="http://www.w3.org/2000/svg">
<path d="M17.6057 0.160167C17.7115 0.0533859 17.8701 0 18.0816 0C18.3988 0 18.6631 0.213564 18.8746 0.640694C19.0861 1.06782 19.0332 1.38817 18.716 1.60173C14.8036 4.59163 11.7372 7.63492 9.51662 10.7316C7.40181 13.7215 6.08006 16.9784 5.55136 20.5022C5.33988 21.7836 5.23414 22.6912 5.23414 23.2251C5.23414 24.1861 5.39275 25.0938 5.70997 25.9481C6.66163 24.8802 8.08912 24.3463 9.99245 24.3463C11.8958 24.3463 13.3761 24.987 14.4335 26.2684C15.5967 27.443 16.1782 28.8846 16.1782 30.5931C16.1782 32.6219 15.4909 34.2237 14.1163 35.3983C12.8474 36.4661 11.0498 37 8.72357 37C6.08006 37 3.96526 36.1457 2.37915 34.4372C0.793051 32.6219 0 30.1126 0 26.9091C0 17.6191 5.86858 8.70274 17.6057 0.160167ZM40.6042 0.160167C40.71 0.0533859 40.8686 0 41.0801 0C41.3973 0 41.6616 0.213564 41.8731 0.640694C42.0846 1.06782 42.0317 1.38817 41.7145 1.60173C37.8021 4.59163 34.7356 7.63492 32.5151 10.7316C30.4003 13.7215 29.0785 16.9784 28.5498 20.5022C28.3384 21.7836 28.2326 22.6912 28.2326 23.2251C28.2326 24.1861 28.3912 25.0938 28.7085 25.9481C29.6601 24.8802 31.0876 24.3463 32.9909 24.3463C34.8943 24.3463 36.3746 24.987 37.432 26.2684C38.5952 27.443 39.1767 28.8846 39.1767 30.5931C39.1767 32.6219 38.4894 34.2237 37.1148 35.3983C35.8459 36.4661 34.0483 37 31.7221 37C29.0786 37 26.9637 36.1457 25.3776 34.4372C23.7915 32.6219 22.9985 30.1126 22.9985 26.9091C22.9985 17.6191 28.8671 8.70274 40.6042 0.160167Z" fill="#D7BCA3"/>
</svg>
