<svg width="60" height="60" viewBox="0 0 60 60" fill="none" xmlns="http://www.w3.org/2000/svg">
<path d="M22.1692 21.424C22.1626 21.5836 22.1641 21.7435 22.1739 21.9029C22.1809 23.1683 22.5283 24.4085 23.1796 25.4934C23.8309 26.5784 24.7621 27.468 25.8757 28.0691C25.1305 29.0415 24.2534 29.9052 23.2696 30.6353C23.1457 30.7282 23.0522 30.8557 23.0009 31.0018C22.9495 31.1478 22.9426 31.3058 22.9811 31.4558C23.0195 31.6057 23.1016 31.7409 23.2169 31.8442C23.3322 31.9475 23.4755 32.0143 23.6288 32.0362C23.9006 32.0697 24.1743 32.0854 24.4482 32.0831C25.7396 32.0894 27.0131 31.7802 28.1578 31.1823C28.092 33.2597 27.673 35.3108 26.9189 37.2475C26.1238 39.6325 25.8247 42.1549 26.04 44.6596C25.4919 44.5935 24.9653 44.4064 24.4983 44.1118C24.3822 41.9123 23.4273 39.8409 21.8304 38.324C20.2334 36.8071 18.1157 35.96 15.9131 35.957H14.3479C14.1403 35.957 13.9412 36.0395 13.7945 36.1862C13.6477 36.333 13.5652 36.5321 13.5652 36.7396V39.8701C13.5669 41.3225 14.1446 42.7149 15.1716 43.742C16.1986 44.769 17.5911 45.3467 19.0435 45.3483H23.5169C24.3035 45.8822 25.2226 46.188 26.1723 46.2319C26.4471 48.6717 26.956 51.0794 27.6921 53.4217C27.744 53.5776 27.8437 53.7132 27.977 53.8093C28.1103 53.9054 28.2705 53.9571 28.4348 53.957H31.5652C31.6893 53.9571 31.8115 53.9276 31.9219 53.8711C32.0323 53.8147 32.1277 53.7327 32.2002 53.6322C32.2727 53.5316 32.3203 53.4152 32.3391 53.2926C32.3578 53.17 32.3471 53.0448 32.3079 52.9271C31.5398 50.4615 31.0155 47.9265 30.7427 45.3585C30.8053 44.6448 31.1888 43.3934 32.8949 42.1702C32.9704 42.1985 33.0499 42.2146 33.1305 42.2179H37.8261C39.2785 42.2162 40.671 41.6385 41.698 40.6115C42.725 39.5845 43.3027 38.1921 43.3044 36.7396V33.6092C43.3044 33.4016 43.2219 33.2026 43.0752 33.0558C42.9284 32.909 42.7293 32.8266 42.5218 32.8266H40.9566C38.814 32.8296 36.7493 33.6306 35.1653 35.0733C33.5812 36.516 32.5913 38.497 32.3885 40.63C31.7518 41.0306 31.1695 41.5117 30.6559 42.0614C30.6793 41.6215 30.7138 41.1856 30.7748 40.7622C30.9967 39.3457 31.2995 37.9431 31.6819 36.5612C32.2164 34.8071 32.5169 32.9901 32.5756 31.1573C33.732 31.7716 35.0227 32.0891 36.3321 32.0815C36.6075 32.0842 36.8829 32.0685 37.1562 32.0346C37.3089 32.0121 37.4515 31.9449 37.5662 31.8416C37.6808 31.7382 37.7623 31.6033 37.8005 31.4537C37.8386 31.3042 37.8317 31.1467 37.7805 31.0011C37.7294 30.8554 37.6363 30.7282 37.5131 30.6353C36.1309 29.6521 34.982 28.3768 34.1479 26.8999C34.8147 26.2541 35.3453 25.4812 35.7082 24.6268C36.0712 23.7724 36.2591 22.8539 36.2609 21.9256L37.0435 10.9691C37.0522 10.8475 37.0323 10.7255 36.9854 10.613C36.9386 10.5004 36.8661 10.4003 36.7738 10.3207C36.6814 10.2411 36.5717 10.1842 36.4535 10.1545C36.3352 10.1249 36.2116 10.1232 36.0926 10.1497C35.6818 10.2413 35.285 10.3375 34.8976 10.4362C33.3911 8.40138 29.8928 7.18285 29.4671 7.04042C29.3256 6.99285 29.1734 6.98714 29.0288 7.02398C26.7863 7.69041 24.6704 8.72561 22.7679 10.0871C22.02 10.0562 21.2709 10.0721 20.525 10.1349C20.3784 10.1508 20.2393 10.2079 20.1238 10.2994C20.0082 10.391 19.9208 10.5134 19.8718 10.6524C19.8227 10.7914 19.8139 10.9415 19.8464 11.0853C19.8789 11.2291 19.9513 11.3609 20.0554 11.4653C21.6903 13.1049 22.1239 18.8351 22.1692 21.424ZM19.0435 43.7831C18.0061 43.7819 17.0115 43.3692 16.2779 42.6356C15.5444 41.9021 15.1317 40.9075 15.1305 39.8701V38.5772C17.0895 40.4198 19.1447 42.1575 21.2872 43.7831H19.0435ZM16.3192 37.5418C17.8269 37.6307 19.2662 38.2015 20.425 39.1702C21.5837 40.1389 22.4007 41.4542 22.7554 42.9222C20.5093 41.2528 18.3604 39.4564 16.3192 37.5418ZM41.7392 35.6166V36.7396C41.7379 37.7771 41.3253 38.7716 40.5917 39.5052C39.8581 40.2388 38.8635 40.6514 37.8261 40.6527H35.9424C38.0295 39.161 39.9705 37.4748 41.7392 35.6166ZM40.7288 34.4028C38.7346 36.5297 36.4954 38.4128 34.0579 40.0125C34.3803 38.4651 35.2132 37.0709 36.4229 36.0536C37.6326 35.0363 39.1491 34.455 40.7288 34.4028ZM25.9899 30.3379C26.496 29.8181 26.9573 29.2566 27.3689 28.6592C27.7753 28.7711 28.191 28.846 28.6109 28.883C28.5326 28.966 28.4599 29.0607 28.3761 29.1366C27.6951 29.7324 26.8741 30.1457 25.9899 30.3379ZM30.1659 36.1715C29.7696 37.609 29.456 39.0681 29.2268 40.5415C29.0207 42.1737 29.0037 43.8242 29.1759 45.4602C29.1621 45.7489 29.1845 46.0381 29.2425 46.3211L29.2667 46.3149C29.5254 48.3692 29.9406 50.4007 30.5087 52.3918H29.0132C28.4137 50.3461 26.4744 42.8917 28.3871 37.7977C29.3628 35.3288 29.8104 32.6828 29.7011 30.0303C29.9546 29.7749 30.1863 29.4988 30.3937 29.2047C30.5536 29.4238 30.7269 29.6329 30.9126 29.8308C31.2248 32.044 30.7365 33.9622 30.1659 36.1715ZM34.7974 30.3395C33.8234 30.1298 32.9283 29.6497 32.2148 28.9542C32.0542 28.7899 31.9053 28.6145 31.7695 28.4291C32.1609 28.2764 32.5378 28.0889 32.8957 27.8688C33.4217 28.77 34.0608 29.6003 34.7974 30.3395ZM35.4047 11.9208L34.6957 21.8701C34.6938 23.2337 34.184 24.5477 33.2658 25.5557C32.3476 26.5638 31.0867 27.1937 29.7292 27.3225L29.6909 27.3037L29.6807 27.3249C29.5242 27.3382 29.3739 27.3483 29.2174 27.3483C27.765 27.3467 26.3725 26.769 25.3455 25.742C24.3185 24.7149 23.7408 23.3225 23.7392 21.8701C23.7392 21.7918 23.7392 21.6416 23.7392 21.4592C23.8026 20.0607 24.7644 14.602 35.4047 11.9208ZM29.1853 8.60016C30.6675 9.11216 32.0421 9.89383 33.24 10.9057C32.2642 11.2037 31.3056 11.5554 30.3686 11.9591C28.7804 11.1365 27.0658 10.5852 25.2958 10.3282C26.5147 9.59138 27.8215 9.01083 29.1853 8.60016ZM28.5749 12.8372C26.506 13.8916 24.748 15.4675 23.4746 17.4092C23.3135 15.4219 22.8309 13.474 22.0456 11.6414C24.278 11.6241 26.4935 12.0298 28.5749 12.8372Z" fill="#D7BCA3" stroke="white" stroke-width="0.3"/>
<path d="M39.3913 21.8701C40.2215 21.8701 41.0177 22.1999 41.6048 22.787C42.1919 23.3741 42.5217 24.1703 42.5217 25.0005C42.5217 25.2081 42.6041 25.4072 42.7509 25.5539C42.8977 25.7007 43.0967 25.7831 43.3043 25.7831C43.5119 25.7831 43.7109 25.7007 43.8577 25.5539C44.0045 25.4072 44.0869 25.2081 44.0869 25.0005C44.0869 24.1703 44.4167 23.3741 45.0038 22.787C45.5909 22.1999 46.3871 21.8701 47.2173 21.8701C47.4249 21.8701 47.624 21.7877 47.7707 21.6409C47.9175 21.4941 47.9999 21.2951 47.9999 21.0875C47.9999 20.8799 47.9175 20.6809 47.7707 20.5341C47.624 20.3873 47.4249 20.3049 47.2173 20.3049C46.3871 20.3049 45.5909 19.9751 45.0038 19.388C44.4167 18.8009 44.0869 18.0047 44.0869 17.1745C44.0869 16.9669 44.0045 16.7678 43.8577 16.6211C43.7109 16.4743 43.5119 16.3918 43.3043 16.3918C43.0967 16.3918 42.8977 16.4743 42.7509 16.6211C42.6041 16.7678 42.5217 16.9669 42.5217 17.1745C42.5217 18.0047 42.1919 18.8009 41.6048 19.388C41.0177 19.9751 40.2215 20.3049 39.3913 20.3049C39.1837 20.3049 38.9846 20.3873 38.8379 20.5341C38.6911 20.6809 38.6086 20.8799 38.6086 21.0875C38.6086 21.2951 38.6911 21.4941 38.8379 21.6409C38.9846 21.7877 39.1837 21.8701 39.3913 21.8701ZM43.3043 19.7649C43.6527 20.2894 44.1024 20.7391 44.6269 21.0875C44.1024 21.4359 43.6527 21.8856 43.3043 22.4101C42.9559 21.8856 42.5062 21.4359 41.9817 21.0875C42.5062 20.7391 42.9559 20.2894 43.3043 19.7649Z" fill="#D7BCA3" stroke="white" stroke-width="0.3"/>
<path d="M12.7826 28.9138C13.6129 28.9138 14.4091 29.2436 14.9962 29.8307C15.5832 30.4178 15.913 31.214 15.913 32.0442C15.913 32.2518 15.9955 32.4509 16.1423 32.5976C16.289 32.7444 16.4881 32.8269 16.6957 32.8269C16.9032 32.8269 17.1023 32.7444 17.249 32.5976C17.3958 32.4509 17.4783 32.2518 17.4783 32.0442C17.4783 31.214 17.8081 30.4178 18.3951 29.8307C18.9822 29.2436 19.7785 28.9138 20.6087 28.9138C20.8163 28.9138 21.0153 28.8314 21.1621 28.6846C21.3089 28.5378 21.3913 28.3388 21.3913 28.1312C21.3913 27.9236 21.3089 27.7246 21.1621 27.5778C21.0153 27.431 20.8163 27.3486 20.6087 27.3486C19.7785 27.3486 18.9822 27.0188 18.3951 26.4317C17.8081 25.8446 17.4783 25.0484 17.4783 24.2182C17.4783 24.0106 17.3958 23.8115 17.249 23.6648C17.1023 23.518 16.9032 23.4355 16.6957 23.4355C16.4881 23.4355 16.289 23.518 16.1423 23.6648C15.9955 23.8115 15.913 24.0106 15.913 24.2182C15.913 25.0484 15.5832 25.8446 14.9962 26.4317C14.4091 27.0188 13.6129 27.3486 12.7826 27.3486C12.575 27.3486 12.376 27.431 12.2292 27.5778C12.0825 27.7246 12 27.9236 12 28.1312C12 28.3388 12.0825 28.5378 12.2292 28.6846C12.376 28.8314 12.575 28.9138 12.7826 28.9138ZM16.6957 26.8086C17.0441 27.3331 17.4937 27.7828 18.0183 28.1312C17.4937 28.4796 17.0441 28.9293 16.6957 29.4538C16.3472 28.9293 15.8976 28.4796 15.373 28.1312C15.8976 27.7828 16.3472 27.3331 16.6957 26.8086Z" fill="#D7BCA3" stroke="white" stroke-width="0.3"/>
</svg>
