<svg width="60" height="60" viewBox="0 0 60 60" fill="none" xmlns="http://www.w3.org/2000/svg">
<path d="M25.8596 30.2407C25.6767 30.2407 25.5013 30.168 25.3719 30.0387C25.2426 29.9093 25.1699 29.7339 25.1699 29.551C25.2048 27.861 25.6477 26.2044 26.4611 24.7225C26.5454 24.5602 26.6908 24.4379 26.8652 24.3827C27.0396 24.3275 27.2288 24.3439 27.3912 24.4282C27.5536 24.5125 27.6758 24.6579 27.731 24.8323C27.7862 25.0068 27.7699 25.196 27.6855 25.3583C26.9748 26.644 26.585 28.0824 26.5493 29.551C26.5493 29.7339 26.4766 29.9093 26.3473 30.0387C26.2179 30.168 26.0425 30.2407 25.8596 30.2407Z" fill="#D7BCA3"/>
<path d="M19.6539 33.1816C19.5285 33.1818 19.4054 33.1478 19.2979 33.0832C19.1904 33.0187 19.1025 32.926 19.0437 32.8152C18.3107 31.3954 17.7738 29.8827 17.4475 28.3185C17.4256 28.2292 17.4219 28.1363 17.4364 28.0455C17.4509 27.9547 17.4835 27.8677 17.5322 27.7896C17.5809 27.7116 17.6447 27.644 17.7198 27.591C17.795 27.538 17.88 27.5005 17.9698 27.4808C18.0597 27.4611 18.1526 27.4596 18.243 27.4764C18.3335 27.4931 18.4197 27.5278 18.4965 27.5784C18.5734 27.6289 18.6393 27.6944 18.6905 27.7708C18.7417 27.8472 18.7771 27.9332 18.7945 28.0235C19.0944 29.4651 19.5883 30.8595 20.2628 32.1685C20.3185 32.2735 20.3462 32.3912 20.343 32.5101C20.3398 32.629 20.306 32.7451 20.2447 32.847C20.1834 32.949 20.0968 33.0333 19.9933 33.0919C19.8898 33.1505 19.7729 33.1815 19.6539 33.1816Z" fill="#D7BCA3"/>
<path d="M17.5847 26.102C17.9656 26.102 18.2744 25.7932 18.2744 25.4123C18.2744 25.0314 17.9656 24.7227 17.5847 24.7227C17.2038 24.7227 16.895 25.0314 16.895 25.4123C16.895 25.7932 17.2038 26.102 17.5847 26.102Z" fill="#D7BCA3"/>
<path d="M28.6191 23.3435C29 23.3435 29.3087 23.0347 29.3087 22.6538C29.3087 22.2729 29 21.9641 28.6191 21.9641C28.2382 21.9641 27.9294 22.2729 27.9294 22.6538C27.9294 23.0347 28.2382 23.3435 28.6191 23.3435Z" fill="#D7BCA3"/>
<path d="M49.853 37.4018C48.2403 35.4485 46.3249 33.7664 44.1795 32.4197C45.3809 29.2951 45.9477 25.9624 45.8469 22.6163C45.8379 22.4468 45.7665 22.2866 45.6465 22.1666C45.5266 22.0465 45.3664 21.975 45.1969 21.9657C42.0594 21.8793 38.9331 22.376 35.9769 23.4306C34.5734 20.826 32.6924 18.5087 30.4318 16.5998C30.3091 16.5011 30.1563 16.4473 29.9987 16.4473C29.8412 16.4473 29.6884 16.5011 29.5657 16.5998C27.3051 18.5087 25.4241 20.826 24.0206 23.4306C21.0646 22.3759 17.9385 21.8791 14.8011 21.9655C14.6316 21.9747 14.4715 22.0462 14.3515 22.1663C14.2316 22.2864 14.1602 22.4465 14.1511 22.616C14.0503 25.9622 14.6172 29.295 15.8187 32.4197C13.6732 33.7665 11.7577 35.4487 10.145 37.4022C10.0498 37.5234 9.99805 37.673 9.99805 37.8271C9.99805 37.9813 10.0498 38.1309 10.145 38.2521C10.374 38.5441 15.8316 45.4133 22.7574 45.4133C25.5529 45.4133 28.0594 44.0621 29.999 42.7896C31.9386 44.0621 34.4451 45.4133 37.2407 45.4133C44.1665 45.4133 49.624 38.5441 49.853 38.2518C49.9482 38.1306 50 37.9809 50 37.8268C50 37.6727 49.9482 37.523 49.853 37.4018ZM44.4797 23.3323C44.4702 25.46 44.0971 32.3911 39.8567 36.6432C37.7192 38.6594 35.098 40.0905 32.2461 40.7981C34.3682 38.5801 37.5855 34.416 37.5855 29.5506C37.5664 27.876 37.2168 26.2216 36.5567 24.6824C39.1055 23.7998 41.7824 23.3438 44.4797 23.3323ZM29.999 18.0503C31.474 19.3832 36.2062 24.0877 36.2062 29.5506C36.2062 35.0135 31.474 39.7181 29.999 41.0509C28.524 39.7181 23.7919 35.0135 23.7919 29.5506C23.7919 24.0877 28.524 19.3832 29.999 18.0503ZM23.4413 24.6824C22.7813 26.2216 22.4317 27.876 22.4125 29.5506C22.4125 34.416 25.6299 38.58 27.752 40.7977C24.9004 40.0902 22.2794 38.6594 20.1421 36.6434C15.9009 32.3915 15.5281 25.4597 15.5184 23.332C18.2156 23.3435 20.8925 23.7998 23.4413 24.6824ZM11.5897 37.8261C12.992 36.2331 14.6083 34.8421 16.3926 33.693C17.0992 35.1425 18.0358 36.468 19.1662 37.618C21.6662 39.9861 24.7741 41.6143 28.1442 42.3217C26.5295 43.3543 24.6719 43.9447 22.7574 44.0339C17.4468 44.0339 12.8742 39.2904 11.5897 37.8261ZM37.2407 44.0339C35.3261 43.9447 33.4686 43.3543 31.8539 42.3218C35.2242 41.6142 38.3323 39.9857 40.8326 37.6173C41.9627 36.4675 42.8992 35.1423 43.6056 33.693C45.3894 34.843 47.0056 36.2341 48.4083 37.8268C47.1259 39.2917 42.5615 44.0339 37.2407 44.0339Z" fill="#D7BCA3"/>
</svg>
