<svg width="60" height="60" viewBox="0 0 60 60" fill="none" xmlns="http://www.w3.org/2000/svg">
<path d="M39.7867 30.9009C39.352 30.955 38.8621 30.9883 38.3998 30.9959C40.7614 28.9899 44.6366 24.3901 44.1742 16.0476C44.1577 15.7475 43.9813 15.481 43.7151 15.3519C43.4488 15.2227 43.1336 15.2511 42.8946 15.4277C42.8871 15.4329 42.3857 15.8004 41.6726 16.2643C41.4694 13.567 40.6627 7.82343 37.4605 6.09622C37.2728 5.99516 37.0546 5.97224 36.8511 6.03444C36.59 6.11348 30.6963 8.00075 28.2865 17.2709C27.9185 16.8211 27.5516 16.2061 27.4309 15.4534C27.3812 15.1425 27.1607 14.8877 26.8637 14.7982C26.5683 14.7084 26.2456 14.7991 26.037 15.0322C25.8832 15.2039 22.5728 18.9896 23.3294 25.5601C22.7176 25.0702 22.1409 24.4491 22.0147 23.8072C21.9571 23.5132 21.7461 23.2745 21.4648 23.1846C21.1836 23.0951 20.8762 23.1682 20.6632 23.3755C20.4415 23.5918 15.2524 28.754 17.2428 35.57C18.498 39.8695 19.7163 43.3653 20.0581 44.3302C18.6896 48.0508 18.2555 50.7507 18.2555 51.1916C18.2555 51.6353 18.6026 51.9859 19.0385 51.9996C19.0468 52 19.055 52 19.0633 52C19.4886 52 19.844 51.651 19.8708 51.2165C19.873 51.1796 20.198 48.652 21.5571 44.9325C22.8807 44.3531 28.0207 42.1273 30.9334 41.2009C38.6478 38.7476 40.5822 32.2213 40.6611 31.9445C40.7361 31.6796 40.6758 31.3936 40.4998 31.1838C40.3239 30.9739 40.0565 30.8692 39.7867 30.9009ZM30.4514 39.6321C28.1336 40.3696 24.5677 41.853 22.4167 42.7739C23.2346 40.8664 24.2951 38.7593 25.6891 36.565C32.4008 26.0002 34.4299 21.4557 35.5277 17.5477C35.6504 17.1111 35.4018 16.6566 34.9731 16.5319C34.5443 16.4079 34.0966 16.6603 33.9744 17.0959C32.9172 20.8592 30.9355 25.2797 24.3322 35.6736C22.9252 37.8882 21.8322 40.0506 20.9774 42.0326C20.4275 40.4081 19.6191 37.9357 18.7917 35.1023C17.5286 30.7761 19.7506 27.1015 21.0082 25.4674C21.9987 26.9378 23.827 27.8493 24.0837 27.9721C24.3626 28.1061 24.692 28.066 24.9326 27.8702C25.1733 27.674 25.2833 27.3558 25.2163 27.0498C24.1851 22.3489 25.4577 19.0298 26.3993 17.3631C27.1338 18.7284 28.2599 19.4699 28.3238 19.5108C28.5479 19.6561 28.8264 19.6801 29.0709 19.5746C29.3151 19.4699 29.4934 19.25 29.5474 18.986C31.2515 10.714 35.746 8.26187 36.9968 7.72993C39.4886 9.48516 40.1023 15.4547 40.1249 17.6897C40.128 17.9814 40.2822 18.2495 40.5307 18.3942C40.7796 18.5391 41.0853 18.5398 41.3335 18.3951C41.7899 18.1298 42.2222 17.8587 42.595 17.6151C42.4963 27.0727 36.1929 30.6261 35.9128 30.7785C35.6572 30.9166 35.4935 31.1829 35.4836 31.477C35.4741 31.7715 35.6197 32.0483 35.8658 32.2032C36.5151 32.6121 37.6894 32.6726 38.6526 32.6381C37.7853 34.478 35.5179 38.0214 30.4514 39.6321Z" fill="#D7BCA3"/>
</svg>
