<svg width="60" height="60" viewBox="0 0 60 60" fill="none" xmlns="http://www.w3.org/2000/svg">
<path d="M27.9122 45.4308C28.3589 45.4639 28.6937 45.8535 28.6606 46.3001C28.6275 46.7467 28.238 47.0816 27.7914 47.0485C26.3013 46.9338 24.8334 46.5567 23.4637 45.9317C20.6991 47.6587 17.8903 47.2629 15.6269 45.6491C14.3739 44.7558 13.2964 43.4812 12.5029 41.9917C11.7152 40.5127 11.2024 38.8159 11.0714 37.0682C10.7591 32.8946 12.5826 28.4068 17.9387 25.7745C18.3398 25.5783 18.8243 25.7443 19.0205 26.1453L19.0642 26.2537C20.1426 29.5931 21.8816 31.5821 23.3097 33.216C25.5366 35.7634 27.1058 37.5585 25.1797 41.7436C24.9921 42.15 24.5105 42.3275 24.1042 42.1399C23.6978 41.9523 23.5203 41.4707 23.7079 41.0644C25.1951 37.8329 23.9123 36.3649 22.0912 34.282C20.6948 32.684 19.021 30.7689 17.8418 27.6574C13.8208 29.975 12.4377 33.584 12.6891 36.9473C12.8033 38.4733 13.248 39.9485 13.9306 41.2299C14.6075 42.5006 15.5171 43.581 16.5662 44.3289C18.0822 45.4092 19.9138 45.7834 21.7674 44.9957C21.2215 44.6378 20.6996 44.2353 20.2074 43.7892L20.1675 43.7537L20.1536 43.7403C19.4897 43.132 18.88 42.4436 18.3403 41.6774C18.0208 41.2241 17.7348 40.7564 17.482 40.2781C17.2935 40.1476 16.9831 40.0545 16.6353 39.9523L16.6003 39.9432C16.3897 39.8813 16.1676 39.8156 15.9306 39.7326C15.5084 39.5854 15.2854 39.1234 15.4326 38.7012C15.5799 38.2791 16.0419 38.056 16.464 38.2033L16.6286 38.2584C16.3878 37.5129 16.2175 36.7502 16.1182 35.9802C16.062 35.5374 16.3763 35.132 16.819 35.0759C17.2618 35.0198 17.6672 35.334 17.7233 35.7768C17.8361 36.6499 18.0582 37.5235 18.3897 38.3731C18.7106 39.1944 19.1356 39.9917 19.6662 40.7449L19.7622 40.8792C19.7938 40.3937 19.86 39.9044 19.9469 39.3172C20.0116 38.8744 20.4242 38.5674 20.867 38.6321C21.3098 38.6969 21.6168 39.1095 21.552 39.5522C21.446 40.269 21.3726 40.8206 21.3616 41.3263C21.3515 41.7628 21.3851 42.2066 21.4772 42.7506C22.0332 43.2327 22.6295 43.653 23.256 44.0089C24.6899 44.8235 26.2845 45.3051 27.9122 45.4308ZM30.1036 15.0656C30.3502 14.6923 30.8534 14.5902 31.2267 14.8367C31.5999 15.0833 31.7021 15.5865 31.4555 15.9598C31.3773 16.0778 31.2953 16.1977 31.207 16.3186C31.9837 16.3987 32.7436 16.5498 33.4771 16.7657C33.9059 16.8914 34.1516 17.3423 34.0259 17.7712C33.9002 18.2001 33.4492 18.4457 33.0204 18.32C32.1684 18.0696 31.2809 17.9185 30.3776 17.8801C30.0154 17.8648 29.6498 17.8672 29.2833 17.8873L29.2636 17.8888L29.2243 17.8912L29.2075 17.8916H29.2046C28.7014 17.9238 28.1943 17.989 27.6877 18.0912L27.4431 18.1435C27.9027 18.3498 28.3646 18.6016 28.8823 18.9274C29.2603 19.1653 29.374 19.6657 29.136 20.0437C28.8981 20.4217 28.3977 20.5354 28.0197 20.2975C27.4392 19.9324 26.9413 19.6757 26.4251 19.4738C25.9765 19.2987 25.505 19.161 24.9456 19.0262C24.346 19.3231 23.7804 19.6709 23.2527 20.0629L22.7624 20.4491C21.6585 21.3692 20.7466 22.4932 20.0735 23.7486C19.8634 24.1425 19.3726 24.2917 18.9788 24.0815C18.5849 23.8714 18.4357 23.3807 18.6458 22.9868C19.352 21.669 20.2875 20.4788 21.4091 19.4786C21.1534 17.6949 21.505 16.1507 22.2803 14.8799C22.8698 13.9133 23.7055 13.114 24.7029 12.4971C25.6796 11.8931 26.8098 11.4647 28.0125 11.2258C30.8064 10.6708 34.0422 11.1241 36.7061 12.7494C37.088 12.9826 37.2089 13.4815 36.9757 13.8634C36.7426 14.2452 36.2437 14.3661 35.8618 14.133C33.5572 12.7269 30.7503 12.3364 28.3234 12.8185C27.303 13.0214 26.3565 13.3769 25.5529 13.8739C24.77 14.358 24.1181 14.9792 23.6638 15.7242C23.2181 16.4544 22.96 17.3169 22.9509 18.3018C23.433 17.9895 23.9391 17.7074 24.4678 17.4599C24.498 17.4436 24.5302 17.4287 24.5623 17.4162H24.5628L24.5638 17.4157C25.4426 17.0137 26.381 16.7043 27.3702 16.5052C27.8998 16.3987 28.4284 16.3263 28.9528 16.2869C29.171 16.1526 29.3605 15.989 29.5275 15.8125C29.7467 15.5813 29.9353 15.3203 30.1036 15.0656ZM37.7164 15.6153C37.4104 15.2896 37.4257 14.7763 37.7514 14.4702C38.0772 14.1642 38.5905 14.1795 38.8965 14.5052L39.2208 14.8559C39.5202 15.1889 39.4933 15.7022 39.1604 16.0015C38.8275 16.3009 38.3142 16.274 38.0148 15.9411L37.7164 15.6153ZM39.3437 17.9358C39.146 17.5347 39.3105 17.0488 39.7116 16.8511C40.1127 16.6535 40.5986 16.818 40.7963 17.2191C41.1733 17.9837 41.4813 18.8252 41.7025 19.7424L41.7101 19.7789C41.9145 20.6362 42.044 21.5596 42.0853 22.5493C42.1026 22.9959 41.7548 23.3725 41.3081 23.3898L41.194 23.3859C37.7039 23.0271 35.1811 23.8163 33.1077 24.4648C29.881 25.4747 27.6071 26.1866 24.5532 22.7354C24.2572 22.4011 24.2884 21.8892 24.6228 21.5932C24.9571 21.2972 25.469 21.3284 25.765 21.6628C28.1219 24.3262 29.9837 23.7429 32.6251 22.9163C34.6495 22.2831 37.076 21.5241 40.4 21.7002C40.342 21.1581 40.2532 20.6429 40.1371 20.1545L40.129 20.1233C39.9371 19.3275 39.6699 18.5978 39.3437 17.9358ZM44.1045 40.6369C44.197 41.0744 43.9174 41.5057 43.4799 41.5983C43.0423 41.6909 42.6111 41.4112 42.5185 40.9737C42.4935 40.8571 42.4657 40.7468 42.4379 40.6422C41.9466 41.2687 41.3983 41.8444 40.8044 42.3644C40.4681 42.6585 39.9563 42.6244 39.6622 42.2881C39.3681 41.9518 39.4022 41.44 39.7385 41.1459C40.401 40.5659 41.0035 39.8967 41.5254 39.1469C41.7384 38.8413 41.9371 38.5247 42.1198 38.197C42.1323 38.1716 42.1467 38.1467 42.1616 38.1227C42.3995 37.6895 42.6096 37.2376 42.7895 36.7694L42.8778 36.5324C42.4547 36.8121 41.9941 37.0673 41.4429 37.3282C41.0385 37.5192 40.555 37.3455 40.364 36.9411C40.1731 36.5367 40.3468 36.0531 40.7512 35.8622C41.3748 35.5672 41.8579 35.2846 42.3007 34.9603C42.6902 34.6753 43.0587 34.3506 43.4698 33.9529C43.5408 33.287 43.5508 32.6221 43.5029 31.9654C43.3825 30.3214 42.8955 28.7277 42.0939 27.3043C41.8752 26.9139 42.0143 26.4188 42.4048 26.2C42.7953 25.9813 43.2904 26.1204 43.5091 26.5109C44.2421 27.8129 44.7449 29.2405 44.9876 30.7262C47.9586 32.0628 49.1915 34.6168 49.1094 37.3944C49.0644 38.9344 48.6048 40.539 47.8089 42.0257C47.0193 43.5009 45.8943 44.8695 44.5108 45.9532C41.2151 48.5347 36.4715 49.5162 31.3078 46.5308C30.9206 46.3068 30.7887 45.8103 31.0127 45.4231C31.0415 45.3733 31.0746 45.3282 31.1115 45.2869C33.2598 42.5525 33.9424 40.0142 34.5032 37.9269C35.3811 34.66 36.0004 32.3573 40.5516 31.63C40.993 31.56 41.4084 31.8613 41.4784 32.3026C41.5485 32.744 41.2472 33.1594 40.8059 33.2295C37.2943 33.7903 36.7877 35.6737 36.07 38.3453C35.5197 40.3932 34.8596 42.847 32.9273 45.5599C37.0913 47.6136 40.8605 46.7573 43.5149 44.6781C44.7161 43.7369 45.6947 42.5467 46.3812 41.2639C47.0615 39.9926 47.4539 38.6365 47.4918 37.3503C47.5465 35.4904 46.8379 33.7591 45.1531 32.6576C45.1584 33.2381 45.1229 33.8238 45.0466 34.4091V34.4115L45.0457 34.4177L45.0442 34.4307L45.0418 34.4499L45.0404 34.458C44.9099 35.4266 44.6657 36.3947 44.2997 37.3469C44.1093 37.8425 43.8924 38.3174 43.6521 38.7713C43.6559 39.0768 43.7399 39.3469 43.8411 39.6707C43.9255 39.9403 44.02 40.2416 44.1045 40.6369Z" fill="#D7BCA3"/>
</svg>
