<svg width="60" height="60" viewBox="0 0 60 60" fill="none" xmlns="http://www.w3.org/2000/svg">
<path d="M47.2827 9.00001C47.0854 9.00078 46.8963 9.07998 46.7569 9.22032C46.6175 9.36065 46.539 9.55071 46.5387 9.74898V12.1249C46.5394 12.3229 46.6181 12.5126 46.7574 12.6526C46.8968 12.7926 47.0856 12.8716 47.2827 12.8724C47.3808 12.8728 47.478 12.8537 47.5688 12.8164C47.6596 12.779 47.7421 12.7241 47.8118 12.6547C47.8814 12.5853 47.9367 12.5027 47.9746 12.4118C48.0125 12.3209 48.0322 12.2234 48.0326 12.1249V9.74898C48.0324 9.6503 48.0129 9.55264 47.9751 9.46157C47.9372 9.3705 47.8819 9.28781 47.8123 9.21824C47.7426 9.14867 47.66 9.09359 47.5691 9.05614C47.4783 9.01869 47.3809 8.99962 47.2827 9.00001ZM32.377 12.1102C32.0808 12.1102 31.8589 12.25 31.7219 12.3726C31.585 12.4951 31.5001 12.6194 31.4214 12.7478C31.2639 13.0045 31.1431 13.2929 31.0202 13.6272C30.7743 14.2959 30.5407 15.1374 30.3141 15.9943C30.0874 16.8513 29.8685 17.7221 29.6766 18.3951C29.5806 18.7317 29.4916 19.0198 29.4168 19.2203C29.3875 19.2989 29.3528 19.3602 29.3265 19.4065C29.2799 19.4334 29.2184 19.4682 29.1413 19.4973C28.9417 19.5725 28.6549 19.6618 28.3199 19.7582C27.65 19.9511 26.7875 20.1711 25.9346 20.3987C25.0817 20.6264 24.2396 20.8612 23.5741 21.1081C23.2413 21.2316 22.9542 21.3529 22.6988 21.5112C22.5712 21.5904 22.4515 21.6756 22.3296 21.8131C22.2077 21.9507 22.0657 22.1737 22.0657 22.4712C22.0657 22.7688 22.2077 22.9918 22.3296 23.1293C22.4516 23.2669 22.571 23.3521 22.6988 23.4313C22.9542 23.5896 23.2413 23.7123 23.5741 23.8358C24.2396 24.0827 25.0817 24.3161 25.9346 24.5437C26.7875 24.7714 27.65 24.9914 28.3199 25.1842C28.6549 25.2807 28.9417 25.3714 29.1413 25.4466C29.2187 25.4758 29.2813 25.5083 29.3279 25.5346C29.3533 25.5815 29.3878 25.6435 29.4168 25.7222C29.4916 25.9227 29.5806 26.2108 29.6766 26.5474C29.8685 27.2204 30.0875 28.0883 30.3141 28.9452C30.5408 29.8022 30.7744 30.6437 31.0202 31.3123C31.1433 31.6467 31.2638 31.9351 31.4214 32.1918C31.5002 32.3201 31.5851 32.4445 31.7219 32.567C31.8589 32.6895 32.0808 32.8323 32.377 32.8323C32.6732 32.8323 32.8951 32.6895 33.0321 32.567C33.169 32.4444 33.2539 32.3201 33.3326 32.1918C33.4901 31.9351 33.6124 31.6467 33.7353 31.3123C33.9811 30.6437 34.2133 29.8022 34.4399 28.9452C34.6666 28.0883 34.8855 27.2204 35.0774 26.5474C35.1734 26.2108 35.2638 25.9227 35.3386 25.7222C35.3679 25.644 35.4012 25.5829 35.4275 25.536C35.4741 25.5097 35.5353 25.4759 35.6127 25.4466C35.8123 25.3714 36.0991 25.2807 36.4341 25.1842C37.104 24.9914 37.9665 24.7714 38.8194 24.5437C39.6723 24.3161 40.5144 24.0827 41.1799 23.8358C41.5127 23.7123 41.7998 23.5896 42.0552 23.4313C42.1828 23.3521 42.3039 23.2669 42.4258 23.1293C42.5478 22.9918 42.6898 22.7688 42.6898 22.4712C42.6898 22.1737 42.5475 21.9507 42.4258 21.8131C42.3039 21.6756 42.183 21.5904 42.0552 21.5112C41.7998 21.3529 41.5127 21.2316 41.1799 21.1081C40.5144 20.8612 39.6723 20.6264 38.8194 20.3987C37.9665 20.1711 37.104 19.9511 36.4341 19.7582C36.0991 19.6618 35.8123 19.5725 35.6127 19.4973C35.5351 19.4681 35.4741 19.4334 35.4275 19.4065C35.4021 19.3602 35.3677 19.2988 35.3386 19.2203C35.2638 19.0198 35.1734 18.7317 35.0774 18.3951C34.8855 17.7221 34.6665 16.8513 34.4399 15.9943C34.2132 15.1374 33.9811 14.2959 33.7353 13.6272C33.6125 13.2929 33.4902 13.0045 33.3326 12.7478C33.2538 12.6195 33.1691 12.4951 33.0321 12.3726C32.8951 12.25 32.6732 12.1102 32.377 12.1102ZM15.2902 12.8782C15.0931 12.879 14.9043 12.958 14.7649 13.098C14.6256 13.2381 14.5469 13.4277 14.5462 13.6258V16.0031C14.5454 16.2021 14.6233 16.3933 14.7629 16.5346C14.9024 16.6759 15.0921 16.7557 15.2902 16.7565C15.3888 16.7569 15.4865 16.7377 15.5776 16.6999C15.6688 16.6622 15.7516 16.6067 15.8213 16.5367C15.891 16.4667 15.9462 16.3835 15.9838 16.2919C16.0213 16.2003 16.0405 16.1022 16.0401 16.0031V13.6258C16.0397 13.5272 16.02 13.4297 15.9821 13.3388C15.9442 13.2479 15.8889 13.1654 15.8192 13.096C15.7496 13.0266 15.667 12.9716 15.5763 12.9342C15.4855 12.8969 15.3883 12.8779 15.2902 12.8782ZM43.1642 13.1391C43.0656 13.1387 42.9679 13.158 42.8768 13.1957C42.7856 13.2334 42.7028 13.2889 42.6331 13.3589C42.5634 13.429 42.5082 13.5122 42.4706 13.6037C42.4331 13.6953 42.4139 13.7935 42.4143 13.8925C42.4147 13.9911 42.4344 14.0886 42.4723 14.1795C42.5102 14.2704 42.5655 14.3529 42.6352 14.4223C42.7048 14.4917 42.7874 14.5467 42.8781 14.584C42.9689 14.6214 43.0661 14.6404 43.1642 14.64H45.5291C45.7262 14.6393 45.915 14.5603 46.0544 14.4202C46.1938 14.2802 46.2724 14.0905 46.2732 13.8925C46.2735 13.794 46.2546 13.6963 46.2174 13.6051C46.1802 13.5139 46.1255 13.431 46.0564 13.361C45.9873 13.291 45.9052 13.2354 45.8147 13.1974C45.7242 13.1593 45.6272 13.1395 45.5291 13.1391H43.1642ZM49.0422 13.1391C48.9441 13.1395 48.847 13.1593 48.7565 13.1974C48.6661 13.2354 48.5839 13.291 48.5148 13.361C48.4457 13.431 48.391 13.5139 48.3539 13.6051C48.3167 13.6963 48.2977 13.794 48.2981 13.8925C48.2989 14.0905 48.3775 14.2802 48.5169 14.4202C48.6563 14.5602 48.8451 14.6392 49.0422 14.64H51.4071C51.6042 14.6392 51.793 14.5602 51.9323 14.4202C52.0717 14.2802 52.1503 14.0905 52.1511 13.8925C52.1515 13.794 52.1326 13.6963 52.0954 13.6051C52.0582 13.5139 52.0035 13.431 51.9344 13.361C51.8653 13.291 51.7832 13.2354 51.6927 13.1974C51.6022 13.1593 51.5052 13.1395 51.4071 13.1391H49.0422ZM32.377 14.2926C32.5754 14.8553 32.787 15.5911 32.9956 16.3798C33.2186 17.2235 33.4373 18.0933 33.6404 18.8055C33.742 19.1616 33.8411 19.4804 33.9409 19.748C34.0409 20.0155 34.0733 20.2078 34.3495 20.4852C34.6255 20.7627 34.8228 20.7997 35.0891 20.9C35.3553 21.0003 35.6684 21.0999 36.0228 21.2019C36.7317 21.406 37.5961 21.6212 38.4359 21.8454C39.221 22.055 39.9576 22.2718 40.5177 22.4712C39.9576 22.6706 39.221 22.8831 38.4359 23.0927C37.5961 23.3169 36.7317 23.5365 36.0228 23.7405C35.6684 23.8426 35.3554 23.9392 35.0891 24.0395C34.8229 24.1399 34.6256 24.1754 34.3495 24.4529C34.0734 24.7303 34.0408 24.9284 33.9409 25.196C33.841 25.4635 33.7419 25.7779 33.6404 26.134C33.4374 26.8463 33.2187 27.716 32.9956 28.5598C32.787 29.3485 32.5754 30.0842 32.377 30.6469C32.1785 30.0842 31.967 29.3485 31.7584 28.5598C31.5354 27.716 31.3167 26.8463 31.1136 26.134C31.012 25.7779 30.9129 25.4635 30.8131 25.196C30.7131 24.9284 30.6807 24.7303 30.4045 24.4529C30.1285 24.1754 29.9326 24.1398 29.6663 24.0395C29.4001 23.9392 29.0871 23.8426 28.7326 23.7405C28.0237 23.5365 27.1579 23.3169 26.3181 23.0927C25.533 22.8831 24.7964 22.6706 24.2363 22.4712C24.7964 22.2718 25.533 22.055 26.3181 21.8454C27.1579 21.6212 28.0237 21.406 28.7326 21.2019C29.0871 21.0999 29.4 21.0003 29.6663 20.9C29.9325 20.7997 30.1284 20.7627 30.4045 20.4852C30.6806 20.2078 30.7132 20.0155 30.8131 19.748C30.913 19.4804 31.0121 19.1616 31.1136 18.8055C31.3166 18.0933 31.5353 17.2235 31.7584 16.3798C31.967 15.5911 32.1786 14.8553 32.377 14.2926ZM47.2827 14.9053C47.0854 14.9061 46.8963 14.9853 46.7569 15.1256C46.6175 15.2659 46.539 15.456 46.5387 15.6543V18.0302C46.5383 18.1287 46.5572 18.2264 46.5944 18.3176C46.6316 18.4088 46.6863 18.4917 46.7554 18.5617C46.8245 18.6316 46.9066 18.6872 46.9971 18.7253C47.0876 18.7634 47.1846 18.7832 47.2827 18.7835C47.3813 18.7839 47.479 18.7647 47.5701 18.727C47.6613 18.6893 47.7441 18.6338 47.8138 18.5638C47.8835 18.4937 47.9388 18.4105 47.9763 18.3189C48.0139 18.2274 48.033 18.1292 48.0326 18.0302V15.6543C48.0324 15.5556 48.0129 15.4579 47.9751 15.3669C47.9372 15.2758 47.8819 15.1931 47.8123 15.1235C47.7426 15.054 47.66 14.9989 47.5691 14.9614C47.4783 14.924 47.3809 14.9049 47.2827 14.9053ZM11.1717 17.0159C11.0731 17.0155 10.9754 17.0347 10.8843 17.0725C10.7931 17.1102 10.7103 17.1657 10.6406 17.2357C10.5709 17.3057 10.5157 17.3889 10.4781 17.4805C10.4406 17.5721 10.4214 17.6702 10.4218 17.7693C10.422 17.868 10.4416 17.9656 10.4794 18.0567C10.5172 18.1478 10.5725 18.2304 10.6421 18.3C10.7118 18.3696 10.7944 18.4247 10.8853 18.4621C10.9762 18.4996 11.0735 18.5186 11.1717 18.5183H13.5366C13.7342 18.5179 13.9236 18.4388 14.0633 18.2985C14.2031 18.1581 14.2817 17.9678 14.2821 17.7693C14.2825 17.6706 14.2635 17.5728 14.2262 17.4815C14.189 17.3902 14.1341 17.3072 14.0649 17.2373C13.9956 17.1673 13.9133 17.1117 13.8227 17.0737C13.732 17.0357 13.6348 17.0161 13.5366 17.0159H11.1717ZM17.0496 17.0159C16.9511 17.0155 16.8534 17.0347 16.7622 17.0725C16.6711 17.1102 16.5883 17.1657 16.5185 17.2357C16.4488 17.3057 16.3936 17.3889 16.3561 17.4805C16.3185 17.5721 16.2994 17.6702 16.2998 17.7693C16.3 17.868 16.3195 17.9656 16.3573 18.0567C16.3951 18.1478 16.4504 18.2304 16.5201 18.3C16.5898 18.3696 16.6724 18.4247 16.7632 18.4621C16.8541 18.4996 16.9514 18.5186 17.0496 18.5183H19.4146C19.6122 18.5179 19.8016 18.4388 19.9413 18.2985C20.081 18.1581 20.1597 17.9678 20.1601 17.7693C20.1604 17.6706 20.1415 17.5728 20.1042 17.4815C20.0669 17.3903 20.0121 17.3072 19.9428 17.2373C19.8736 17.1673 19.7913 17.1117 19.7006 17.0737C19.61 17.0358 19.5128 17.0161 19.4146 17.0159H17.0496ZM15.2902 18.7835C15.0931 18.7843 14.9043 18.8633 14.7649 19.0033C14.6256 19.1434 14.5469 19.333 14.5462 19.531V21.9084C14.5454 22.1074 14.6233 22.2986 14.7629 22.4399C14.9024 22.5812 15.0921 22.661 15.2902 22.6618C15.3888 22.6622 15.4865 22.643 15.5776 22.6052C15.6688 22.5675 15.7516 22.512 15.8213 22.442C15.891 22.372 15.9462 22.2888 15.9838 22.1972C16.0213 22.1056 16.0405 22.0075 16.0401 21.9084V19.531C16.0397 19.4325 16.02 19.335 15.9821 19.2441C15.9442 19.1532 15.8889 19.0707 15.8192 19.0013C15.7496 18.9318 15.667 18.8769 15.5763 18.8395C15.4855 18.8022 15.3883 18.7832 15.2902 18.7835ZM17.0074 28.2695C16.7227 28.2695 16.5138 28.4025 16.3888 28.5143C16.2637 28.6262 16.1883 28.7343 16.1217 28.8426C15.9887 29.0593 15.8925 29.2898 15.7949 29.5549C15.5998 30.0853 15.4199 30.7434 15.2434 31.4105C15.067 32.0777 14.8967 32.7506 14.7489 33.269C14.6749 33.5282 14.6071 33.751 14.5518 33.8993C14.5405 33.9282 14.5292 33.9531 14.5154 33.977C14.49 33.99 14.464 34.0036 14.4338 34.0151C14.2862 34.0707 14.0674 34.1416 13.8094 34.2159C13.2934 34.3644 12.6235 34.5326 11.9595 34.7098C11.2955 34.8871 10.6404 35.0709 10.1125 35.2668C9.84856 35.3647 9.61626 35.46 9.40056 35.5936C9.29272 35.6605 9.18657 35.7363 9.07523 35.8618C8.96401 35.9874 8.8302 36.1987 8.8302 36.4848C8.8302 36.7708 8.96401 36.9806 9.07523 37.1062C9.18646 37.2318 9.2926 37.3047 9.40056 37.3715C9.61623 37.5052 9.84856 37.6004 10.1125 37.6984C10.6404 37.8943 11.2955 38.0781 11.9595 38.2553C12.6235 38.4326 13.2934 38.6037 13.8094 38.7522C14.0674 38.8265 14.2862 38.8945 14.4338 38.9501C14.4643 38.9614 14.4908 38.975 14.5154 38.9882C14.5295 39.012 14.5408 39.0366 14.5518 39.0659C14.6071 39.2142 14.6749 39.4369 14.7489 39.6961C14.8968 40.2146 15.067 40.8875 15.2434 41.5546C15.4199 42.2218 15.5999 42.8798 15.7949 43.4102C15.8923 43.6754 15.9886 43.9058 16.1217 44.1225C16.1883 44.2309 16.2637 44.339 16.3888 44.4509C16.5138 44.5627 16.7227 44.6986 17.0074 44.6986C17.2921 44.6986 17.5009 44.5627 17.6259 44.4509C17.751 44.339 17.8264 44.2309 17.893 44.1225C18.0259 43.9058 18.1208 43.6754 18.2183 43.4102C18.4134 42.8798 18.5934 42.2218 18.7698 41.5546C18.9462 40.8875 19.1165 40.2146 19.2644 39.6961C19.3383 39.4369 19.4061 39.2142 19.4614 39.0659C19.4727 39.0366 19.484 39.012 19.4978 38.9882C19.5232 38.9752 19.5492 38.9615 19.5797 38.9501C19.7273 38.8945 19.9461 38.8265 20.2041 38.7522C20.7201 38.6036 21.39 38.4326 22.054 38.2553C22.718 38.0781 23.3731 37.8942 23.901 37.6984C24.1649 37.6004 24.3972 37.5052 24.6129 37.3715C24.7208 37.3047 24.8283 37.2318 24.9397 37.1062C25.051 36.9806 25.1834 36.7708 25.1834 36.4848C25.1834 36.1987 25.051 35.9874 24.9397 35.8618C24.8285 35.7363 24.7207 35.6605 24.6129 35.5936C24.3973 35.46 24.1649 35.3647 23.901 35.2668C23.3731 35.0709 22.718 34.8871 22.054 34.7098C21.39 34.5326 20.7201 34.3644 20.2041 34.2159C19.9461 34.1416 19.7273 34.0707 19.5797 34.0151C19.5492 34.0037 19.5227 33.9901 19.4978 33.977C19.4837 33.9531 19.4724 33.9282 19.4614 33.8993C19.4061 33.751 19.3383 33.5283 19.2644 33.269C19.1164 32.7506 18.9462 32.0777 18.7698 31.4105C18.5934 30.7434 18.4133 30.0853 18.2183 29.5549C18.1209 29.2897 18.0261 29.0593 17.893 28.8426C17.8264 28.7343 17.751 28.6262 17.6259 28.5143C17.5009 28.4024 17.2921 28.2695 17.0074 28.2695ZM44.4743 29.6971C44.2005 29.6971 44.0017 29.8268 43.8878 29.9287C43.7741 30.0306 43.7125 30.1248 43.6572 30.2145C43.5471 30.3939 43.4743 30.5723 43.4006 30.7729C43.2529 31.1743 43.1189 31.6578 42.9892 32.1478C42.8596 32.6378 42.7371 33.1308 42.6303 33.505C42.5797 33.6816 42.534 33.8256 42.4976 33.9257C42.3979 33.9623 42.2545 34.007 42.0789 34.0576C41.7065 34.1648 41.2171 34.2894 40.7294 34.4196C40.2417 34.5498 39.7589 34.6847 39.3595 34.8329C39.1596 34.907 38.9822 34.9788 38.8036 35.0894C38.7144 35.1448 38.6235 35.2081 38.5219 35.3225C38.4206 35.4368 38.2916 35.6364 38.2916 35.9117C38.2916 36.1869 38.4206 36.3865 38.5219 36.5009C38.6235 36.6153 38.7142 36.6772 38.8036 36.7325C38.9823 36.8431 39.1597 36.9163 39.3595 36.9904C39.7589 37.1387 40.2417 37.2721 40.7294 37.4023C41.2171 37.5325 41.7065 37.6571 42.0789 37.7643C42.2548 37.8149 42.3979 37.8597 42.4976 37.8962C42.534 37.9963 42.5797 38.141 42.6303 38.3184C42.737 38.6925 42.8595 39.1841 42.9892 39.6741C43.1187 40.1641 43.2531 40.6505 43.4006 41.0519C43.4743 41.2526 43.5474 41.4295 43.6572 41.6088C43.7122 41.6985 43.7738 41.7913 43.8878 41.8932C44.0016 41.9951 44.2003 42.1248 44.4743 42.1248C44.7481 42.1248 44.9469 41.9951 45.0608 41.8932C45.1746 41.7913 45.2361 41.6986 45.2912 41.6088C45.4013 41.4295 45.4741 41.2526 45.5481 41.0519C45.6957 40.6505 45.8298 40.1641 45.9594 39.6741C46.089 39.1841 46.2115 38.6925 46.3183 38.3184C46.3689 38.141 46.416 37.9963 46.4524 37.8962C46.5521 37.8596 46.6938 37.8149 46.8697 37.7643C47.2421 37.6571 47.7314 37.5325 48.2192 37.4023C48.7069 37.2721 49.1896 37.1387 49.5891 36.9904C49.789 36.9163 49.9664 36.8431 50.1449 36.7325C50.2341 36.6771 50.325 36.6153 50.4264 36.5009C50.528 36.3865 50.657 36.1869 50.657 35.9117C50.657 35.6364 50.528 35.4369 50.4264 35.3225C50.325 35.2081 50.2341 35.1447 50.1449 35.0894C49.9665 34.9788 49.7888 34.907 49.5891 34.8329C49.1896 34.6847 48.7069 34.5498 48.2192 34.4196C47.7314 34.2894 47.2421 34.1648 46.8697 34.0576C46.6938 34.007 46.5521 33.9622 46.4524 33.9257C46.4163 33.8256 46.3686 33.6816 46.3183 33.505C46.2116 33.1308 46.0891 32.6378 45.9594 32.1478C45.8299 31.6578 45.6955 31.1743 45.5481 30.7729C45.4744 30.5723 45.4015 30.3939 45.2912 30.2145C45.2361 30.1248 45.1746 30.0306 45.0608 29.9287C44.947 29.8268 44.7483 29.6971 44.4743 29.6971ZM17.0074 30.7217C17.1138 31.0709 17.2185 31.3883 17.3269 31.7975C17.4999 32.4514 17.6682 33.1262 17.8273 33.6838C17.9066 33.9627 17.9834 34.2116 18.0635 34.4269C18.1437 34.6423 18.164 34.799 18.4239 35.0601C18.6839 35.3213 18.8398 35.3414 19.0541 35.4222C19.2684 35.5029 19.5163 35.5797 19.7938 35.6596C20.3488 35.8194 21.0206 35.9886 21.6714 36.1623C22.0808 36.2716 22.3993 36.3757 22.7481 36.4833C22.3994 36.5909 22.0806 36.6965 21.6714 36.8058C21.0206 36.9795 20.3488 37.1487 19.7938 37.3085C19.5163 37.3884 19.2684 37.4652 19.0541 37.5459C18.8399 37.6267 18.6838 37.6439 18.4239 37.905C18.1639 38.1662 18.1439 38.3259 18.0635 38.5412C17.9831 38.7565 17.9066 39.004 17.8273 39.2828C17.6683 39.8404 17.4998 40.5167 17.3269 41.1706C17.2187 41.5798 17.114 41.8972 17.0074 42.2464C16.9009 41.8972 16.7945 41.5798 16.6864 41.1706C16.5133 40.5167 16.345 39.8404 16.186 39.2828C16.1064 39.004 16.0299 38.7565 15.9497 38.5412C15.8695 38.3258 15.8492 38.1662 15.5894 37.905C15.3294 37.6439 15.1749 37.6267 14.9606 37.5459C14.7463 37.4652 14.4984 37.3884 14.2209 37.3085C13.6659 37.1487 12.9927 36.9795 12.3418 36.8058C11.9326 36.6966 11.6139 36.5909 11.2651 36.4833C11.614 36.3757 11.9324 36.2716 12.3418 36.1623C12.9927 35.9886 13.6659 35.8194 14.2209 35.6596C14.4984 35.5797 14.7463 35.5029 14.9606 35.4222C15.1748 35.3414 15.3295 35.3212 15.5894 35.0601C15.8494 34.799 15.8694 34.6423 15.9497 34.4269C16.0302 34.2116 16.1067 33.9627 16.186 33.6838C16.3449 33.1262 16.5134 32.4514 16.6864 31.7975C16.7948 31.3883 16.9009 31.0709 17.0074 30.7217ZM44.4743 32.3955C44.4884 32.4481 44.4997 32.4801 44.5152 32.5333C44.6414 33.0101 44.7637 33.505 44.8814 33.9184C44.9404 34.125 44.9989 34.3102 45.061 34.4768C45.1231 34.6434 45.1256 34.7674 45.3702 35.0132C45.615 35.2591 45.737 35.2601 45.9028 35.3225C46.0685 35.3849 46.2529 35.4406 46.4586 35.4998C46.87 35.6183 47.3627 35.744 47.8373 35.8707C47.8903 35.8848 47.922 35.8976 47.9745 35.9117C47.922 35.9259 47.8903 35.9386 47.8373 35.9527C47.3627 36.0794 46.87 36.2022 46.4586 36.3206C46.2528 36.3798 46.0685 36.4385 45.9028 36.5009C45.737 36.5634 45.615 36.5628 45.3702 36.8087C45.1255 37.0546 45.1232 37.1801 45.061 37.3466C44.9989 37.5132 44.9404 37.6984 44.8814 37.9051C44.7634 38.3184 44.6415 38.8133 44.5152 39.2901C44.5011 39.3434 44.4898 39.3753 44.4743 39.4279C44.4602 39.3753 44.4489 39.3434 44.4334 39.2901C44.3072 38.8133 44.1849 38.3184 44.0672 37.9051C44.0082 37.6984 43.9497 37.5132 43.8876 37.3466C43.8255 37.1801 43.8244 37.0546 43.5798 36.8087C43.3351 36.5629 43.2116 36.5634 43.0458 36.5009C42.8801 36.4385 42.6957 36.3799 42.49 36.3206C42.0786 36.2022 41.5859 36.0794 41.1113 35.9527C41.0582 35.9386 41.0266 35.9258 40.9741 35.9117C41.0266 35.8975 41.0582 35.8848 41.1113 35.8707C41.5859 35.744 42.0786 35.6183 42.49 35.4998C42.6958 35.4406 42.8801 35.3849 43.0458 35.3225C43.2116 35.26 43.3351 35.2591 43.5798 35.0132C43.8246 34.7674 43.8254 34.6433 43.8876 34.4768C43.9497 34.3102 44.0082 34.125 44.0672 33.9184C44.1852 33.505 44.3071 33.0101 44.4334 32.5333C44.4475 32.4801 44.4588 32.4481 44.4743 32.3955ZM29.2681 40.2165C29.17 40.2161 29.0728 40.2351 28.982 40.2725C28.8912 40.3098 28.8087 40.3648 28.739 40.4342C28.6694 40.5036 28.614 40.5861 28.5761 40.677C28.5383 40.7679 28.5186 40.8654 28.5182 40.964V43.3413C28.5178 43.4404 28.5369 43.5385 28.5745 43.6301C28.612 43.7217 28.6672 43.8049 28.7369 43.8749C28.8067 43.9449 28.8895 44.0004 28.9806 44.0381C29.0718 44.0759 29.1695 44.0951 29.2681 44.0947C29.3663 44.0945 29.4635 44.0749 29.5541 44.0369C29.6448 43.9989 29.7271 43.9433 29.7963 43.8733C29.8656 43.8034 29.9204 43.7204 29.9577 43.6291C29.995 43.5378 30.0139 43.44 30.0136 43.3413V40.964C30.0128 40.7657 29.934 40.5758 29.7943 40.4357C29.6546 40.2957 29.4654 40.2168 29.2681 40.2165ZM25.1437 44.3541C24.9456 44.3549 24.7559 44.4347 24.6164 44.576C24.4768 44.7173 24.3989 44.9085 24.3997 45.1075C24.4001 45.3058 24.4785 45.4958 24.6179 45.6361C24.7573 45.7765 24.9463 45.8557 25.1437 45.8565H27.5101C27.7074 45.8557 27.8964 45.7765 28.0358 45.6362C28.1753 45.4958 28.2537 45.3058 28.2541 45.1075C28.2545 45.0089 28.2356 44.9113 28.1984 44.8201C28.1612 44.7289 28.1065 44.6459 28.0374 44.576C27.9683 44.506 27.8862 44.4504 27.7957 44.4124C27.7052 44.3743 27.6081 44.3545 27.5101 44.3541H25.1437ZM31.0216 44.3541C30.8235 44.3549 30.6339 44.4347 30.4943 44.576C30.3548 44.7173 30.2768 44.9085 30.2776 45.1075C30.278 45.3058 30.3565 45.4958 30.4959 45.6361C30.6353 45.7765 30.8243 45.8557 31.0216 45.8565H33.388C33.4863 45.8568 33.5836 45.8378 33.6744 45.8003C33.7653 45.7629 33.8479 45.7078 33.9176 45.6382C33.9872 45.5686 34.0425 45.486 34.0803 45.3949C34.1182 45.3038 34.1377 45.2062 34.1379 45.1075C34.1383 45.0085 34.1192 44.9103 34.0816 44.8187C34.0441 44.7272 33.9888 44.644 33.9191 44.5739C33.8494 44.5039 33.7666 44.4484 33.6755 44.4107C33.5843 44.373 33.4866 44.3537 33.388 44.3541H31.0216ZM29.2681 46.1218C29.17 46.1214 29.0728 46.1404 28.982 46.1778C28.8912 46.2151 28.8087 46.2701 28.739 46.3395C28.6694 46.4089 28.614 46.4914 28.5761 46.5823C28.5383 46.6732 28.5186 46.7707 28.5182 46.8693V49.2466C28.5178 49.3457 28.5369 49.4438 28.5745 49.5354C28.612 49.627 28.6672 49.7102 28.7369 49.7802C28.8067 49.8502 28.8895 49.9057 28.9806 49.9434C29.0718 49.9812 29.1695 50.0004 29.2681 50C29.3663 49.9998 29.4635 49.9802 29.5541 49.9422C29.6448 49.9042 29.7271 49.8486 29.7963 49.7786C29.8656 49.7087 29.9204 49.6257 29.9577 49.5344C29.995 49.4431 30.0139 49.3453 30.0136 49.2466V46.8693C30.0128 46.671 29.934 46.4811 29.7943 46.341C29.6546 46.201 29.4654 46.1221 29.2681 46.1218Z" fill="#D7BCA3"/>
</svg>
