<svg width="60" height="60" viewBox="0 0 60 60" fill="none" xmlns="http://www.w3.org/2000/svg">
<path d="M44.6563 19.9198C41.1806 15.6151 34.7733 14.8113 30.0661 18.0939L29.4756 18.5061L28.6162 17.907C26.238 16.2474 23.2396 15.6328 20.3978 16.2142C17.5107 16.8075 15.0675 18.514 13.5162 21.0193C10.5906 25.746 12.0189 32.0423 16.7665 35.3542L28.8968 43.818C29.0701 43.9393 29.2727 44 29.4756 44C29.6783 44 29.8811 43.9393 30.0544 43.818L42.4918 35.1399C44.8779 33.4755 46.4814 30.8742 46.8918 28.0037C47.3082 25.093 46.5138 22.2215 44.6563 19.9198ZM44.8964 27.7208C44.5589 30.0793 43.294 32.1313 41.3341 33.4989L29.4756 41.7728L17.924 33.7135C14.0476 31.0093 12.8655 25.8949 15.2329 22.0707C16.4899 20.0402 18.4684 18.6578 20.8043 18.1782C21.3919 18.0577 21.9806 17.998 22.5644 17.998C24.3037 17.998 25.9958 18.5276 27.4585 19.5478C27.4585 19.5478 29.5333 21.0744 29.9815 21.5068C30.5485 22.0539 31.21 21.7026 31.4069 21.5068C31.8006 21.1152 31.8006 20.4808 31.4069 20.0892C31.3112 19.9941 31.2085 19.9068 31.1091 19.8148C31.1091 19.8148 33.0865 18.065 36.822 18.0874C39.2407 18.1018 41.5209 19.2391 43.0834 21.175C44.5894 23.04 45.2332 25.3652 44.8964 27.7208ZM40.9414 29.5231C40.8941 29.5231 40.8449 29.5202 40.7967 29.5134C40.2455 29.4341 39.8636 28.9249 39.9433 28.3776C40.1697 26.8132 39.7434 25.2693 38.7433 24.0298C38.3919 23.5932 37.9755 23.2162 37.506 22.9088C37.0414 22.6044 36.9124 21.9826 37.2185 21.5205C37.5237 21.0585 38.1517 20.9282 38.6144 21.2346C39.2592 21.6566 39.832 22.1745 40.3163 22.7747C41.6699 24.4517 42.2456 26.5439 41.9376 28.6635C41.8657 29.1628 41.4346 29.5231 40.9414 29.5231Z" fill="#D7BCA3"/>
</svg>
