<svg width="159" height="48" viewBox="0 0 159 48" fill="none" xmlns="http://www.w3.org/2000/svg">
<path d="M12.2684 28.4162L18.8937 10.5967L25.5191 28.4162H12.2684ZM19.1127 7.15903L8.22858 36.4346H9.2887L11.899 29.4128H25.8885L28.4988 36.4346H32.9029L22.0183 7.15903H19.1127Z" fill="#645140"/>
<path d="M51.1812 29.4128L39.952 7.15903H36.0685V36.4346H37.0624V10.5922L49.4258 35.0996L61.787 10.5967V36.4346H65.915V7.15903H62.41L51.1812 29.4128Z" fill="#645140"/>
<path d="M108.177 22.6108V8.15136H111.53C115.58 8.15136 118.864 11.3285 118.864 15.2508C118.864 18.9674 115.905 22.0532 112.078 22.3321L108.177 22.6108ZM146.367 36.4349H150.771L139.886 7.1594H136.981L129.61 26.9812C129.998 26.7938 130.412 26.6383 130.849 26.524C131.464 26.3595 132.121 26.268 132.805 26.268C136.197 26.268 138.956 28.4348 138.956 31.0999C138.956 33.7651 136.197 35.9365 132.805 35.9365C129.002 35.9365 126.208 32.9149 123.81 30.3274C122.726 29.1572 121.606 27.9503 120.307 26.908C118.253 25.2623 115.84 24.0691 113.282 23.388L115.489 23.2235C119.72 22.9081 122.992 19.4109 122.992 15.2006C122.992 10.7572 119.361 7.1594 114.883 7.1594H104.049V36.4349H108.177V23.7674L108.705 23.7264C112.683 23.8178 116.61 25.2211 119.686 27.6851C120.927 28.6817 122.022 29.8612 123.081 31.004C123.888 31.8726 124.721 32.7731 125.63 33.6051C127.461 35.2828 129.673 36.6405 132.193 36.8737C134.455 37.0885 136.879 36.3251 138.461 34.6565C139.372 33.6965 139.95 32.4394 139.95 31.0999C139.95 27.8908 136.744 25.276 132.805 25.276C132.274 25.276 131.759 25.3263 131.261 25.4132L136.762 10.5971L146.367 36.4349Z" fill="#645140"/>
<path d="M89.7178 35.767C93.1588 33.1978 95.5213 27.9088 95.5213 21.8059C95.5213 19.1499 95.0737 16.6492 94.2865 14.4595C97.5249 16.7406 99.5962 20.1739 99.5962 24.023C99.5962 29.463 95.4577 34.0938 89.7178 35.767ZM84.986 36.4389C81.4477 36.4389 78.5791 29.8882 78.5791 21.8059C78.5791 18.1853 79.1551 14.8756 80.1073 12.3202C81.6342 11.8585 83.2749 11.6023 84.986 11.6023C86.6971 11.6023 88.3377 11.8585 89.8646 12.3202C90.8173 14.8756 91.3933 18.1853 91.3933 21.8059C91.3933 29.8882 88.5247 36.4389 84.986 36.4389ZM70.3761 24.023C70.3761 20.1739 72.447 16.7269 75.6895 14.4504C74.9 16.6401 74.4511 19.1453 74.4511 21.8059C74.4511 27.9088 76.8136 33.1978 80.255 35.767C74.5146 34.0938 70.3761 29.463 70.3761 24.023ZM84.986 7.16357C86.6893 7.16357 88.2358 8.68586 89.3828 11.1636C87.9871 10.8116 86.5156 10.6059 84.986 10.6059C83.46 10.6059 81.988 10.7978 80.5942 11.1498C81.7416 8.68125 83.2859 7.16357 84.986 7.16357ZM93.62 12.8504C91.7156 8.81379 88.5599 6.17161 84.986 6.17161C81.412 6.17161 78.2559 8.81386 76.3514 12.855C72.1521 15.255 69.3818 19.3602 69.3818 24.023C69.3818 31.4288 76.3684 37.4355 84.986 37.4355C93.6045 37.4355 100.591 31.4288 100.591 24.023C100.591 19.3602 97.8207 15.2549 93.62 12.8504Z" fill="#645140"/>
<path d="M82.8269 41.2204C84.0196 42.4135 85.9533 42.4135 87.146 41.2204L84.986 39.0581L82.8269 41.2204Z" fill="#645140"/>
</svg>
