<svg width="99" height="45" viewBox="0 0 99 45" fill="none" xmlns="http://www.w3.org/2000/svg">
<path d="M6.896 31.12C6.896 32.7253 7.25067 34.144 7.96 35.376C8.66933 36.608 9.62133 37.5787 10.816 38.288C12.048 38.9973 13.4107 39.352 14.904 39.352C16.1733 39.352 17.3493 39.1653 18.432 38.792C19.552 38.3813 20.5413 37.8587 21.4 37.224C22.2587 36.552 22.8933 35.8053 23.304 34.984V41.648C22.408 42.544 21.1947 43.2533 19.664 43.776C18.1333 44.2987 16.4533 44.56 14.624 44.56C12.0107 44.56 9.64 44 7.512 42.88C5.42133 41.7227 3.76 40.136 2.528 38.12C1.296 36.0667 0.68 33.7333 0.68 31.12C0.68 28.4693 1.296 26.136 2.528 24.12C3.76 22.104 5.42133 20.536 7.512 19.416C9.64 18.2587 12.0107 17.68 14.624 17.68C16.4533 17.68 18.1333 17.9413 19.664 18.464C21.1947 18.9867 22.408 19.6773 23.304 20.536V27.256C22.8933 26.3973 22.24 25.6507 21.344 25.016C20.4853 24.344 19.496 23.8213 18.376 23.448C17.256 23.0747 16.0987 22.888 14.904 22.888C13.4107 22.888 12.048 23.2427 10.816 23.952C9.62133 24.6613 8.66933 25.632 7.96 26.864C7.25067 28.096 6.896 29.5147 6.896 31.12ZM28.869 0.319998H34.973V44H28.869V0.319998ZM47.7462 33.92C47.7462 35.7493 48.1382 37.168 48.9222 38.176C49.7062 39.184 50.9196 39.688 52.5622 39.688C53.6822 39.688 54.6716 39.4453 55.5302 38.96C56.3889 38.4747 57.0609 37.8027 57.5462 36.944C58.0316 36.0853 58.2743 35.0773 58.2743 33.92V18.24H64.3222V44H58.2743V40.024C57.4529 41.5173 56.3889 42.656 55.0822 43.44C53.8129 44.1867 52.2822 44.56 50.4902 44.56C47.6156 44.56 45.3942 43.664 43.8262 41.872C42.2956 40.08 41.5302 37.6533 41.5302 34.592V18.24H47.7462V33.92ZM76.8059 0.319998V44H70.7019V0.319998H76.8059ZM98.1419 31.12C98.1419 33.92 97.5632 36.328 96.4059 38.344C95.2485 40.36 93.7179 41.9093 91.8139 42.992C89.9099 44.0373 87.8379 44.56 85.5979 44.56C83.4699 44.56 81.5845 44.0187 79.9419 42.936C78.2992 41.8533 76.9925 40.304 76.0219 38.288C75.0885 36.272 74.6219 33.8827 74.6219 31.12C74.6219 28.32 75.0885 25.9307 76.0219 23.952C76.9925 21.936 78.2992 20.3867 79.9419 19.304C81.5845 18.2213 83.4699 17.68 85.5979 17.68C87.8379 17.68 89.9099 18.2213 91.8139 19.304C93.7179 20.3493 95.2485 21.88 96.4059 23.896C97.5632 25.8747 98.1419 28.2827 98.1419 31.12ZM91.8699 31.12C91.8699 29.4027 91.5152 27.928 90.8059 26.696C90.0965 25.464 89.1632 24.5307 88.0059 23.896C86.8485 23.2613 85.5605 22.944 84.1419 22.944C82.9472 22.944 81.7899 23.2613 80.6699 23.896C79.5499 24.5307 78.6165 25.464 77.8699 26.696C77.1605 27.8907 76.8059 29.3653 76.8059 31.12C76.8059 32.8747 77.1605 34.368 77.8699 35.6C78.6165 36.7947 79.5499 37.7093 80.6699 38.344C81.7899 38.9787 82.9472 39.296 84.1419 39.296C85.5605 39.296 86.8485 38.9787 88.0059 38.344C89.1632 37.7093 90.0965 36.776 90.8059 35.544C91.5152 34.312 91.8699 32.8373 91.8699 31.12Z" fill="url(#paint0_linear_7_4350)"/>
<path d="M6.896 31.12C6.896 32.7253 7.25067 34.144 7.96 35.376C8.66933 36.608 9.62133 37.5787 10.816 38.288C12.048 38.9973 13.4107 39.352 14.904 39.352C16.1733 39.352 17.3493 39.1653 18.432 38.792C19.552 38.3813 20.5413 37.8587 21.4 37.224C22.2587 36.552 22.8933 35.8053 23.304 34.984V41.648C22.408 42.544 21.1947 43.2533 19.664 43.776C18.1333 44.2987 16.4533 44.56 14.624 44.56C12.0107 44.56 9.64 44 7.512 42.88C5.42133 41.7227 3.76 40.136 2.528 38.12C1.296 36.0667 0.68 33.7333 0.68 31.12C0.68 28.4693 1.296 26.136 2.528 24.12C3.76 22.104 5.42133 20.536 7.512 19.416C9.64 18.2587 12.0107 17.68 14.624 17.68C16.4533 17.68 18.1333 17.9413 19.664 18.464C21.1947 18.9867 22.408 19.6773 23.304 20.536V27.256C22.8933 26.3973 22.24 25.6507 21.344 25.016C20.4853 24.344 19.496 23.8213 18.376 23.448C17.256 23.0747 16.0987 22.888 14.904 22.888C13.4107 22.888 12.048 23.2427 10.816 23.952C9.62133 24.6613 8.66933 25.632 7.96 26.864C7.25067 28.096 6.896 29.5147 6.896 31.12ZM28.869 0.319998H34.973V44H28.869V0.319998ZM47.7462 33.92C47.7462 35.7493 48.1382 37.168 48.9222 38.176C49.7062 39.184 50.9196 39.688 52.5622 39.688C53.6822 39.688 54.6716 39.4453 55.5302 38.96C56.3889 38.4747 57.0609 37.8027 57.5462 36.944C58.0316 36.0853 58.2743 35.0773 58.2743 33.92V18.24H64.3222V44H58.2743V40.024C57.4529 41.5173 56.3889 42.656 55.0822 43.44C53.8129 44.1867 52.2822 44.56 50.4902 44.56C47.6156 44.56 45.3942 43.664 43.8262 41.872C42.2956 40.08 41.5302 37.6533 41.5302 34.592V18.24H47.7462V33.92ZM76.8059 0.319998V44H70.7019V0.319998H76.8059ZM98.1419 31.12C98.1419 33.92 97.5632 36.328 96.4059 38.344C95.2485 40.36 93.7179 41.9093 91.8139 42.992C89.9099 44.0373 87.8379 44.56 85.5979 44.56C83.4699 44.56 81.5845 44.0187 79.9419 42.936C78.2992 41.8533 76.9925 40.304 76.0219 38.288C75.0885 36.272 74.6219 33.8827 74.6219 31.12C74.6219 28.32 75.0885 25.9307 76.0219 23.952C76.9925 21.936 78.2992 20.3867 79.9419 19.304C81.5845 18.2213 83.4699 17.68 85.5979 17.68C87.8379 17.68 89.9099 18.2213 91.8139 19.304C93.7179 20.3493 95.2485 21.88 96.4059 23.896C97.5632 25.8747 98.1419 28.2827 98.1419 31.12ZM91.8699 31.12C91.8699 29.4027 91.5152 27.928 90.8059 26.696C90.0965 25.464 89.1632 24.5307 88.0059 23.896C86.8485 23.2613 85.5605 22.944 84.1419 22.944C82.9472 22.944 81.7899 23.2613 80.6699 23.896C79.5499 24.5307 78.6165 25.464 77.8699 26.696C77.1605 27.8907 76.8059 29.3653 76.8059 31.12C76.8059 32.8747 77.1605 34.368 77.8699 35.6C78.6165 36.7947 79.5499 37.7093 80.6699 38.344C81.7899 38.9787 82.9472 39.296 84.1419 39.296C85.5605 39.296 86.8485 38.9787 88.0059 38.344C89.1632 37.7093 90.0965 36.776 90.8059 35.544C91.5152 34.312 91.8699 32.8373 91.8699 31.12Z" fill="url(#paint1_linear_7_4350)"/>
<path d="M6.896 31.12C6.896 32.7253 7.25067 34.144 7.96 35.376C8.66933 36.608 9.62133 37.5787 10.816 38.288C12.048 38.9973 13.4107 39.352 14.904 39.352C16.1733 39.352 17.3493 39.1653 18.432 38.792C19.552 38.3813 20.5413 37.8587 21.4 37.224C22.2587 36.552 22.8933 35.8053 23.304 34.984V41.648C22.408 42.544 21.1947 43.2533 19.664 43.776C18.1333 44.2987 16.4533 44.56 14.624 44.56C12.0107 44.56 9.64 44 7.512 42.88C5.42133 41.7227 3.76 40.136 2.528 38.12C1.296 36.0667 0.68 33.7333 0.68 31.12C0.68 28.4693 1.296 26.136 2.528 24.12C3.76 22.104 5.42133 20.536 7.512 19.416C9.64 18.2587 12.0107 17.68 14.624 17.68C16.4533 17.68 18.1333 17.9413 19.664 18.464C21.1947 18.9867 22.408 19.6773 23.304 20.536V27.256C22.8933 26.3973 22.24 25.6507 21.344 25.016C20.4853 24.344 19.496 23.8213 18.376 23.448C17.256 23.0747 16.0987 22.888 14.904 22.888C13.4107 22.888 12.048 23.2427 10.816 23.952C9.62133 24.6613 8.66933 25.632 7.96 26.864C7.25067 28.096 6.896 29.5147 6.896 31.12ZM28.869 0.319998H34.973V44H28.869V0.319998ZM47.7462 33.92C47.7462 35.7493 48.1382 37.168 48.9222 38.176C49.7062 39.184 50.9196 39.688 52.5622 39.688C53.6822 39.688 54.6716 39.4453 55.5302 38.96C56.3889 38.4747 57.0609 37.8027 57.5462 36.944C58.0316 36.0853 58.2743 35.0773 58.2743 33.92V18.24H64.3222V44H58.2743V40.024C57.4529 41.5173 56.3889 42.656 55.0822 43.44C53.8129 44.1867 52.2822 44.56 50.4902 44.56C47.6156 44.56 45.3942 43.664 43.8262 41.872C42.2956 40.08 41.5302 37.6533 41.5302 34.592V18.24H47.7462V33.92ZM76.8059 0.319998V44H70.7019V0.319998H76.8059ZM98.1419 31.12C98.1419 33.92 97.5632 36.328 96.4059 38.344C95.2485 40.36 93.7179 41.9093 91.8139 42.992C89.9099 44.0373 87.8379 44.56 85.5979 44.56C83.4699 44.56 81.5845 44.0187 79.9419 42.936C78.2992 41.8533 76.9925 40.304 76.0219 38.288C75.0885 36.272 74.6219 33.8827 74.6219 31.12C74.6219 28.32 75.0885 25.9307 76.0219 23.952C76.9925 21.936 78.2992 20.3867 79.9419 19.304C81.5845 18.2213 83.4699 17.68 85.5979 17.68C87.8379 17.68 89.9099 18.2213 91.8139 19.304C93.7179 20.3493 95.2485 21.88 96.4059 23.896C97.5632 25.8747 98.1419 28.2827 98.1419 31.12ZM91.8699 31.12C91.8699 29.4027 91.5152 27.928 90.8059 26.696C90.0965 25.464 89.1632 24.5307 88.0059 23.896C86.8485 23.2613 85.5605 22.944 84.1419 22.944C82.9472 22.944 81.7899 23.2613 80.6699 23.896C79.5499 24.5307 78.6165 25.464 77.8699 26.696C77.1605 27.8907 76.8059 29.3653 76.8059 31.12C76.8059 32.8747 77.1605 34.368 77.8699 35.6C78.6165 36.7947 79.5499 37.7093 80.6699 38.344C81.7899 38.9787 82.9472 39.296 84.1419 39.296C85.5605 39.296 86.8485 38.9787 88.0059 38.344C89.1632 37.7093 90.0965 36.776 90.8059 35.544C91.5152 34.312 91.8699 32.8373 91.8699 31.12Z" fill="url(#paint2_linear_7_4350)"/>
<path d="M6.896 31.12C6.896 32.7253 7.25067 34.144 7.96 35.376C8.66933 36.608 9.62133 37.5787 10.816 38.288C12.048 38.9973 13.4107 39.352 14.904 39.352C16.1733 39.352 17.3493 39.1653 18.432 38.792C19.552 38.3813 20.5413 37.8587 21.4 37.224C22.2587 36.552 22.8933 35.8053 23.304 34.984V41.648C22.408 42.544 21.1947 43.2533 19.664 43.776C18.1333 44.2987 16.4533 44.56 14.624 44.56C12.0107 44.56 9.64 44 7.512 42.88C5.42133 41.7227 3.76 40.136 2.528 38.12C1.296 36.0667 0.68 33.7333 0.68 31.12C0.68 28.4693 1.296 26.136 2.528 24.12C3.76 22.104 5.42133 20.536 7.512 19.416C9.64 18.2587 12.0107 17.68 14.624 17.68C16.4533 17.68 18.1333 17.9413 19.664 18.464C21.1947 18.9867 22.408 19.6773 23.304 20.536V27.256C22.8933 26.3973 22.24 25.6507 21.344 25.016C20.4853 24.344 19.496 23.8213 18.376 23.448C17.256 23.0747 16.0987 22.888 14.904 22.888C13.4107 22.888 12.048 23.2427 10.816 23.952C9.62133 24.6613 8.66933 25.632 7.96 26.864C7.25067 28.096 6.896 29.5147 6.896 31.12ZM28.869 0.319998H34.973V44H28.869V0.319998ZM47.7462 33.92C47.7462 35.7493 48.1382 37.168 48.9222 38.176C49.7062 39.184 50.9196 39.688 52.5622 39.688C53.6822 39.688 54.6716 39.4453 55.5302 38.96C56.3889 38.4747 57.0609 37.8027 57.5462 36.944C58.0316 36.0853 58.2743 35.0773 58.2743 33.92V18.24H64.3222V44H58.2743V40.024C57.4529 41.5173 56.3889 42.656 55.0822 43.44C53.8129 44.1867 52.2822 44.56 50.4902 44.56C47.6156 44.56 45.3942 43.664 43.8262 41.872C42.2956 40.08 41.5302 37.6533 41.5302 34.592V18.24H47.7462V33.92ZM76.8059 0.319998V44H70.7019V0.319998H76.8059ZM98.1419 31.12C98.1419 33.92 97.5632 36.328 96.4059 38.344C95.2485 40.36 93.7179 41.9093 91.8139 42.992C89.9099 44.0373 87.8379 44.56 85.5979 44.56C83.4699 44.56 81.5845 44.0187 79.9419 42.936C78.2992 41.8533 76.9925 40.304 76.0219 38.288C75.0885 36.272 74.6219 33.8827 74.6219 31.12C74.6219 28.32 75.0885 25.9307 76.0219 23.952C76.9925 21.936 78.2992 20.3867 79.9419 19.304C81.5845 18.2213 83.4699 17.68 85.5979 17.68C87.8379 17.68 89.9099 18.2213 91.8139 19.304C93.7179 20.3493 95.2485 21.88 96.4059 23.896C97.5632 25.8747 98.1419 28.2827 98.1419 31.12ZM91.8699 31.12C91.8699 29.4027 91.5152 27.928 90.8059 26.696C90.0965 25.464 89.1632 24.5307 88.0059 23.896C86.8485 23.2613 85.5605 22.944 84.1419 22.944C82.9472 22.944 81.7899 23.2613 80.6699 23.896C79.5499 24.5307 78.6165 25.464 77.8699 26.696C77.1605 27.8907 76.8059 29.3653 76.8059 31.12C76.8059 32.8747 77.1605 34.368 77.8699 35.6C78.6165 36.7947 79.5499 37.7093 80.6699 38.344C81.7899 38.9787 82.9472 39.296 84.1419 39.296C85.5605 39.296 86.8485 38.9787 88.0059 38.344C89.1632 37.7093 90.0965 36.776 90.8059 35.544C91.5152 34.312 91.8699 32.8373 91.8699 31.12Z" fill="url(#paint3_linear_7_4350)" fill-opacity="0.1"/>
<path d="M6.896 31.12C6.896 32.7253 7.25067 34.144 7.96 35.376C8.66933 36.608 9.62133 37.5787 10.816 38.288C12.048 38.9973 13.4107 39.352 14.904 39.352C16.1733 39.352 17.3493 39.1653 18.432 38.792C19.552 38.3813 20.5413 37.8587 21.4 37.224C22.2587 36.552 22.8933 35.8053 23.304 34.984V41.648C22.408 42.544 21.1947 43.2533 19.664 43.776C18.1333 44.2987 16.4533 44.56 14.624 44.56C12.0107 44.56 9.64 44 7.512 42.88C5.42133 41.7227 3.76 40.136 2.528 38.12C1.296 36.0667 0.68 33.7333 0.68 31.12C0.68 28.4693 1.296 26.136 2.528 24.12C3.76 22.104 5.42133 20.536 7.512 19.416C9.64 18.2587 12.0107 17.68 14.624 17.68C16.4533 17.68 18.1333 17.9413 19.664 18.464C21.1947 18.9867 22.408 19.6773 23.304 20.536V27.256C22.8933 26.3973 22.24 25.6507 21.344 25.016C20.4853 24.344 19.496 23.8213 18.376 23.448C17.256 23.0747 16.0987 22.888 14.904 22.888C13.4107 22.888 12.048 23.2427 10.816 23.952C9.62133 24.6613 8.66933 25.632 7.96 26.864C7.25067 28.096 6.896 29.5147 6.896 31.12ZM28.869 0.319998H34.973V44H28.869V0.319998ZM47.7462 33.92C47.7462 35.7493 48.1382 37.168 48.9222 38.176C49.7062 39.184 50.9196 39.688 52.5622 39.688C53.6822 39.688 54.6716 39.4453 55.5302 38.96C56.3889 38.4747 57.0609 37.8027 57.5462 36.944C58.0316 36.0853 58.2743 35.0773 58.2743 33.92V18.24H64.3222V44H58.2743V40.024C57.4529 41.5173 56.3889 42.656 55.0822 43.44C53.8129 44.1867 52.2822 44.56 50.4902 44.56C47.6156 44.56 45.3942 43.664 43.8262 41.872C42.2956 40.08 41.5302 37.6533 41.5302 34.592V18.24H47.7462V33.92ZM76.8059 0.319998V44H70.7019V0.319998H76.8059ZM98.1419 31.12C98.1419 33.92 97.5632 36.328 96.4059 38.344C95.2485 40.36 93.7179 41.9093 91.8139 42.992C89.9099 44.0373 87.8379 44.56 85.5979 44.56C83.4699 44.56 81.5845 44.0187 79.9419 42.936C78.2992 41.8533 76.9925 40.304 76.0219 38.288C75.0885 36.272 74.6219 33.8827 74.6219 31.12C74.6219 28.32 75.0885 25.9307 76.0219 23.952C76.9925 21.936 78.2992 20.3867 79.9419 19.304C81.5845 18.2213 83.4699 17.68 85.5979 17.68C87.8379 17.68 89.9099 18.2213 91.8139 19.304C93.7179 20.3493 95.2485 21.88 96.4059 23.896C97.5632 25.8747 98.1419 28.2827 98.1419 31.12ZM91.8699 31.12C91.8699 29.4027 91.5152 27.928 90.8059 26.696C90.0965 25.464 89.1632 24.5307 88.0059 23.896C86.8485 23.2613 85.5605 22.944 84.1419 22.944C82.9472 22.944 81.7899 23.2613 80.6699 23.896C79.5499 24.5307 78.6165 25.464 77.8699 26.696C77.1605 27.8907 76.8059 29.3653 76.8059 31.12C76.8059 32.8747 77.1605 34.368 77.8699 35.6C78.6165 36.7947 79.5499 37.7093 80.6699 38.344C81.7899 38.9787 82.9472 39.296 84.1419 39.296C85.5605 39.296 86.8485 38.9787 88.0059 38.344C89.1632 37.7093 90.0965 36.776 90.8059 35.544C91.5152 34.312 91.8699 32.8373 91.8699 31.12Z" fill="url(#paint4_linear_7_4350)" fill-opacity="0.1"/>
<defs>
<linearGradient id="paint0_linear_7_4350" x1="49.894" y1="8.19417" x2="110.022" y2="35.5893" gradientUnits="userSpaceOnUse">
<stop stop-color="#FF0069"/>
<stop offset="1" stop-color="#D300C5"/>
</linearGradient>
<linearGradient id="paint1_linear_7_4350" x1="39.1349" y1="-6" x2="79.5908" y2="20.1679" gradientUnits="userSpaceOnUse">
<stop stop-color="#FF7A00"/>
<stop offset="0.504623" stop-color="#FD1D1D"/>
<stop offset="1" stop-color="#FF0069"/>
</linearGradient>
<linearGradient id="paint2_linear_7_4350" x1="70.5515" y1="87.149" x2="22.8568" y2="47.9773" gradientUnits="userSpaceOnUse">
<stop stop-color="#EF00B4"/>
<stop offset="1" stop-color="#FF0069" stop-opacity="0"/>
</linearGradient>
<linearGradient id="paint3_linear_7_4350" x1="91.209" y1="60.535" x2="87.5691" y2="14.6244" gradientUnits="userSpaceOnUse">
<stop stop-color="white"/>
<stop offset="1" stop-color="white" stop-opacity="0"/>
</linearGradient>
<linearGradient id="paint4_linear_7_4350" x1="2.98424" y1="-6.00001" x2="22.219" y2="11.6255" gradientUnits="userSpaceOnUse">
<stop stop-color="white"/>
<stop offset="1" stop-color="white" stop-opacity="0"/>
</linearGradient>
</defs>
</svg>
