<svg width="278" height="62" viewBox="0 0 278 62" fill="none" xmlns="http://www.w3.org/2000/svg">
<path d="M3.64 6.32H9.576V50H3.64V6.32ZM19.04 24.24H26.432L15.344 34.88L27.552 50H20.216L7.896 34.88L19.04 24.24ZM34.2786 41.992C34.2786 42.8507 34.4839 43.5973 34.8946 44.232C35.3052 44.8293 35.8652 45.2773 36.5746 45.576C37.3212 45.8747 38.1612 46.024 39.0946 46.024C40.2892 46.024 41.3719 45.7813 42.3426 45.296C43.3506 44.8107 44.1532 44.1013 44.7506 43.168C45.3852 42.1973 45.7026 41.0773 45.7026 39.808L46.5986 43.168C46.5986 44.8107 46.1132 46.192 45.1426 47.312C44.2092 48.3947 43.0146 49.216 41.5586 49.776C40.1399 50.2987 38.6839 50.56 37.1906 50.56C35.5852 50.56 34.0919 50.2427 32.7106 49.608C31.3292 48.9733 30.2279 48.04 29.4066 46.808C28.5852 45.576 28.1746 44.0827 28.1746 42.328C28.1746 39.8267 29.0519 37.848 30.8066 36.392C32.5612 34.8987 35.0439 34.152 38.2546 34.152C39.9719 34.152 41.4466 34.3387 42.6786 34.712C43.9479 35.0853 44.9932 35.5333 45.8146 36.056C46.6359 36.5413 47.2146 36.9893 47.5506 37.4V40.48C46.3932 39.6587 45.1612 39.0613 43.8546 38.688C42.5479 38.3147 41.1666 38.128 39.7106 38.128C38.4412 38.128 37.4146 38.296 36.6306 38.632C35.8466 38.9307 35.2492 39.36 34.8386 39.92C34.4652 40.48 34.2786 41.1707 34.2786 41.992ZM32.3746 30.96L29.9106 26.704C31.0679 25.9947 32.5612 25.304 34.3906 24.632C36.2572 23.96 38.3852 23.624 40.7746 23.624C42.9026 23.624 44.7692 23.9413 46.3746 24.576C48.0172 25.2107 49.3052 26.1253 50.2386 27.32C51.1719 28.4773 51.6386 29.9147 51.6386 31.632V50H45.7026V32.808C45.7026 31.9867 45.5532 31.3147 45.2546 30.792C44.9932 30.2693 44.6199 29.84 44.1346 29.504C43.6492 29.168 43.0706 28.9253 42.3986 28.776C41.7266 28.6267 40.9986 28.552 40.2146 28.552C39.0199 28.552 37.8812 28.7013 36.7986 29C35.7532 29.2613 34.8386 29.5973 34.0546 30.008C33.3079 30.3813 32.7479 30.6987 32.3746 30.96ZM53.9853 24.24H68.6013V29.56H53.9853V24.24ZM58.2973 15.28H64.2893V50H58.2973V15.28ZM71.4284 13.992C71.4284 12.9467 71.8018 12.0693 72.5484 11.36C73.3324 10.6507 74.2284 10.296 75.2364 10.296C76.3191 10.296 77.2151 10.6507 77.9244 11.36C78.6711 12.0693 79.0444 12.9467 79.0444 13.992C79.0444 15 78.6711 15.8773 77.9244 16.624C77.2151 17.3333 76.3191 17.688 75.2364 17.688C74.2284 17.688 73.3324 17.3333 72.5484 16.624C71.8018 15.8773 71.4284 15 71.4284 13.992ZM72.2684 24.24H78.2044V50H72.2684V24.24ZM86.5834 41.544C87.4048 42.44 88.2261 43.224 89.0474 43.896C89.9061 44.5307 90.7648 45.016 91.6234 45.352C92.4821 45.6507 93.3408 45.8 94.1994 45.8C95.2821 45.8 96.1221 45.5573 96.7194 45.072C97.3541 44.5867 97.6714 43.9147 97.6714 43.056C97.6714 42.3093 97.4288 41.6747 96.9434 41.152C96.4581 40.592 95.7861 40.1253 94.9274 39.752C94.0688 39.3413 93.0608 38.9307 91.9034 38.52C90.7461 38.072 89.5888 37.5493 88.4314 36.952C87.3114 36.3173 86.3781 35.496 85.6314 34.488C84.9221 33.48 84.5674 32.2107 84.5674 30.68C84.5674 29.112 84.9594 27.8053 85.7434 26.76C86.5648 25.7147 87.6474 24.9493 88.9914 24.464C90.3728 23.9413 91.8474 23.68 93.4154 23.68C94.8341 23.68 96.1594 23.8853 97.3914 24.296C98.6608 24.7067 99.7994 25.248 100.807 25.92C101.815 26.592 102.674 27.3573 103.383 28.216L100.023 31.8C99.1648 30.792 98.1381 29.9707 96.9434 29.336C95.7488 28.7013 94.5168 28.384 93.2474 28.384C92.3888 28.384 91.6794 28.5707 91.1194 28.944C90.5594 29.3173 90.2794 29.8587 90.2794 30.568C90.2794 31.1653 90.5221 31.7067 91.0074 32.192C91.5301 32.64 92.2021 33.0507 93.0234 33.424C93.8821 33.7973 94.8341 34.1893 95.8794 34.6C97.2981 35.16 98.6048 35.776 99.7994 36.448C100.994 37.12 101.946 37.9413 102.655 38.912C103.402 39.8827 103.775 41.152 103.775 42.72C103.775 45.1467 102.935 47.1067 101.255 48.6C99.6128 50.056 97.3728 50.784 94.5354 50.784C92.7808 50.784 91.1568 50.5227 89.6634 50C88.2074 49.44 86.9194 48.7307 85.7994 47.872C84.7168 46.976 83.8021 46.0427 83.0554 45.072L86.5834 41.544ZM114.07 6.32V50H108.022V6.32H114.07ZM124.598 34.32C124.598 32.416 124.206 30.9787 123.422 30.008C122.675 29.0373 121.462 28.552 119.782 28.552C118.662 28.552 117.672 28.7947 116.814 29.28C115.955 29.7653 115.283 30.4373 114.798 31.296C114.312 32.1547 114.07 33.1627 114.07 34.32H112.614C112.614 32.2667 112.987 30.4373 113.734 28.832C114.48 27.2267 115.526 25.9387 116.87 24.968C118.251 23.9973 119.912 23.512 121.854 23.512C123.758 23.512 125.363 23.8853 126.67 24.632C128.014 25.3787 129.022 26.4987 129.694 27.992C130.366 29.448 130.702 31.2773 130.702 33.48V50H124.598V34.32ZM141.061 41.992C141.061 42.8507 141.267 43.5973 141.677 44.232C142.088 44.8293 142.648 45.2773 143.357 45.576C144.104 45.8747 144.944 46.024 145.877 46.024C147.072 46.024 148.155 45.7813 149.125 45.296C150.133 44.8107 150.936 44.1013 151.533 43.168C152.168 42.1973 152.485 41.0773 152.485 39.808L153.381 43.168C153.381 44.8107 152.896 46.192 151.925 47.312C150.992 48.3947 149.797 49.216 148.341 49.776C146.923 50.2987 145.467 50.56 143.973 50.56C142.368 50.56 140.875 50.2427 139.493 49.608C138.112 48.9733 137.011 48.04 136.189 46.808C135.368 45.576 134.957 44.0827 134.957 42.328C134.957 39.8267 135.835 37.848 137.589 36.392C139.344 34.8987 141.827 34.152 145.037 34.152C146.755 34.152 148.229 34.3387 149.461 34.712C150.731 35.0853 151.776 35.5333 152.597 36.056C153.419 36.5413 153.997 36.9893 154.333 37.4V40.48C153.176 39.6587 151.944 39.0613 150.637 38.688C149.331 38.3147 147.949 38.128 146.493 38.128C145.224 38.128 144.197 38.296 143.413 38.632C142.629 38.9307 142.032 39.36 141.621 39.92C141.248 40.48 141.061 41.1707 141.061 41.992ZM139.157 30.96L136.693 26.704C137.851 25.9947 139.344 25.304 141.173 24.632C143.04 23.96 145.168 23.624 147.557 23.624C149.685 23.624 151.552 23.9413 153.157 24.576C154.8 25.2107 156.088 26.1253 157.021 27.32C157.955 28.4773 158.421 29.9147 158.421 31.632V50H152.485V32.808C152.485 31.9867 152.336 31.3147 152.037 30.792C151.776 30.2693 151.403 29.84 150.917 29.504C150.432 29.168 149.853 28.9253 149.181 28.776C148.509 28.6267 147.781 28.552 146.997 28.552C145.803 28.552 144.664 28.7013 143.581 29C142.536 29.2613 141.621 29.5973 140.837 30.008C140.091 30.3813 139.531 30.6987 139.157 30.96Z" fill="#060606"/>
<path d="M183.896 37.12C183.896 38.7253 184.251 40.144 184.96 41.376C185.669 42.608 186.621 43.5787 187.816 44.288C189.048 44.9973 190.411 45.352 191.904 45.352C193.173 45.352 194.349 45.1653 195.432 44.792C196.552 44.3813 197.541 43.8587 198.4 43.224C199.259 42.552 199.893 41.8053 200.304 40.984V47.648C199.408 48.544 198.195 49.2533 196.664 49.776C195.133 50.2987 193.453 50.56 191.624 50.56C189.011 50.56 186.64 50 184.512 48.88C182.421 47.7227 180.76 46.136 179.528 44.12C178.296 42.0667 177.68 39.7333 177.68 37.12C177.68 34.4693 178.296 32.136 179.528 30.12C180.76 28.104 182.421 26.536 184.512 25.416C186.64 24.2587 189.011 23.68 191.624 23.68C193.453 23.68 195.133 23.9413 196.664 24.464C198.195 24.9867 199.408 25.6773 200.304 26.536V33.256C199.893 32.3973 199.24 31.6507 198.344 31.016C197.485 30.344 196.496 29.8213 195.376 29.448C194.256 29.0747 193.099 28.888 191.904 28.888C190.411 28.888 189.048 29.2427 187.816 29.952C186.621 30.6613 185.669 31.632 184.96 32.864C184.251 34.096 183.896 35.5147 183.896 37.12ZM205.869 6.32H211.973V50H205.869V6.32ZM224.746 39.92C224.746 41.7493 225.138 43.168 225.922 44.176C226.706 45.184 227.92 45.688 229.562 45.688C230.682 45.688 231.672 45.4453 232.53 44.96C233.389 44.4747 234.061 43.8027 234.546 42.944C235.032 42.0853 235.274 41.0773 235.274 39.92V24.24H241.322V50H235.274V46.024C234.453 47.5173 233.389 48.656 232.082 49.44C230.813 50.1867 229.282 50.56 227.49 50.56C224.616 50.56 222.394 49.664 220.826 47.872C219.296 46.08 218.53 43.6533 218.53 40.592V24.24H224.746V39.92ZM253.806 6.32V50H247.702V6.32H253.806ZM275.142 37.12C275.142 39.92 274.563 42.328 273.406 44.344C272.249 46.36 270.718 47.9093 268.814 48.992C266.91 50.0373 264.838 50.56 262.598 50.56C260.47 50.56 258.585 50.0187 256.942 48.936C255.299 47.8533 253.993 46.304 253.022 44.288C252.089 42.272 251.622 39.8827 251.622 37.12C251.622 34.32 252.089 31.9307 253.022 29.952C253.993 27.936 255.299 26.3867 256.942 25.304C258.585 24.2213 260.47 23.68 262.598 23.68C264.838 23.68 266.91 24.2213 268.814 25.304C270.718 26.3493 272.249 27.88 273.406 29.896C274.563 31.8747 275.142 34.2827 275.142 37.12ZM268.87 37.12C268.87 35.4027 268.515 33.928 267.806 32.696C267.097 31.464 266.163 30.5307 265.006 29.896C263.849 29.2613 262.561 28.944 261.142 28.944C259.947 28.944 258.79 29.2613 257.67 29.896C256.55 30.5307 255.617 31.464 254.87 32.696C254.161 33.8907 253.806 35.3653 253.806 37.12C253.806 38.8747 254.161 40.368 254.87 41.6C255.617 42.7947 256.55 43.7093 257.67 44.344C258.79 44.9787 259.947 45.296 261.142 45.296C262.561 45.296 263.849 44.9787 265.006 44.344C266.163 43.7093 267.097 42.776 267.806 41.544C268.515 40.312 268.87 38.8373 268.87 37.12Z" fill="url(#paint0_linear_7_4348)"/>
<path d="M183.896 37.12C183.896 38.7253 184.251 40.144 184.96 41.376C185.669 42.608 186.621 43.5787 187.816 44.288C189.048 44.9973 190.411 45.352 191.904 45.352C193.173 45.352 194.349 45.1653 195.432 44.792C196.552 44.3813 197.541 43.8587 198.4 43.224C199.259 42.552 199.893 41.8053 200.304 40.984V47.648C199.408 48.544 198.195 49.2533 196.664 49.776C195.133 50.2987 193.453 50.56 191.624 50.56C189.011 50.56 186.64 50 184.512 48.88C182.421 47.7227 180.76 46.136 179.528 44.12C178.296 42.0667 177.68 39.7333 177.68 37.12C177.68 34.4693 178.296 32.136 179.528 30.12C180.76 28.104 182.421 26.536 184.512 25.416C186.64 24.2587 189.011 23.68 191.624 23.68C193.453 23.68 195.133 23.9413 196.664 24.464C198.195 24.9867 199.408 25.6773 200.304 26.536V33.256C199.893 32.3973 199.24 31.6507 198.344 31.016C197.485 30.344 196.496 29.8213 195.376 29.448C194.256 29.0747 193.099 28.888 191.904 28.888C190.411 28.888 189.048 29.2427 187.816 29.952C186.621 30.6613 185.669 31.632 184.96 32.864C184.251 34.096 183.896 35.5147 183.896 37.12ZM205.869 6.32H211.973V50H205.869V6.32ZM224.746 39.92C224.746 41.7493 225.138 43.168 225.922 44.176C226.706 45.184 227.92 45.688 229.562 45.688C230.682 45.688 231.672 45.4453 232.53 44.96C233.389 44.4747 234.061 43.8027 234.546 42.944C235.032 42.0853 235.274 41.0773 235.274 39.92V24.24H241.322V50H235.274V46.024C234.453 47.5173 233.389 48.656 232.082 49.44C230.813 50.1867 229.282 50.56 227.49 50.56C224.616 50.56 222.394 49.664 220.826 47.872C219.296 46.08 218.53 43.6533 218.53 40.592V24.24H224.746V39.92ZM253.806 6.32V50H247.702V6.32H253.806ZM275.142 37.12C275.142 39.92 274.563 42.328 273.406 44.344C272.249 46.36 270.718 47.9093 268.814 48.992C266.91 50.0373 264.838 50.56 262.598 50.56C260.47 50.56 258.585 50.0187 256.942 48.936C255.299 47.8533 253.993 46.304 253.022 44.288C252.089 42.272 251.622 39.8827 251.622 37.12C251.622 34.32 252.089 31.9307 253.022 29.952C253.993 27.936 255.299 26.3867 256.942 25.304C258.585 24.2213 260.47 23.68 262.598 23.68C264.838 23.68 266.91 24.2213 268.814 25.304C270.718 26.3493 272.249 27.88 273.406 29.896C274.563 31.8747 275.142 34.2827 275.142 37.12ZM268.87 37.12C268.87 35.4027 268.515 33.928 267.806 32.696C267.097 31.464 266.163 30.5307 265.006 29.896C263.849 29.2613 262.561 28.944 261.142 28.944C259.947 28.944 258.79 29.2613 257.67 29.896C256.55 30.5307 255.617 31.464 254.87 32.696C254.161 33.8907 253.806 35.3653 253.806 37.12C253.806 38.8747 254.161 40.368 254.87 41.6C255.617 42.7947 256.55 43.7093 257.67 44.344C258.79 44.9787 259.947 45.296 261.142 45.296C262.561 45.296 263.849 44.9787 265.006 44.344C266.163 43.7093 267.097 42.776 267.806 41.544C268.515 40.312 268.87 38.8373 268.87 37.12Z" fill="url(#paint1_linear_7_4348)"/>
<path d="M183.896 37.12C183.896 38.7253 184.251 40.144 184.96 41.376C185.669 42.608 186.621 43.5787 187.816 44.288C189.048 44.9973 190.411 45.352 191.904 45.352C193.173 45.352 194.349 45.1653 195.432 44.792C196.552 44.3813 197.541 43.8587 198.4 43.224C199.259 42.552 199.893 41.8053 200.304 40.984V47.648C199.408 48.544 198.195 49.2533 196.664 49.776C195.133 50.2987 193.453 50.56 191.624 50.56C189.011 50.56 186.64 50 184.512 48.88C182.421 47.7227 180.76 46.136 179.528 44.12C178.296 42.0667 177.68 39.7333 177.68 37.12C177.68 34.4693 178.296 32.136 179.528 30.12C180.76 28.104 182.421 26.536 184.512 25.416C186.64 24.2587 189.011 23.68 191.624 23.68C193.453 23.68 195.133 23.9413 196.664 24.464C198.195 24.9867 199.408 25.6773 200.304 26.536V33.256C199.893 32.3973 199.24 31.6507 198.344 31.016C197.485 30.344 196.496 29.8213 195.376 29.448C194.256 29.0747 193.099 28.888 191.904 28.888C190.411 28.888 189.048 29.2427 187.816 29.952C186.621 30.6613 185.669 31.632 184.96 32.864C184.251 34.096 183.896 35.5147 183.896 37.12ZM205.869 6.32H211.973V50H205.869V6.32ZM224.746 39.92C224.746 41.7493 225.138 43.168 225.922 44.176C226.706 45.184 227.92 45.688 229.562 45.688C230.682 45.688 231.672 45.4453 232.53 44.96C233.389 44.4747 234.061 43.8027 234.546 42.944C235.032 42.0853 235.274 41.0773 235.274 39.92V24.24H241.322V50H235.274V46.024C234.453 47.5173 233.389 48.656 232.082 49.44C230.813 50.1867 229.282 50.56 227.49 50.56C224.616 50.56 222.394 49.664 220.826 47.872C219.296 46.08 218.53 43.6533 218.53 40.592V24.24H224.746V39.92ZM253.806 6.32V50H247.702V6.32H253.806ZM275.142 37.12C275.142 39.92 274.563 42.328 273.406 44.344C272.249 46.36 270.718 47.9093 268.814 48.992C266.91 50.0373 264.838 50.56 262.598 50.56C260.47 50.56 258.585 50.0187 256.942 48.936C255.299 47.8533 253.993 46.304 253.022 44.288C252.089 42.272 251.622 39.8827 251.622 37.12C251.622 34.32 252.089 31.9307 253.022 29.952C253.993 27.936 255.299 26.3867 256.942 25.304C258.585 24.2213 260.47 23.68 262.598 23.68C264.838 23.68 266.91 24.2213 268.814 25.304C270.718 26.3493 272.249 27.88 273.406 29.896C274.563 31.8747 275.142 34.2827 275.142 37.12ZM268.87 37.12C268.87 35.4027 268.515 33.928 267.806 32.696C267.097 31.464 266.163 30.5307 265.006 29.896C263.849 29.2613 262.561 28.944 261.142 28.944C259.947 28.944 258.79 29.2613 257.67 29.896C256.55 30.5307 255.617 31.464 254.87 32.696C254.161 33.8907 253.806 35.3653 253.806 37.12C253.806 38.8747 254.161 40.368 254.87 41.6C255.617 42.7947 256.55 43.7093 257.67 44.344C258.79 44.9787 259.947 45.296 261.142 45.296C262.561 45.296 263.849 44.9787 265.006 44.344C266.163 43.7093 267.097 42.776 267.806 41.544C268.515 40.312 268.87 38.8373 268.87 37.12Z" fill="url(#paint2_linear_7_4348)"/>
<path d="M183.896 37.12C183.896 38.7253 184.251 40.144 184.96 41.376C185.669 42.608 186.621 43.5787 187.816 44.288C189.048 44.9973 190.411 45.352 191.904 45.352C193.173 45.352 194.349 45.1653 195.432 44.792C196.552 44.3813 197.541 43.8587 198.4 43.224C199.259 42.552 199.893 41.8053 200.304 40.984V47.648C199.408 48.544 198.195 49.2533 196.664 49.776C195.133 50.2987 193.453 50.56 191.624 50.56C189.011 50.56 186.64 50 184.512 48.88C182.421 47.7227 180.76 46.136 179.528 44.12C178.296 42.0667 177.68 39.7333 177.68 37.12C177.68 34.4693 178.296 32.136 179.528 30.12C180.76 28.104 182.421 26.536 184.512 25.416C186.64 24.2587 189.011 23.68 191.624 23.68C193.453 23.68 195.133 23.9413 196.664 24.464C198.195 24.9867 199.408 25.6773 200.304 26.536V33.256C199.893 32.3973 199.24 31.6507 198.344 31.016C197.485 30.344 196.496 29.8213 195.376 29.448C194.256 29.0747 193.099 28.888 191.904 28.888C190.411 28.888 189.048 29.2427 187.816 29.952C186.621 30.6613 185.669 31.632 184.96 32.864C184.251 34.096 183.896 35.5147 183.896 37.12ZM205.869 6.32H211.973V50H205.869V6.32ZM224.746 39.92C224.746 41.7493 225.138 43.168 225.922 44.176C226.706 45.184 227.92 45.688 229.562 45.688C230.682 45.688 231.672 45.4453 232.53 44.96C233.389 44.4747 234.061 43.8027 234.546 42.944C235.032 42.0853 235.274 41.0773 235.274 39.92V24.24H241.322V50H235.274V46.024C234.453 47.5173 233.389 48.656 232.082 49.44C230.813 50.1867 229.282 50.56 227.49 50.56C224.616 50.56 222.394 49.664 220.826 47.872C219.296 46.08 218.53 43.6533 218.53 40.592V24.24H224.746V39.92ZM253.806 6.32V50H247.702V6.32H253.806ZM275.142 37.12C275.142 39.92 274.563 42.328 273.406 44.344C272.249 46.36 270.718 47.9093 268.814 48.992C266.91 50.0373 264.838 50.56 262.598 50.56C260.47 50.56 258.585 50.0187 256.942 48.936C255.299 47.8533 253.993 46.304 253.022 44.288C252.089 42.272 251.622 39.8827 251.622 37.12C251.622 34.32 252.089 31.9307 253.022 29.952C253.993 27.936 255.299 26.3867 256.942 25.304C258.585 24.2213 260.47 23.68 262.598 23.68C264.838 23.68 266.91 24.2213 268.814 25.304C270.718 26.3493 272.249 27.88 273.406 29.896C274.563 31.8747 275.142 34.2827 275.142 37.12ZM268.87 37.12C268.87 35.4027 268.515 33.928 267.806 32.696C267.097 31.464 266.163 30.5307 265.006 29.896C263.849 29.2613 262.561 28.944 261.142 28.944C259.947 28.944 258.79 29.2613 257.67 29.896C256.55 30.5307 255.617 31.464 254.87 32.696C254.161 33.8907 253.806 35.3653 253.806 37.12C253.806 38.8747 254.161 40.368 254.87 41.6C255.617 42.7947 256.55 43.7093 257.67 44.344C258.79 44.9787 259.947 45.296 261.142 45.296C262.561 45.296 263.849 44.9787 265.006 44.344C266.163 43.7093 267.097 42.776 267.806 41.544C268.515 40.312 268.87 38.8373 268.87 37.12Z" fill="url(#paint3_linear_7_4348)" fill-opacity="0.1"/>
<path d="M183.896 37.12C183.896 38.7253 184.251 40.144 184.96 41.376C185.669 42.608 186.621 43.5787 187.816 44.288C189.048 44.9973 190.411 45.352 191.904 45.352C193.173 45.352 194.349 45.1653 195.432 44.792C196.552 44.3813 197.541 43.8587 198.4 43.224C199.259 42.552 199.893 41.8053 200.304 40.984V47.648C199.408 48.544 198.195 49.2533 196.664 49.776C195.133 50.2987 193.453 50.56 191.624 50.56C189.011 50.56 186.64 50 184.512 48.88C182.421 47.7227 180.76 46.136 179.528 44.12C178.296 42.0667 177.68 39.7333 177.68 37.12C177.68 34.4693 178.296 32.136 179.528 30.12C180.76 28.104 182.421 26.536 184.512 25.416C186.64 24.2587 189.011 23.68 191.624 23.68C193.453 23.68 195.133 23.9413 196.664 24.464C198.195 24.9867 199.408 25.6773 200.304 26.536V33.256C199.893 32.3973 199.24 31.6507 198.344 31.016C197.485 30.344 196.496 29.8213 195.376 29.448C194.256 29.0747 193.099 28.888 191.904 28.888C190.411 28.888 189.048 29.2427 187.816 29.952C186.621 30.6613 185.669 31.632 184.96 32.864C184.251 34.096 183.896 35.5147 183.896 37.12ZM205.869 6.32H211.973V50H205.869V6.32ZM224.746 39.92C224.746 41.7493 225.138 43.168 225.922 44.176C226.706 45.184 227.92 45.688 229.562 45.688C230.682 45.688 231.672 45.4453 232.53 44.96C233.389 44.4747 234.061 43.8027 234.546 42.944C235.032 42.0853 235.274 41.0773 235.274 39.92V24.24H241.322V50H235.274V46.024C234.453 47.5173 233.389 48.656 232.082 49.44C230.813 50.1867 229.282 50.56 227.49 50.56C224.616 50.56 222.394 49.664 220.826 47.872C219.296 46.08 218.53 43.6533 218.53 40.592V24.24H224.746V39.92ZM253.806 6.32V50H247.702V6.32H253.806ZM275.142 37.12C275.142 39.92 274.563 42.328 273.406 44.344C272.249 46.36 270.718 47.9093 268.814 48.992C266.91 50.0373 264.838 50.56 262.598 50.56C260.47 50.56 258.585 50.0187 256.942 48.936C255.299 47.8533 253.993 46.304 253.022 44.288C252.089 42.272 251.622 39.8827 251.622 37.12C251.622 34.32 252.089 31.9307 253.022 29.952C253.993 27.936 255.299 26.3867 256.942 25.304C258.585 24.2213 260.47 23.68 262.598 23.68C264.838 23.68 266.91 24.2213 268.814 25.304C270.718 26.3493 272.249 27.88 273.406 29.896C274.563 31.8747 275.142 34.2827 275.142 37.12ZM268.87 37.12C268.87 35.4027 268.515 33.928 267.806 32.696C267.097 31.464 266.163 30.5307 265.006 29.896C263.849 29.2613 262.561 28.944 261.142 28.944C259.947 28.944 258.79 29.2613 257.67 29.896C256.55 30.5307 255.617 31.464 254.87 32.696C254.161 33.8907 253.806 35.3653 253.806 37.12C253.806 38.8747 254.161 40.368 254.87 41.6C255.617 42.7947 256.55 43.7093 257.67 44.344C258.79 44.9787 259.947 45.296 261.142 45.296C262.561 45.296 263.849 44.9787 265.006 44.344C266.163 43.7093 267.097 42.776 267.806 41.544C268.515 40.312 268.87 38.8373 268.87 37.12Z" fill="url(#paint4_linear_7_4348)" fill-opacity="0.1"/>
<defs>
<linearGradient id="paint0_linear_7_4348" x1="226.894" y1="14.1942" x2="287.022" y2="41.5893" gradientUnits="userSpaceOnUse">
<stop stop-color="#FF0069"/>
<stop offset="1" stop-color="#D300C5"/>
</linearGradient>
<linearGradient id="paint1_linear_7_4348" x1="216.135" y1="7.88542e-07" x2="256.591" y2="26.1679" gradientUnits="userSpaceOnUse">
<stop stop-color="#FF7A00"/>
<stop offset="0.504623" stop-color="#FD1D1D"/>
<stop offset="1" stop-color="#FF0069"/>
</linearGradient>
<linearGradient id="paint2_linear_7_4348" x1="247.552" y1="93.149" x2="199.857" y2="53.9773" gradientUnits="userSpaceOnUse">
<stop stop-color="#EF00B4"/>
<stop offset="1" stop-color="#FF0069" stop-opacity="0"/>
</linearGradient>
<linearGradient id="paint3_linear_7_4348" x1="268.209" y1="66.535" x2="264.569" y2="20.6244" gradientUnits="userSpaceOnUse">
<stop stop-color="white"/>
<stop offset="1" stop-color="white" stop-opacity="0"/>
</linearGradient>
<linearGradient id="paint4_linear_7_4348" x1="179.984" y1="-6.88574e-06" x2="199.219" y2="17.6255" gradientUnits="userSpaceOnUse">
<stop stop-color="white"/>
<stop offset="1" stop-color="white" stop-opacity="0"/>
</linearGradient>
</defs>
</svg>
