<svg width="156" height="45" viewBox="0 0 156 45" fill="none" xmlns="http://www.w3.org/2000/svg">
<path d="M0.64 0.319998H6.576V44H0.64V0.319998ZM16.04 18.24H23.488L12.344 28.88L24.608 44H17.216L4.952 28.88L16.04 18.24ZM31.2786 35.992C31.2786 36.8507 31.4839 37.5973 31.8946 38.232C32.3052 38.8293 32.8652 39.2773 33.5746 39.576C34.3212 39.8747 35.1612 40.024 36.0946 40.024C37.3266 40.024 38.4279 39.7813 39.3986 39.296C40.4066 38.7733 41.2092 38.0453 41.8066 37.112C42.4039 36.1787 42.7026 35.0587 42.7026 33.752L43.5986 37.112C43.5986 38.7547 43.1132 40.136 42.1426 41.256C41.2092 42.376 40.0146 43.216 38.5586 43.776C37.1399 44.2987 35.6839 44.56 34.1906 44.56C32.5852 44.56 31.0919 44.2427 29.7106 43.608C28.3292 42.9733 27.2279 42.04 26.4066 40.808C25.5852 39.576 25.1746 38.0827 25.1746 36.328C25.1746 33.8267 26.0519 31.848 27.8066 30.392C29.5612 28.8987 32.0439 28.152 35.2546 28.152C36.9719 28.152 38.4466 28.3387 39.6786 28.712C40.9479 29.0853 41.9932 29.5333 42.8146 30.056C43.6359 30.5413 44.2146 30.9893 44.5506 31.4V34.48C43.3932 33.6587 42.1612 33.0613 40.8546 32.688C39.5479 32.3147 38.1666 32.128 36.7106 32.128C35.4412 32.128 34.4146 32.296 33.6306 32.632C32.8466 32.9307 32.2492 33.36 31.8386 33.92C31.4652 34.48 31.2786 35.1707 31.2786 35.992ZM29.3746 24.96L26.9106 20.704C28.1052 19.9947 29.6172 19.304 31.4466 18.632C33.2759 17.96 35.4039 17.624 37.8306 17.624C39.9212 17.624 41.7879 17.9413 43.4306 18.576C45.0732 19.1733 46.3426 20.0693 47.2386 21.264C48.1719 22.4587 48.6386 23.9147 48.6386 25.632V44H42.7026V26.808C42.7026 25.9867 42.5719 25.3147 42.3106 24.792C42.0492 24.2693 41.6572 23.84 41.1346 23.504C40.6492 23.168 40.0706 22.9253 39.3986 22.776C38.7266 22.6267 37.9986 22.552 37.2146 22.552C36.0199 22.552 34.8812 22.7013 33.7986 23C32.7532 23.2613 31.8572 23.5973 31.1106 24.008C30.3639 24.3813 29.7852 24.6987 29.3746 24.96ZM50.9853 18.24H65.6013V23.56H50.9853V18.24ZM55.3533 9.28H61.2893V44H55.3533V9.28ZM68.4284 7.992C68.4284 6.94667 68.8018 6.06933 69.5484 5.36C70.3324 4.65066 71.2284 4.296 72.2364 4.296C73.3191 4.296 74.2338 4.65066 74.9804 5.36C75.7271 6.06933 76.1004 6.94667 76.1004 7.992C76.1004 9 75.7271 9.87733 74.9804 10.624C74.2338 11.3333 73.3191 11.688 72.2364 11.688C71.2284 11.688 70.3324 11.3333 69.5484 10.624C68.8018 9.87733 68.4284 9 68.4284 7.992ZM69.2684 18.24H75.2604V44H69.2684V18.24ZM83.6381 35.488C84.4968 36.4213 85.3368 37.2053 86.1581 37.84C86.9795 38.4747 87.8195 38.96 88.6781 39.296C89.5368 39.632 90.3955 39.8 91.2541 39.8C92.3368 39.8 93.1768 39.5573 93.7741 39.072C94.4088 38.5867 94.7261 37.9147 94.7261 37.056C94.7261 36.3093 94.4835 35.6747 93.9981 35.152C93.5128 34.592 92.8408 34.1253 91.9821 33.752C91.1235 33.3413 90.1155 32.9307 88.9581 32.52C87.8008 32.072 86.6435 31.5493 85.4861 30.952C84.3661 30.3173 83.4328 29.496 82.6861 28.488C81.9768 27.48 81.6221 26.2107 81.6221 24.68C81.6221 23.112 82.0141 21.8053 82.7981 20.76C83.6195 19.7147 84.7021 18.9493 86.0461 18.464C87.4275 17.9413 88.9021 17.68 90.4701 17.68C91.8888 17.68 93.2141 17.8853 94.4461 18.296C95.7155 18.7067 96.8541 19.248 97.8621 19.92C98.8701 20.592 99.7288 21.3573 100.438 22.216L97.0781 25.8C96.2568 24.792 95.2488 23.9707 94.0541 23.336C92.8595 22.7013 91.6275 22.384 90.3581 22.384C89.4621 22.384 88.7341 22.5707 88.1741 22.944C87.6141 23.3173 87.3341 23.8587 87.3341 24.568C87.3341 25.1653 87.5768 25.7067 88.0621 26.192C88.5848 26.64 89.2568 27.0507 90.0781 27.424C90.9368 27.7973 91.8888 28.1893 92.9341 28.6C94.3901 29.16 95.7155 29.776 96.9101 30.448C98.1048 31.12 99.0568 31.9413 99.7661 32.912C100.475 33.8827 100.83 35.152 100.83 36.72C100.83 39.1467 99.9901 41.1067 98.3101 42.6C96.6675 44.056 94.4461 44.784 91.6461 44.784C89.8541 44.784 88.2301 44.5227 86.7741 44C85.3181 43.44 84.0301 42.7307 82.9101 41.872C81.7901 40.976 80.8568 40.0427 80.1101 39.072L83.6381 35.488ZM111.181 0.319998V44H105.077V0.319998H111.181ZM121.653 28.32C121.653 26.416 121.261 24.9787 120.477 24.008C119.73 23.0373 118.535 22.552 116.893 22.552C115.735 22.552 114.727 22.7947 113.869 23.28C113.01 23.7653 112.338 24.4373 111.853 25.296C111.405 26.1547 111.181 27.1627 111.181 28.32H109.725C109.725 26.2667 110.079 24.4373 110.789 22.832C111.535 21.1893 112.581 19.9013 113.925 18.968C115.306 17.9973 116.967 17.512 118.909 17.512C120.85 17.512 122.474 17.8853 123.781 18.632C125.087 19.3787 126.077 20.4987 126.749 21.992C127.421 23.448 127.757 25.2773 127.757 27.48V44H121.653V28.32ZM138.171 35.992C138.171 36.8507 138.376 37.5973 138.787 38.232C139.197 38.8293 139.757 39.2773 140.467 39.576C141.213 39.8747 142.053 40.024 142.987 40.024C144.219 40.024 145.32 39.7813 146.291 39.296C147.299 38.7733 148.101 38.0453 148.699 37.112C149.296 36.1787 149.595 35.0587 149.595 33.752L150.491 37.112C150.491 38.7547 150.005 40.136 149.035 41.256C148.101 42.376 146.907 43.216 145.451 43.776C144.032 44.2987 142.576 44.56 141.083 44.56C139.477 44.56 137.984 44.2427 136.603 43.608C135.221 42.9733 134.12 42.04 133.299 40.808C132.477 39.576 132.067 38.0827 132.067 36.328C132.067 33.8267 132.944 31.848 134.699 30.392C136.453 28.8987 138.936 28.152 142.147 28.152C143.864 28.152 145.339 28.3387 146.571 28.712C147.84 29.0853 148.885 29.5333 149.707 30.056C150.528 30.5413 151.107 30.9893 151.443 31.4V34.48C150.285 33.6587 149.053 33.0613 147.747 32.688C146.44 32.3147 145.059 32.128 143.603 32.128C142.333 32.128 141.307 32.296 140.523 32.632C139.739 32.9307 139.141 33.36 138.731 33.92C138.357 34.48 138.171 35.1707 138.171 35.992ZM136.267 24.96L133.803 20.704C134.997 19.9947 136.509 19.304 138.339 18.632C140.168 17.96 142.296 17.624 144.723 17.624C146.813 17.624 148.68 17.9413 150.323 18.576C151.965 19.1733 153.235 20.0693 154.131 21.264C155.064 22.4587 155.531 23.9147 155.531 25.632V44H149.595V26.808C149.595 25.9867 149.464 25.3147 149.203 24.792C148.941 24.2693 148.549 23.84 148.027 23.504C147.541 23.168 146.963 22.9253 146.291 22.776C145.619 22.6267 144.891 22.552 144.107 22.552C142.912 22.552 141.773 22.7013 140.691 23C139.645 23.2613 138.749 23.5973 138.003 24.008C137.256 24.3813 136.677 24.6987 136.267 24.96Z" fill="#060606"/>
</svg>
