<svg width="42" height="26" viewBox="0 0 42 26" fill="none" xmlns="http://www.w3.org/2000/svg">
<path d="M7.08171 18.4857H12.2407V21H5V5H7.08171V18.4857Z" fill="#060606"/>
<path d="M13.7858 5H15.8675V21H13.7858V5Z" fill="#060606"/>
<path d="M27.9574 21H25.4775L20.4813 13.3886V21H18.3996V5H20.4813V12.1771L25.2964 5H27.7764L22.6536 12.7943L27.9574 21Z" fill="#060606"/>
<path d="M31.3884 18.4857H37V21H29.3067V5H36.9095V7.51429H31.3884V11.6743H36.4569V14.1657H31.3884V18.4857Z" fill="#060606"/>
<rect x="1" y="1" width="40" height="24" stroke="url(#paint0_linear_23_12604)"/>
<rect x="1" y="1" width="40" height="24" stroke="url(#paint1_linear_23_12604)"/>
<rect x="1" y="1" width="40" height="24" stroke="url(#paint2_linear_23_12604)"/>
<rect x="1" y="1" width="40" height="24" stroke="url(#paint3_linear_23_12604)" stroke-opacity="0.1"/>
<rect x="1" y="1" width="40" height="24" stroke="url(#paint4_linear_23_12604)" stroke-opacity="0.1"/>
<defs>
<linearGradient id="paint0_linear_23_12604" x1="20.9584" y1="6.49452" x2="44.4318" y2="17.3291" gradientUnits="userSpaceOnUse">
<stop stop-color="#FF0069"/>
<stop offset="1" stop-color="#D300C5"/>
</linearGradient>
<linearGradient id="paint1_linear_23_12604" x1="16.7392" y1="1" x2="32.482" y2="11.316" gradientUnits="userSpaceOnUse">
<stop stop-color="#FF7A00"/>
<stop offset="0.504623" stop-color="#FD1D1D"/>
<stop offset="1" stop-color="#FF0069"/>
</linearGradient>
<linearGradient id="paint2_linear_23_12604" x1="29.0594" y1="37.0577" x2="10.5518" y2="21.6586" gradientUnits="userSpaceOnUse">
<stop stop-color="#EF00B4"/>
<stop offset="1" stop-color="#FF0069" stop-opacity="0"/>
</linearGradient>
<linearGradient id="paint3_linear_23_12604" x1="37.1604" y1="26.7555" x2="35.7694" y2="8.9808" gradientUnits="userSpaceOnUse">
<stop stop-color="white"/>
<stop offset="1" stop-color="white" stop-opacity="0"/>
</linearGradient>
<linearGradient id="paint4_linear_23_12604" x1="2.56245" y1="0.999997" x2="10.016" y2="7.91919" gradientUnits="userSpaceOnUse">
<stop stop-color="white"/>
<stop offset="1" stop-color="white" stop-opacity="0"/>
</linearGradient>
</defs>
</svg>
