<svg width="42" height="26" viewBox="0 0 42 26" fill="none" xmlns="http://www.w3.org/2000/svg">
<rect x="1" y="1" width="40" height="24" fill="#060606"/>
<path d="M7.08171 18.4857H12.2407V21H5V5H7.08171V18.4857Z" fill="url(#paint0_linear_23_12606)"/>
<path d="M7.08171 18.4857H12.2407V21H5V5H7.08171V18.4857Z" fill="url(#paint1_linear_23_12606)"/>
<path d="M7.08171 18.4857H12.2407V21H5V5H7.08171V18.4857Z" fill="url(#paint2_linear_23_12606)"/>
<path d="M7.08171 18.4857H12.2407V21H5V5H7.08171V18.4857Z" fill="url(#paint3_linear_23_12606)" fill-opacity="0.1"/>
<path d="M7.08171 18.4857H12.2407V21H5V5H7.08171V18.4857Z" fill="url(#paint4_linear_23_12606)" fill-opacity="0.1"/>
<path d="M13.7858 5H15.8675V21H13.7858V5Z" fill="url(#paint5_linear_23_12606)"/>
<path d="M13.7858 5H15.8675V21H13.7858V5Z" fill="url(#paint6_linear_23_12606)"/>
<path d="M13.7858 5H15.8675V21H13.7858V5Z" fill="url(#paint7_linear_23_12606)"/>
<path d="M13.7858 5H15.8675V21H13.7858V5Z" fill="url(#paint8_linear_23_12606)" fill-opacity="0.1"/>
<path d="M13.7858 5H15.8675V21H13.7858V5Z" fill="url(#paint9_linear_23_12606)" fill-opacity="0.1"/>
<path d="M27.9574 21H25.4775L20.4813 13.3886V21H18.3996V5H20.4813V12.1771L25.2964 5H27.7764L22.6536 12.7943L27.9574 21Z" fill="url(#paint10_linear_23_12606)"/>
<path d="M27.9574 21H25.4775L20.4813 13.3886V21H18.3996V5H20.4813V12.1771L25.2964 5H27.7764L22.6536 12.7943L27.9574 21Z" fill="url(#paint11_linear_23_12606)"/>
<path d="M27.9574 21H25.4775L20.4813 13.3886V21H18.3996V5H20.4813V12.1771L25.2964 5H27.7764L22.6536 12.7943L27.9574 21Z" fill="url(#paint12_linear_23_12606)"/>
<path d="M27.9574 21H25.4775L20.4813 13.3886V21H18.3996V5H20.4813V12.1771L25.2964 5H27.7764L22.6536 12.7943L27.9574 21Z" fill="url(#paint13_linear_23_12606)" fill-opacity="0.1"/>
<path d="M27.9574 21H25.4775L20.4813 13.3886V21H18.3996V5H20.4813V12.1771L25.2964 5H27.7764L22.6536 12.7943L27.9574 21Z" fill="url(#paint14_linear_23_12606)" fill-opacity="0.1"/>
<path d="M31.3884 18.4857H37V21H29.3067V5H36.9095V7.51429H31.3884V11.6743H36.4569V14.1657H31.3884V18.4857Z" fill="url(#paint15_linear_23_12606)"/>
<path d="M31.3884 18.4857H37V21H29.3067V5H36.9095V7.51429H31.3884V11.6743H36.4569V14.1657H31.3884V18.4857Z" fill="url(#paint16_linear_23_12606)"/>
<path d="M31.3884 18.4857H37V21H29.3067V5H36.9095V7.51429H31.3884V11.6743H36.4569V14.1657H31.3884V18.4857Z" fill="url(#paint17_linear_23_12606)"/>
<path d="M31.3884 18.4857H37V21H29.3067V5H36.9095V7.51429H31.3884V11.6743H36.4569V14.1657H31.3884V18.4857Z" fill="url(#paint18_linear_23_12606)" fill-opacity="0.1"/>
<path d="M31.3884 18.4857H37V21H29.3067V5H36.9095V7.51429H31.3884V11.6743H36.4569V14.1657H31.3884V18.4857Z" fill="url(#paint19_linear_23_12606)" fill-opacity="0.1"/>
<rect x="1" y="1" width="40" height="24" stroke="#060606"/>
<defs>
<linearGradient id="paint0_linear_23_12606" x1="20.9667" y1="8.66301" x2="38.3983" y2="18.3181" gradientUnits="userSpaceOnUse">
<stop stop-color="#FF0069"/>
<stop offset="1" stop-color="#D300C5"/>
</linearGradient>
<linearGradient id="paint1_linear_23_12606" x1="17.5913" y1="5" x2="28.7153" y2="13.7472" gradientUnits="userSpaceOnUse">
<stop stop-color="#FF7A00"/>
<stop offset="0.504623" stop-color="#FD1D1D"/>
<stop offset="1" stop-color="#FF0069"/>
</linearGradient>
<linearGradient id="paint2_linear_23_12606" x1="27.4475" y1="29.0385" x2="14.8999" y2="16.5104" gradientUnits="userSpaceOnUse">
<stop stop-color="#EF00B4"/>
<stop offset="1" stop-color="#FF0069" stop-opacity="0"/>
</linearGradient>
<linearGradient id="paint3_linear_23_12606" x1="33.9283" y1="22.1703" x2="33.1541" y2="10.2984" gradientUnits="userSpaceOnUse">
<stop stop-color="white"/>
<stop offset="1" stop-color="white" stop-opacity="0"/>
</linearGradient>
<linearGradient id="paint4_linear_23_12606" x1="6.24996" y1="5" x2="11.2038" y2="10.5185" gradientUnits="userSpaceOnUse">
<stop stop-color="white"/>
<stop offset="1" stop-color="white" stop-opacity="0"/>
</linearGradient>
<linearGradient id="paint5_linear_23_12606" x1="20.9667" y1="8.66301" x2="38.3983" y2="18.3181" gradientUnits="userSpaceOnUse">
<stop stop-color="#FF0069"/>
<stop offset="1" stop-color="#D300C5"/>
</linearGradient>
<linearGradient id="paint6_linear_23_12606" x1="17.5913" y1="5" x2="28.7153" y2="13.7472" gradientUnits="userSpaceOnUse">
<stop stop-color="#FF7A00"/>
<stop offset="0.504623" stop-color="#FD1D1D"/>
<stop offset="1" stop-color="#FF0069"/>
</linearGradient>
<linearGradient id="paint7_linear_23_12606" x1="27.4475" y1="29.0385" x2="14.8999" y2="16.5104" gradientUnits="userSpaceOnUse">
<stop stop-color="#EF00B4"/>
<stop offset="1" stop-color="#FF0069" stop-opacity="0"/>
</linearGradient>
<linearGradient id="paint8_linear_23_12606" x1="33.9283" y1="22.1703" x2="33.1541" y2="10.2984" gradientUnits="userSpaceOnUse">
<stop stop-color="white"/>
<stop offset="1" stop-color="white" stop-opacity="0"/>
</linearGradient>
<linearGradient id="paint9_linear_23_12606" x1="6.24996" y1="5" x2="11.2038" y2="10.5185" gradientUnits="userSpaceOnUse">
<stop stop-color="white"/>
<stop offset="1" stop-color="white" stop-opacity="0"/>
</linearGradient>
<linearGradient id="paint10_linear_23_12606" x1="20.9667" y1="8.66301" x2="38.3983" y2="18.3181" gradientUnits="userSpaceOnUse">
<stop stop-color="#FF0069"/>
<stop offset="1" stop-color="#D300C5"/>
</linearGradient>
<linearGradient id="paint11_linear_23_12606" x1="17.5913" y1="5" x2="28.7153" y2="13.7472" gradientUnits="userSpaceOnUse">
<stop stop-color="#FF7A00"/>
<stop offset="0.504623" stop-color="#FD1D1D"/>
<stop offset="1" stop-color="#FF0069"/>
</linearGradient>
<linearGradient id="paint12_linear_23_12606" x1="27.4475" y1="29.0385" x2="14.8999" y2="16.5104" gradientUnits="userSpaceOnUse">
<stop stop-color="#EF00B4"/>
<stop offset="1" stop-color="#FF0069" stop-opacity="0"/>
</linearGradient>
<linearGradient id="paint13_linear_23_12606" x1="33.9283" y1="22.1703" x2="33.1541" y2="10.2984" gradientUnits="userSpaceOnUse">
<stop stop-color="white"/>
<stop offset="1" stop-color="white" stop-opacity="0"/>
</linearGradient>
<linearGradient id="paint14_linear_23_12606" x1="6.24996" y1="5" x2="11.2038" y2="10.5185" gradientUnits="userSpaceOnUse">
<stop stop-color="white"/>
<stop offset="1" stop-color="white" stop-opacity="0"/>
</linearGradient>
<linearGradient id="paint15_linear_23_12606" x1="20.9667" y1="8.66301" x2="38.3983" y2="18.3181" gradientUnits="userSpaceOnUse">
<stop stop-color="#FF0069"/>
<stop offset="1" stop-color="#D300C5"/>
</linearGradient>
<linearGradient id="paint16_linear_23_12606" x1="17.5913" y1="5" x2="28.7153" y2="13.7472" gradientUnits="userSpaceOnUse">
<stop stop-color="#FF7A00"/>
<stop offset="0.504623" stop-color="#FD1D1D"/>
<stop offset="1" stop-color="#FF0069"/>
</linearGradient>
<linearGradient id="paint17_linear_23_12606" x1="27.4475" y1="29.0385" x2="14.8999" y2="16.5104" gradientUnits="userSpaceOnUse">
<stop stop-color="#EF00B4"/>
<stop offset="1" stop-color="#FF0069" stop-opacity="0"/>
</linearGradient>
<linearGradient id="paint18_linear_23_12606" x1="33.9283" y1="22.1703" x2="33.1541" y2="10.2984" gradientUnits="userSpaceOnUse">
<stop stop-color="white"/>
<stop offset="1" stop-color="white" stop-opacity="0"/>
</linearGradient>
<linearGradient id="paint19_linear_23_12606" x1="6.24996" y1="5" x2="11.2038" y2="10.5185" gradientUnits="userSpaceOnUse">
<stop stop-color="white"/>
<stop offset="1" stop-color="white" stop-opacity="0"/>
</linearGradient>
</defs>
</svg>
