<svg width="341" height="17" viewBox="0 0 341 17" fill="none" xmlns="http://www.w3.org/2000/svg">
<path d="M105.448 1.49112C107.999 -0.0442948 111.116 -0.0693195 113.998 0.0370029C116.252 0.296554 118.778 0.637413 120.394 2.423C121.09 3.10159 121.338 4.071 121.409 5.01851C120.004 5.06229 118.598 5.03103 117.196 5.04667C116.354 3.20479 114.153 3.333 112.457 3.28296C111.036 3.33925 109.435 3.15787 108.268 4.15229C108.278 4.39934 108.299 4.89656 108.312 5.14361C108.887 5.41879 109.482 5.68147 110.116 5.80343C112.906 6.26624 115.763 6.24435 118.524 6.87603C119.964 7.20438 121.462 8.0487 121.901 9.56848C122.415 10.7005 122.056 11.9732 121.542 13.0333C120.654 14.6157 118.824 15.2724 117.147 15.5632C113.797 15.9854 110.308 16.0479 107.058 15.0191C105.139 14.4218 103.411 12.7081 103.51 10.5629C104.913 10.5254 106.318 10.5598 107.724 10.5348C108.151 11.1352 108.519 11.8919 109.278 12.1202C110.903 12.63 112.633 12.5705 114.317 12.5424C115.401 12.4705 116.633 12.4454 117.472 11.6418C117.527 11.229 117.558 10.8162 117.564 10.4034C113.766 8.85864 109.299 10.0251 105.646 7.95489C103.331 6.72906 103.161 2.82954 105.448 1.49112Z" fill="#060606"/>
<path d="M0.5134 0.917405C1.93428 0.914278 3.35517 0.914275 4.77605 0.914275C4.85034 3.1189 4.76057 5.32353 4.83177 7.52816C6.88416 5.81136 8.8932 4.04765 10.9177 2.29959C11.5771 1.75547 12.1498 0.836104 13.1063 0.901773C15.0504 0.9049 16.9913 0.883 18.9323 0.929907C16.5486 3.06261 13.9452 4.94201 11.6607 7.18416C13.9824 10.1612 16.5982 12.8912 18.9539 15.8432C17.1925 15.7994 15.4033 15.9808 13.6604 15.765C11.735 13.9481 10.2274 11.7466 8.43196 9.8047C7.19372 10.746 6.03906 11.7904 4.82867 12.763C4.79462 13.7887 4.80391 14.8144 4.79153 15.8432C3.37064 15.8557 1.94976 15.8526 0.528877 15.8463C0.479347 10.871 0.507209 5.89266 0.5134 0.917405Z" fill="#060606"/>
<path d="M35.7904 0.898142C37.7809 0.891888 39.7745 0.895015 41.768 0.898142C44.2724 5.87653 46.9284 10.7861 49.3058 15.827C47.8633 15.8489 46.4145 15.8865 44.972 15.8302C44.2074 15.0609 43.904 13.9695 43.3592 13.0502C40.3069 13.0408 37.2546 13.0376 34.2024 13.0533C33.7071 13.9852 33.2334 14.9264 32.7227 15.8489C31.2275 15.8489 29.7323 15.8708 28.2402 15.8364C30.596 10.7799 33.2768 5.87653 35.7904 0.898142ZM35.905 9.69788C37.8273 9.75417 39.7497 9.73228 41.669 9.71352C40.7217 7.79659 39.824 5.85463 38.7715 3.99712C37.7437 5.85776 36.8151 7.7747 35.905 9.69788Z" fill="#060606"/>
<path d="M56.4201 0.91523C62.3512 0.918357 68.2824 0.908978 74.2136 0.91836C74.2198 2.1223 74.2198 3.32625 74.2167 4.53332C71.9631 4.66153 69.7033 4.52707 67.4497 4.61463C67.4404 8.3578 67.4776 12.1041 67.4311 15.8504C66.1341 15.8379 64.8339 15.8942 63.54 15.8379C63.4409 15.7441 63.2459 15.5533 63.1499 15.4595C63.1128 11.8383 63.1499 8.22021 63.1344 4.60213C60.9954 4.58024 58.8563 4.62713 56.7203 4.58647C56.6306 4.48328 56.451 4.27689 56.3612 4.17369C56.2993 3.08545 56.3024 1.99409 56.4201 0.91523Z" fill="#060606"/>
<path d="M134.909 0.911705C136.345 0.91796 137.785 0.842903 139.221 0.964861C139.215 2.81925 139.138 4.67677 139.268 6.52803C142.549 6.478 145.833 6.52803 149.115 6.50301C149.146 4.63612 149.121 2.77236 149.136 0.905464C150.576 0.9211 152.022 0.842906 153.464 0.967991C153.415 5.92136 153.476 10.881 153.43 15.8375C152.006 15.8531 150.582 15.85 149.161 15.8406C149.118 13.9737 149.149 12.1068 149.136 10.2431C145.83 10.2337 142.521 10.2368 139.212 10.2431C139.203 12.1068 139.227 13.9737 139.193 15.8437C137.763 15.8344 136.33 15.9125 134.903 15.7906C134.912 10.831 134.897 5.87133 134.909 0.911705Z" fill="#060606"/>
<path d="M172.994 0.903858C174.873 0.900731 176.752 0.875714 178.631 0.903858C179.052 0.831934 179.167 1.3354 179.353 1.60746C181.105 5.05043 182.854 8.49339 184.603 11.9395C185.24 13.2279 186.005 14.4631 186.469 15.8359C184.999 15.8703 183.532 15.839 182.064 15.8609C181.526 14.9978 181.139 14.0565 180.622 13.1841C180.238 12.9589 179.761 13.0809 179.343 13.0434C176.684 13.0621 174.025 13.0309 171.366 13.0621C170.905 13.9627 170.511 14.9009 170.097 15.8265C168.533 15.8703 166.97 15.8609 165.41 15.839C166.896 12.4805 168.809 9.33459 170.304 5.97918C171.264 4.3218 172.062 2.57687 172.994 0.903858ZM175.752 4.33118C174.842 6.10739 173.926 7.88359 173.103 9.70358C175.04 9.76612 176.981 9.74424 178.922 9.7161C177.953 7.90862 177.102 6.04172 176.13 4.23737C176.037 4.26238 175.848 4.30929 175.752 4.33118Z" fill="#060606"/>
<path d="M85.6426 0.988704C87.0851 0.954306 88.5277 0.963694 89.9733 0.976203C89.9826 5.98273 89.9826 10.9893 89.9733 15.9958C88.5277 15.9989 87.0851 15.9989 85.6426 15.9927C85.6426 10.9924 85.6426 5.98898 85.6426 0.988704Z" fill="#060606"/>
<path fill-rule="evenodd" clip-rule="evenodd" d="M246.623 0.906653H246.602C246.6 1.8398 246.597 2.77316 246.595 3.70668C246.585 7.75356 246.574 11.8034 246.617 15.8512C247.985 15.8543 249.354 15.8543 250.725 15.8512C250.758 15.4672 250.747 15.077 250.737 14.6872V14.6871V14.6871V14.687V14.687C250.72 14.0831 250.704 13.48 250.849 12.9023C251.942 11.739 253.226 10.7571 254.505 9.80645C255.138 10.5234 255.753 11.2593 256.368 11.9951C257.45 13.2909 258.533 14.5866 259.718 15.7793C260.859 15.8684 262.007 15.8512 263.155 15.834C263.778 15.8247 264.401 15.8153 265.024 15.823C262.587 12.9304 260.111 10.0691 257.631 7.21719C258.916 5.95798 260.306 4.81876 261.696 3.67929L261.696 3.67923C262.785 2.78695 263.873 1.89451 264.912 0.944177C263.833 0.888874 262.752 0.893446 261.672 0.898017C261.042 0.900683 260.412 0.903348 259.783 0.894132C259.672 0.897868 259.557 0.895653 259.44 0.893411C258.972 0.884397 258.483 0.874966 258.148 1.25063C257.374 1.9252 256.598 2.596 255.822 3.26622L255.822 3.2663L255.822 3.26658L255.821 3.26715C255.375 3.65298 254.929 4.03862 254.483 4.42467C254.063 4.7633 253.659 5.125 253.256 5.48676C252.471 6.19068 251.686 6.89485 250.774 7.42984C250.738 6.13941 250.742 4.84787 250.747 3.5572V3.55714V3.55708V3.55701V3.55695V3.55666V3.55637V3.55607V3.55578C250.75 2.67316 250.754 1.79095 250.744 0.909764C249.367 0.906653 247.993 0.906653 246.623 0.906653ZM200.674 0.901568C199.985 0.901566 199.296 0.901565 198.607 0.898438C198.605 1.67676 198.603 2.45509 198.601 3.23342C198.588 7.43973 198.576 11.646 198.623 15.8524C200.36 15.8489 202.097 15.8514 203.835 15.8539H203.835C206.814 15.8581 209.793 15.8624 212.773 15.8367C212.863 15.7335 213.039 15.524 213.126 15.4208C213.188 14.3326 213.216 13.2318 213.017 12.1624C211.789 12.159 210.562 12.1613 209.334 12.1635C207.141 12.1676 204.948 12.1717 202.755 12.1436C202.744 10.1367 202.746 8.12974 202.747 6.12282C202.749 4.38345 202.75 2.64407 202.743 0.904698C202.053 0.901571 201.363 0.901569 200.674 0.901568ZM277.307 0.916417C280.215 0.909269 283.124 0.910288 286.034 0.911307C288.216 0.912072 290.398 0.912837 292.581 0.910156C292.589 1.18451 292.627 1.4799 292.666 1.78213L292.666 1.78222V1.78225C292.779 2.66844 292.899 3.61341 292.318 4.25932C290.308 4.28576 288.297 4.2814 286.288 4.27704C284.732 4.27367 283.177 4.27029 281.622 4.28121C281.622 5.05674 281.622 5.83227 281.619 6.61092C283.248 6.62103 284.877 6.61914 286.506 6.61725C288.406 6.61505 290.306 6.61285 292.206 6.62968C292.226 7.6477 292.223 8.67076 292.22 9.69206V9.69238V9.6927V9.69302L292.219 10.0351C290.934 10.0362 289.65 10.0357 288.367 10.0352C286.12 10.0343 283.873 10.0334 281.625 10.0414C281.619 10.8482 281.622 11.6581 281.635 12.468C284.235 12.4747 286.838 12.4735 289.442 12.4722H289.442H289.443H289.443H289.443C290.484 12.4717 291.525 12.4712 292.565 12.4712C292.576 12.7431 292.615 13.0354 292.654 13.3344L292.655 13.3352L292.655 13.3359L292.655 13.3362C292.773 14.2296 292.9 15.1834 292.318 15.8391C290.816 15.8372 289.314 15.8446 287.812 15.852H287.812H287.812H287.812H287.811C284.305 15.8693 280.797 15.8866 277.295 15.7859C277.304 13.2087 277.303 10.6314 277.302 8.05418C277.301 5.67493 277.3 3.29567 277.307 0.916417ZM334.193 0.903106C330.339 0.898825 326.485 0.894544 322.633 0.904663C322.546 2.12737 322.559 3.3532 322.627 4.57591C323.542 4.58985 324.457 4.58838 325.373 4.5869C326.715 4.58474 328.058 4.58258 329.4 4.62906C329.384 8.36598 329.381 12.1029 329.403 15.8398C330.832 15.8586 332.261 15.8523 333.696 15.8461L333.7 15.8461C333.726 13.7193 333.723 11.5935 333.719 9.46759V9.46428C333.716 7.83403 333.714 6.2037 333.724 4.57278C334.598 4.56428 335.471 4.56803 336.345 4.57178C337.724 4.57769 339.103 4.5836 340.482 4.54149C340.507 3.32817 340.501 2.11797 340.495 0.907774C338.394 0.907774 336.293 0.90544 334.193 0.903106ZM226.877 0.979697L227.31 0.976757C228.608 0.96775 229.906 0.958742 231.208 0.995329C231.204 5.99561 231.204 10.9959 231.208 15.9962C229.762 16.0024 228.319 16.0024 226.877 15.9993C226.868 10.9928 226.864 5.98623 226.877 0.979697ZM311.418 0.978131C309.975 0.965623 308.533 0.965623 307.09 0.978131C307.081 5.98466 307.081 10.9881 307.09 15.9946C308.533 16.0009 309.975 16.0008 311.421 15.9977C311.419 13.8516 311.42 11.7054 311.42 9.55924C311.421 6.69887 311.421 3.8385 311.418 0.978131Z" fill="url(#paint0_linear_91_50028)"/>
<path fill-rule="evenodd" clip-rule="evenodd" d="M246.623 0.906653H246.602C246.6 1.8398 246.597 2.77316 246.595 3.70668C246.585 7.75356 246.574 11.8034 246.617 15.8512C247.985 15.8543 249.354 15.8543 250.725 15.8512C250.758 15.4672 250.747 15.077 250.737 14.6872V14.6871V14.6871V14.687V14.687C250.72 14.0831 250.704 13.48 250.849 12.9023C251.942 11.739 253.226 10.7571 254.505 9.80645C255.138 10.5234 255.753 11.2593 256.368 11.9951C257.45 13.2909 258.533 14.5866 259.718 15.7793C260.859 15.8684 262.007 15.8512 263.155 15.834C263.778 15.8247 264.401 15.8153 265.024 15.823C262.587 12.9304 260.111 10.0691 257.631 7.21719C258.916 5.95798 260.306 4.81876 261.696 3.67929L261.696 3.67923C262.785 2.78695 263.873 1.89451 264.912 0.944177C263.833 0.888874 262.752 0.893446 261.672 0.898017C261.042 0.900683 260.412 0.903348 259.783 0.894132C259.672 0.897868 259.557 0.895653 259.44 0.893411C258.972 0.884397 258.483 0.874966 258.148 1.25063C257.374 1.9252 256.598 2.596 255.822 3.26622L255.822 3.2663L255.822 3.26658L255.821 3.26715C255.375 3.65298 254.929 4.03862 254.483 4.42467C254.063 4.7633 253.659 5.125 253.256 5.48676C252.471 6.19068 251.686 6.89485 250.774 7.42984C250.738 6.13941 250.742 4.84787 250.747 3.5572V3.55714V3.55708V3.55701V3.55695V3.55666V3.55637V3.55607V3.55578C250.75 2.67316 250.754 1.79095 250.744 0.909764C249.367 0.906653 247.993 0.906653 246.623 0.906653ZM200.674 0.901568C199.985 0.901566 199.296 0.901565 198.607 0.898438C198.605 1.67676 198.603 2.45509 198.601 3.23342C198.588 7.43973 198.576 11.646 198.623 15.8524C200.36 15.8489 202.097 15.8514 203.835 15.8539H203.835C206.814 15.8581 209.793 15.8624 212.773 15.8367C212.863 15.7335 213.039 15.524 213.126 15.4208C213.188 14.3326 213.216 13.2318 213.017 12.1624C211.789 12.159 210.562 12.1613 209.334 12.1635C207.141 12.1676 204.948 12.1717 202.755 12.1436C202.744 10.1367 202.746 8.12974 202.747 6.12282C202.749 4.38345 202.75 2.64407 202.743 0.904698C202.053 0.901571 201.363 0.901569 200.674 0.901568ZM277.307 0.916417C280.215 0.909269 283.124 0.910288 286.034 0.911307C288.216 0.912072 290.398 0.912837 292.581 0.910156C292.589 1.18451 292.627 1.4799 292.666 1.78213L292.666 1.78222V1.78225C292.779 2.66844 292.899 3.61341 292.318 4.25932C290.308 4.28576 288.297 4.2814 286.288 4.27704C284.732 4.27367 283.177 4.27029 281.622 4.28121C281.622 5.05674 281.622 5.83227 281.619 6.61092C283.248 6.62103 284.877 6.61914 286.506 6.61725C288.406 6.61505 290.306 6.61285 292.206 6.62968C292.226 7.6477 292.223 8.67076 292.22 9.69206V9.69238V9.6927V9.69302L292.219 10.0351C290.934 10.0362 289.65 10.0357 288.367 10.0352C286.12 10.0343 283.873 10.0334 281.625 10.0414C281.619 10.8482 281.622 11.6581 281.635 12.468C284.235 12.4747 286.838 12.4735 289.442 12.4722H289.442H289.443H289.443H289.443C290.484 12.4717 291.525 12.4712 292.565 12.4712C292.576 12.7431 292.615 13.0354 292.654 13.3344L292.655 13.3352L292.655 13.3359L292.655 13.3362C292.773 14.2296 292.9 15.1834 292.318 15.8391C290.816 15.8372 289.314 15.8446 287.812 15.852H287.812H287.812H287.812H287.811C284.305 15.8693 280.797 15.8866 277.295 15.7859C277.304 13.2087 277.303 10.6314 277.302 8.05418C277.301 5.67493 277.3 3.29567 277.307 0.916417ZM334.193 0.903106C330.339 0.898825 326.485 0.894544 322.633 0.904663C322.546 2.12737 322.559 3.3532 322.627 4.57591C323.542 4.58985 324.457 4.58838 325.373 4.5869C326.715 4.58474 328.058 4.58258 329.4 4.62906C329.384 8.36598 329.381 12.1029 329.403 15.8398C330.832 15.8586 332.261 15.8523 333.696 15.8461L333.7 15.8461C333.726 13.7193 333.723 11.5935 333.719 9.46759V9.46428C333.716 7.83403 333.714 6.2037 333.724 4.57278C334.598 4.56428 335.471 4.56803 336.345 4.57178C337.724 4.57769 339.103 4.5836 340.482 4.54149C340.507 3.32817 340.501 2.11797 340.495 0.907774C338.394 0.907774 336.293 0.90544 334.193 0.903106ZM226.877 0.979697L227.31 0.976757C228.608 0.96775 229.906 0.958742 231.208 0.995329C231.204 5.99561 231.204 10.9959 231.208 15.9962C229.762 16.0024 228.319 16.0024 226.877 15.9993C226.868 10.9928 226.864 5.98623 226.877 0.979697ZM311.418 0.978131C309.975 0.965623 308.533 0.965623 307.09 0.978131C307.081 5.98466 307.081 10.9881 307.09 15.9946C308.533 16.0009 309.975 16.0008 311.421 15.9977C311.419 13.8516 311.42 11.7054 311.42 9.55924C311.421 6.69887 311.421 3.8385 311.418 0.978131Z" fill="url(#paint1_linear_91_50028)"/>
<path fill-rule="evenodd" clip-rule="evenodd" d="M246.623 0.906653H246.602C246.6 1.8398 246.597 2.77316 246.595 3.70668C246.585 7.75356 246.574 11.8034 246.617 15.8512C247.985 15.8543 249.354 15.8543 250.725 15.8512C250.758 15.4672 250.747 15.077 250.737 14.6872V14.6871V14.6871V14.687V14.687C250.72 14.0831 250.704 13.48 250.849 12.9023C251.942 11.739 253.226 10.7571 254.505 9.80645C255.138 10.5234 255.753 11.2593 256.368 11.9951C257.45 13.2909 258.533 14.5866 259.718 15.7793C260.859 15.8684 262.007 15.8512 263.155 15.834C263.778 15.8247 264.401 15.8153 265.024 15.823C262.587 12.9304 260.111 10.0691 257.631 7.21719C258.916 5.95798 260.306 4.81876 261.696 3.67929L261.696 3.67923C262.785 2.78695 263.873 1.89451 264.912 0.944177C263.833 0.888874 262.752 0.893446 261.672 0.898017C261.042 0.900683 260.412 0.903348 259.783 0.894132C259.672 0.897868 259.557 0.895653 259.44 0.893411C258.972 0.884397 258.483 0.874966 258.148 1.25063C257.374 1.9252 256.598 2.596 255.822 3.26622L255.822 3.2663L255.822 3.26658L255.821 3.26715C255.375 3.65298 254.929 4.03862 254.483 4.42467C254.063 4.7633 253.659 5.125 253.256 5.48676C252.471 6.19068 251.686 6.89485 250.774 7.42984C250.738 6.13941 250.742 4.84787 250.747 3.5572V3.55714V3.55708V3.55701V3.55695V3.55666V3.55637V3.55607V3.55578C250.75 2.67316 250.754 1.79095 250.744 0.909764C249.367 0.906653 247.993 0.906653 246.623 0.906653ZM200.674 0.901568C199.985 0.901566 199.296 0.901565 198.607 0.898438C198.605 1.67676 198.603 2.45509 198.601 3.23342C198.588 7.43973 198.576 11.646 198.623 15.8524C200.36 15.8489 202.097 15.8514 203.835 15.8539H203.835C206.814 15.8581 209.793 15.8624 212.773 15.8367C212.863 15.7335 213.039 15.524 213.126 15.4208C213.188 14.3326 213.216 13.2318 213.017 12.1624C211.789 12.159 210.562 12.1613 209.334 12.1635C207.141 12.1676 204.948 12.1717 202.755 12.1436C202.744 10.1367 202.746 8.12974 202.747 6.12282C202.749 4.38345 202.75 2.64407 202.743 0.904698C202.053 0.901571 201.363 0.901569 200.674 0.901568ZM277.307 0.916417C280.215 0.909269 283.124 0.910288 286.034 0.911307C288.216 0.912072 290.398 0.912837 292.581 0.910156C292.589 1.18451 292.627 1.4799 292.666 1.78213L292.666 1.78222V1.78225C292.779 2.66844 292.899 3.61341 292.318 4.25932C290.308 4.28576 288.297 4.2814 286.288 4.27704C284.732 4.27367 283.177 4.27029 281.622 4.28121C281.622 5.05674 281.622 5.83227 281.619 6.61092C283.248 6.62103 284.877 6.61914 286.506 6.61725C288.406 6.61505 290.306 6.61285 292.206 6.62968C292.226 7.6477 292.223 8.67076 292.22 9.69206V9.69238V9.6927V9.69302L292.219 10.0351C290.934 10.0362 289.65 10.0357 288.367 10.0352C286.12 10.0343 283.873 10.0334 281.625 10.0414C281.619 10.8482 281.622 11.6581 281.635 12.468C284.235 12.4747 286.838 12.4735 289.442 12.4722H289.442H289.443H289.443H289.443C290.484 12.4717 291.525 12.4712 292.565 12.4712C292.576 12.7431 292.615 13.0354 292.654 13.3344L292.655 13.3352L292.655 13.3359L292.655 13.3362C292.773 14.2296 292.9 15.1834 292.318 15.8391C290.816 15.8372 289.314 15.8446 287.812 15.852H287.812H287.812H287.812H287.811C284.305 15.8693 280.797 15.8866 277.295 15.7859C277.304 13.2087 277.303 10.6314 277.302 8.05418C277.301 5.67493 277.3 3.29567 277.307 0.916417ZM334.193 0.903106C330.339 0.898825 326.485 0.894544 322.633 0.904663C322.546 2.12737 322.559 3.3532 322.627 4.57591C323.542 4.58985 324.457 4.58838 325.373 4.5869C326.715 4.58474 328.058 4.58258 329.4 4.62906C329.384 8.36598 329.381 12.1029 329.403 15.8398C330.832 15.8586 332.261 15.8523 333.696 15.8461L333.7 15.8461C333.726 13.7193 333.723 11.5935 333.719 9.46759V9.46428C333.716 7.83403 333.714 6.2037 333.724 4.57278C334.598 4.56428 335.471 4.56803 336.345 4.57178C337.724 4.57769 339.103 4.5836 340.482 4.54149C340.507 3.32817 340.501 2.11797 340.495 0.907774C338.394 0.907774 336.293 0.90544 334.193 0.903106ZM226.877 0.979697L227.31 0.976757C228.608 0.96775 229.906 0.958742 231.208 0.995329C231.204 5.99561 231.204 10.9959 231.208 15.9962C229.762 16.0024 228.319 16.0024 226.877 15.9993C226.868 10.9928 226.864 5.98623 226.877 0.979697ZM311.418 0.978131C309.975 0.965623 308.533 0.965623 307.09 0.978131C307.081 5.98466 307.081 10.9881 307.09 15.9946C308.533 16.0009 309.975 16.0008 311.421 15.9977C311.419 13.8516 311.42 11.7054 311.42 9.55924C311.421 6.69887 311.421 3.8385 311.418 0.978131Z" fill="url(#paint2_linear_91_50028)"/>
<path fill-rule="evenodd" clip-rule="evenodd" d="M246.623 0.906653H246.602C246.6 1.8398 246.597 2.77316 246.595 3.70668C246.585 7.75356 246.574 11.8034 246.617 15.8512C247.985 15.8543 249.354 15.8543 250.725 15.8512C250.758 15.4672 250.747 15.077 250.737 14.6872V14.6871V14.6871V14.687V14.687C250.72 14.0831 250.704 13.48 250.849 12.9023C251.942 11.739 253.226 10.7571 254.505 9.80645C255.138 10.5234 255.753 11.2593 256.368 11.9951C257.45 13.2909 258.533 14.5866 259.718 15.7793C260.859 15.8684 262.007 15.8512 263.155 15.834C263.778 15.8247 264.401 15.8153 265.024 15.823C262.587 12.9304 260.111 10.0691 257.631 7.21719C258.916 5.95798 260.306 4.81876 261.696 3.67929L261.696 3.67923C262.785 2.78695 263.873 1.89451 264.912 0.944177C263.833 0.888874 262.752 0.893446 261.672 0.898017C261.042 0.900683 260.412 0.903348 259.783 0.894132C259.672 0.897868 259.557 0.895653 259.44 0.893411C258.972 0.884397 258.483 0.874966 258.148 1.25063C257.374 1.9252 256.598 2.596 255.822 3.26622L255.822 3.2663L255.822 3.26658L255.821 3.26715C255.375 3.65298 254.929 4.03862 254.483 4.42467C254.063 4.7633 253.659 5.125 253.256 5.48676C252.471 6.19068 251.686 6.89485 250.774 7.42984C250.738 6.13941 250.742 4.84787 250.747 3.5572V3.55714V3.55708V3.55701V3.55695V3.55666V3.55637V3.55607V3.55578C250.75 2.67316 250.754 1.79095 250.744 0.909764C249.367 0.906653 247.993 0.906653 246.623 0.906653ZM200.674 0.901568C199.985 0.901566 199.296 0.901565 198.607 0.898438C198.605 1.67676 198.603 2.45509 198.601 3.23342C198.588 7.43973 198.576 11.646 198.623 15.8524C200.36 15.8489 202.097 15.8514 203.835 15.8539H203.835C206.814 15.8581 209.793 15.8624 212.773 15.8367C212.863 15.7335 213.039 15.524 213.126 15.4208C213.188 14.3326 213.216 13.2318 213.017 12.1624C211.789 12.159 210.562 12.1613 209.334 12.1635C207.141 12.1676 204.948 12.1717 202.755 12.1436C202.744 10.1367 202.746 8.12974 202.747 6.12282C202.749 4.38345 202.75 2.64407 202.743 0.904698C202.053 0.901571 201.363 0.901569 200.674 0.901568ZM277.307 0.916417C280.215 0.909269 283.124 0.910288 286.034 0.911307C288.216 0.912072 290.398 0.912837 292.581 0.910156C292.589 1.18451 292.627 1.4799 292.666 1.78213L292.666 1.78222V1.78225C292.779 2.66844 292.899 3.61341 292.318 4.25932C290.308 4.28576 288.297 4.2814 286.288 4.27704C284.732 4.27367 283.177 4.27029 281.622 4.28121C281.622 5.05674 281.622 5.83227 281.619 6.61092C283.248 6.62103 284.877 6.61914 286.506 6.61725C288.406 6.61505 290.306 6.61285 292.206 6.62968C292.226 7.6477 292.223 8.67076 292.22 9.69206V9.69238V9.6927V9.69302L292.219 10.0351C290.934 10.0362 289.65 10.0357 288.367 10.0352C286.12 10.0343 283.873 10.0334 281.625 10.0414C281.619 10.8482 281.622 11.6581 281.635 12.468C284.235 12.4747 286.838 12.4735 289.442 12.4722H289.442H289.443H289.443H289.443C290.484 12.4717 291.525 12.4712 292.565 12.4712C292.576 12.7431 292.615 13.0354 292.654 13.3344L292.655 13.3352L292.655 13.3359L292.655 13.3362C292.773 14.2296 292.9 15.1834 292.318 15.8391C290.816 15.8372 289.314 15.8446 287.812 15.852H287.812H287.812H287.812H287.811C284.305 15.8693 280.797 15.8866 277.295 15.7859C277.304 13.2087 277.303 10.6314 277.302 8.05418C277.301 5.67493 277.3 3.29567 277.307 0.916417ZM334.193 0.903106C330.339 0.898825 326.485 0.894544 322.633 0.904663C322.546 2.12737 322.559 3.3532 322.627 4.57591C323.542 4.58985 324.457 4.58838 325.373 4.5869C326.715 4.58474 328.058 4.58258 329.4 4.62906C329.384 8.36598 329.381 12.1029 329.403 15.8398C330.832 15.8586 332.261 15.8523 333.696 15.8461L333.7 15.8461C333.726 13.7193 333.723 11.5935 333.719 9.46759V9.46428C333.716 7.83403 333.714 6.2037 333.724 4.57278C334.598 4.56428 335.471 4.56803 336.345 4.57178C337.724 4.57769 339.103 4.5836 340.482 4.54149C340.507 3.32817 340.501 2.11797 340.495 0.907774C338.394 0.907774 336.293 0.90544 334.193 0.903106ZM226.877 0.979697L227.31 0.976757C228.608 0.96775 229.906 0.958742 231.208 0.995329C231.204 5.99561 231.204 10.9959 231.208 15.9962C229.762 16.0024 228.319 16.0024 226.877 15.9993C226.868 10.9928 226.864 5.98623 226.877 0.979697ZM311.418 0.978131C309.975 0.965623 308.533 0.965623 307.09 0.978131C307.081 5.98466 307.081 10.9881 307.09 15.9946C308.533 16.0009 309.975 16.0008 311.421 15.9977C311.419 13.8516 311.42 11.7054 311.42 9.55924C311.421 6.69887 311.421 3.8385 311.418 0.978131Z" fill="url(#paint3_linear_91_50028)" fill-opacity="0.1"/>
<path fill-rule="evenodd" clip-rule="evenodd" d="M246.623 0.906653H246.602C246.6 1.8398 246.597 2.77316 246.595 3.70668C246.585 7.75356 246.574 11.8034 246.617 15.8512C247.985 15.8543 249.354 15.8543 250.725 15.8512C250.758 15.4672 250.747 15.077 250.737 14.6872V14.6871V14.6871V14.687V14.687C250.72 14.0831 250.704 13.48 250.849 12.9023C251.942 11.739 253.226 10.7571 254.505 9.80645C255.138 10.5234 255.753 11.2593 256.368 11.9951C257.45 13.2909 258.533 14.5866 259.718 15.7793C260.859 15.8684 262.007 15.8512 263.155 15.834C263.778 15.8247 264.401 15.8153 265.024 15.823C262.587 12.9304 260.111 10.0691 257.631 7.21719C258.916 5.95798 260.306 4.81876 261.696 3.67929L261.696 3.67923C262.785 2.78695 263.873 1.89451 264.912 0.944177C263.833 0.888874 262.752 0.893446 261.672 0.898017C261.042 0.900683 260.412 0.903348 259.783 0.894132C259.672 0.897868 259.557 0.895653 259.44 0.893411C258.972 0.884397 258.483 0.874966 258.148 1.25063C257.374 1.9252 256.598 2.596 255.822 3.26622L255.822 3.2663L255.822 3.26658L255.821 3.26715C255.375 3.65298 254.929 4.03862 254.483 4.42467C254.063 4.7633 253.659 5.125 253.256 5.48676C252.471 6.19068 251.686 6.89485 250.774 7.42984C250.738 6.13941 250.742 4.84787 250.747 3.5572V3.55714V3.55708V3.55701V3.55695V3.55666V3.55637V3.55607V3.55578C250.75 2.67316 250.754 1.79095 250.744 0.909764C249.367 0.906653 247.993 0.906653 246.623 0.906653ZM200.674 0.901568C199.985 0.901566 199.296 0.901565 198.607 0.898438C198.605 1.67676 198.603 2.45509 198.601 3.23342C198.588 7.43973 198.576 11.646 198.623 15.8524C200.36 15.8489 202.097 15.8514 203.835 15.8539H203.835C206.814 15.8581 209.793 15.8624 212.773 15.8367C212.863 15.7335 213.039 15.524 213.126 15.4208C213.188 14.3326 213.216 13.2318 213.017 12.1624C211.789 12.159 210.562 12.1613 209.334 12.1635C207.141 12.1676 204.948 12.1717 202.755 12.1436C202.744 10.1367 202.746 8.12974 202.747 6.12282C202.749 4.38345 202.75 2.64407 202.743 0.904698C202.053 0.901571 201.363 0.901569 200.674 0.901568ZM277.307 0.916417C280.215 0.909269 283.124 0.910288 286.034 0.911307C288.216 0.912072 290.398 0.912837 292.581 0.910156C292.589 1.18451 292.627 1.4799 292.666 1.78213L292.666 1.78222V1.78225C292.779 2.66844 292.899 3.61341 292.318 4.25932C290.308 4.28576 288.297 4.2814 286.288 4.27704C284.732 4.27367 283.177 4.27029 281.622 4.28121C281.622 5.05674 281.622 5.83227 281.619 6.61092C283.248 6.62103 284.877 6.61914 286.506 6.61725C288.406 6.61505 290.306 6.61285 292.206 6.62968C292.226 7.6477 292.223 8.67076 292.22 9.69206V9.69238V9.6927V9.69302L292.219 10.0351C290.934 10.0362 289.65 10.0357 288.367 10.0352C286.12 10.0343 283.873 10.0334 281.625 10.0414C281.619 10.8482 281.622 11.6581 281.635 12.468C284.235 12.4747 286.838 12.4735 289.442 12.4722H289.442H289.443H289.443H289.443C290.484 12.4717 291.525 12.4712 292.565 12.4712C292.576 12.7431 292.615 13.0354 292.654 13.3344L292.655 13.3352L292.655 13.3359L292.655 13.3362C292.773 14.2296 292.9 15.1834 292.318 15.8391C290.816 15.8372 289.314 15.8446 287.812 15.852H287.812H287.812H287.812H287.811C284.305 15.8693 280.797 15.8866 277.295 15.7859C277.304 13.2087 277.303 10.6314 277.302 8.05418C277.301 5.67493 277.3 3.29567 277.307 0.916417ZM334.193 0.903106C330.339 0.898825 326.485 0.894544 322.633 0.904663C322.546 2.12737 322.559 3.3532 322.627 4.57591C323.542 4.58985 324.457 4.58838 325.373 4.5869C326.715 4.58474 328.058 4.58258 329.4 4.62906C329.384 8.36598 329.381 12.1029 329.403 15.8398C330.832 15.8586 332.261 15.8523 333.696 15.8461L333.7 15.8461C333.726 13.7193 333.723 11.5935 333.719 9.46759V9.46428C333.716 7.83403 333.714 6.2037 333.724 4.57278C334.598 4.56428 335.471 4.56803 336.345 4.57178C337.724 4.57769 339.103 4.5836 340.482 4.54149C340.507 3.32817 340.501 2.11797 340.495 0.907774C338.394 0.907774 336.293 0.90544 334.193 0.903106ZM226.877 0.979697L227.31 0.976757C228.608 0.96775 229.906 0.958742 231.208 0.995329C231.204 5.99561 231.204 10.9959 231.208 15.9962C229.762 16.0024 228.319 16.0024 226.877 15.9993C226.868 10.9928 226.864 5.98623 226.877 0.979697ZM311.418 0.978131C309.975 0.965623 308.533 0.965623 307.09 0.978131C307.081 5.98466 307.081 10.9881 307.09 15.9946C308.533 16.0009 309.975 16.0008 311.421 15.9977C311.419 13.8516 311.42 11.7054 311.42 9.55924C311.421 6.69887 311.421 3.8385 311.418 0.978131Z" fill="url(#paint4_linear_91_50028)" fill-opacity="0.1"/>
<defs>
<linearGradient id="paint0_linear_91_50028" x1="269.397" y1="4.35005" x2="282.408" y2="38.1885" gradientUnits="userSpaceOnUse">
<stop stop-color="#FF0069"/>
<stop offset="1" stop-color="#D300C5"/>
</linearGradient>
<linearGradient id="paint1_linear_91_50028" x1="254.428" y1="0.890625" x2="259.884" y2="21.0345" gradientUnits="userSpaceOnUse">
<stop stop-color="#FF7A00"/>
<stop offset="0.504623" stop-color="#FD1D1D"/>
<stop offset="1" stop-color="#FF0069"/>
</linearGradient>
<linearGradient id="paint2_linear_91_50028" x1="298.138" y1="23.593" x2="293.303" y2="0.923921" gradientUnits="userSpaceOnUse">
<stop stop-color="#EF00B4"/>
<stop offset="1" stop-color="#FF0069" stop-opacity="0"/>
</linearGradient>
<linearGradient id="paint3_linear_91_50028" x1="326.878" y1="17.1066" x2="326.722" y2="5.84907" gradientUnits="userSpaceOnUse">
<stop stop-color="white"/>
<stop offset="1" stop-color="white" stop-opacity="0"/>
</linearGradient>
<linearGradient id="paint4_linear_91_50028" x1="204.133" y1="0.890623" x2="205.868" y2="9.97043" gradientUnits="userSpaceOnUse">
<stop stop-color="white"/>
<stop offset="1" stop-color="white" stop-opacity="0"/>
</linearGradient>
</defs>
</svg>
