<svg width="24" height="24" viewBox="0 0 24 24" fill="none" xmlns="http://www.w3.org/2000/svg">
<path d="M12.5343 19.8653L20.128 12.2715C21.9936 10.3965 22.2655 7.33089 20.503 5.37152C20.061 4.87774 19.5229 4.47928 18.9217 4.20047C18.3205 3.92166 17.6688 3.76836 17.0063 3.74993C16.3439 3.73151 15.6846 3.84834 15.0688 4.0933C14.453 4.33826 13.8937 4.7062 13.4249 5.17464L11.9999 6.60902L10.7718 5.37152C8.89676 3.50589 5.83114 3.23402 3.87176 4.99652C3.37799 5.43853 2.97952 5.97659 2.70071 6.5778C2.4219 7.17901 2.2686 7.83075 2.25018 8.49321C2.23175 9.15567 2.34859 9.81493 2.59355 10.4307C2.83851 11.0465 3.20645 11.6059 3.67489 12.0746L11.4655 19.8653C11.6077 20.0061 11.7997 20.0851 11.9999 20.0851C12.2 20.0851 12.3921 20.0061 12.5343 19.8653V19.8653Z" stroke="#060606" stroke-linecap="round" stroke-linejoin="round"/>
</svg>
