<svg width="73" height="56" fill="none" xmlns="http://www.w3.org/2000/svg"><g clip-path="url(#a)"><mask id="b" style="mask-type:alpha" maskUnits="userSpaceOnUse" x="0" y="0" width="73" height="56"><path fill="#fff" d="M.002.845h72.412v54.309H.002z"/></mask><g mask="url(#b)" fill-rule="evenodd" clip-rule="evenodd"><path d="M.002.845h72.412v54.309H.002V.845Z" fill="#E31D1C"/><path d="m16.1 22.92-8.81 6.905 3.365-10.442-5.876-5.43 7.956-.294L16.1 5.254l3.366 8.405h7.942l-5.862 5.724 2.67 10.442L16.1 22.92Zm17.881-8.109-3.697 2.232.843-4.355-3.078-3.26 4.168-.176 1.764-4.066 1.764 4.066h4.161l-3.071 3.436.924 4.355-3.778-2.232Z" fill="#FECA00"/><path d="m38.507 23.863-3.697 2.232.843-4.356-3.079-3.26 4.169-.175 1.764-4.067 1.763 4.067h4.162l-3.072 3.435.925 4.355-3.778-2.231Z" fill="#FECA00"/><path d="m33.981 32.914-3.697 2.232.843-4.355-3.078-3.26 4.168-.176 1.764-4.066 1.764 4.066h4.161l-3.071 3.436.924 4.355-3.778-2.232Z" fill="#FECA00"/><path d="m24.93 37.44-3.697 2.232.844-4.355-3.079-3.26 4.169-.176 1.763-4.067 1.764 4.067h4.162l-3.072 3.435.925 4.356-3.779-2.232Z" fill="#FECA00"/></g><path fill="url(#c)" style="mix-blend-mode:overlay" d="M0 .846h72.412v54.309H0z"/></g><rect x="2.263" y="3.109" width="67.886" height="49.783" rx="2.263" stroke="#000" stroke-opacity=".1" stroke-width="4.526" style="mix-blend-mode:multiply"/><defs><linearGradient id="c" x1="36.206" y1=".846" x2="36.206" y2="55.154" gradientUnits="userSpaceOnUse"><stop stop-color="#fff" stop-opacity=".7"/><stop offset="1" stop-opacity=".3"/></linearGradient><clipPath id="a"><rect y=".846" width="72.412" height="54.309" rx="4.526" fill="#fff"/></clipPath></defs></svg>