<svg width="72" height="55" fill="none" xmlns="http://www.w3.org/2000/svg"><g clip-path="url(#a)"><mask id="b" style="mask-type:alpha" maskUnits="userSpaceOnUse" x="0" y="0" width="72" height="55"><path fill="#fff" d="M0 .846h72v54H0z"/></mask><g mask="url(#b)"><path fill-rule="evenodd" clip-rule="evenodd" d="M0 36.846h72v18H0v-18Z" fill="#14DC5A"/><path fill-rule="evenodd" clip-rule="evenodd" d="M0 .846h72v22.5H0V.846Z" fill="#0099B5"/><path d="M-4.5 21.658h-1.688v16.875h84.376V21.658H-4.5Z" fill="#F7FCFF" stroke="#C51918" stroke-width="3.375"/><path fill-rule="evenodd" clip-rule="evenodd" d="m37.638 6.247-2.21 1.255.63-2.55-2.117-1.873h2.766l.928-2.412 1.088 2.412h2.358l-1.853 1.873.891 2.55-2.48-1.255Zm-11.333 6.918 2.21-1.254 2.482 1.254-.892-2.55 1.854-1.873H29.6L28.512 6.33l-.928 2.412h-2.766l2.118 1.874-.631 2.55ZM20.2 17.84l-2.211 1.254.632-2.549-2.119-1.873h2.767l.928-2.413 1.088 2.413h2.358l-1.853 1.873.89 2.55-2.48-1.255Zm8.441.01-2.21 1.254.63-2.549-2.117-1.873h2.766l.928-2.413 1.088 2.413h2.358l-1.853 1.873.891 2.55-2.48-1.255Zm9 0-2.21 1.254.631-2.549-2.118-1.873h2.767l.927-2.413 1.088 2.413h2.359l-1.853 1.873.89 2.55-2.48-1.255Zm-2.337-4.685 2.211-1.254 2.48 1.254-.89-2.55 1.853-1.873H38.6L37.513 6.33l-.928 2.412h-2.767l2.118 1.874-.631 2.55Zm9.127 5.94 2.211-1.255 2.48 1.254-.89-2.549 1.853-1.873h-2.358l-1.088-2.413-.928 2.413h-2.767l2.118 1.873-.631 2.55Zm2.083-7.194-2.211 1.254.631-2.55-2.118-1.873h2.767l.928-2.412L47.6 8.742h2.358l-1.853 1.874.89 2.55-2.48-1.255ZM44.428 7.5l2.21-1.254 2.482 1.255-.891-2.55 1.853-1.873h-2.359L46.635.667l-.927 2.412H42.94l2.118 1.873-.631 2.55Zm11.216 10.35-2.212 1.254.632-2.549-2.118-1.873h2.766l.928-2.413 1.088 2.413h2.358l-1.853 1.873.891 2.55-2.48-1.255Zm-2.34-4.685 2.211-1.254 2.481 1.254-.89-2.55 1.852-1.873H56.6L55.512 6.33l-.928 2.412h-2.766l2.118 1.874-.632 2.55Zm2.335-6.918-2.21 1.255.63-2.55-2.117-1.873h2.766l.928-2.412 1.088 2.412h2.358L57.23 4.952l.891 2.55-2.48-1.255Zm-42.396 13.14S7.807 17.913 7.91 12.46c.102-5.453 5.592-6.869 5.592-6.869-2.243-.85-8.876.29-8.998 6.814-.123 6.522 6.649 7.808 8.739 6.982Z" fill="#F7FCFF"/></g><path fill="url(#c)" style="mix-blend-mode:overlay" d="M0 .846h72v54H0z"/></g><rect x="2.25" y="3.096" width="67.5" height="49.5" rx="2.25" stroke="#000" stroke-opacity=".1" stroke-width="4.5" style="mix-blend-mode:multiply"/><defs><linearGradient id="c" x1="36" y1=".846" x2="36" y2="54.846" gradientUnits="userSpaceOnUse"><stop stop-color="#fff" stop-opacity=".7"/><stop offset="1" stop-opacity=".3"/></linearGradient><clipPath id="a"><rect y=".846" width="72" height="54" rx="4.5" fill="#fff"/></clipPath></defs></svg>